<svg width="135" height="81" viewBox="0 0 135 81" fill="none" xmlns="http://www.w3.org/2000/svg">
<path d="M25.5709 64.12L25.3107 64.547L25.3156 64.5499L25.5709 64.12ZM16.1629 54.136L16.6059 53.9043L16.6059 53.9043L16.1629 54.136ZM16.1629 26.68L16.6044 26.9146L16.6059 26.9117L16.1629 26.68ZM25.5709 16.792L25.8262 17.222L25.8311 17.219L25.5709 16.792ZM51.4909 15.16L51.296 15.6205L51.3036 15.6236L51.4909 15.16ZM59.9389 20.824L60.2924 21.1776L60.6366 20.8334L60.3019 20.4801L59.9389 20.824ZM57.9229 22.84L57.5693 23.1935L57.9229 23.5471L58.2764 23.1935L57.9229 22.84ZM27.0109 19.384L27.267 19.8134L27.2692 19.8121L27.0109 19.384ZM18.6589 28.216L19.1014 28.4489L19.103 28.4457L18.6589 28.216ZM18.6589 52.696L18.2148 52.9257L18.2164 52.9289L18.6589 52.696ZM27.0109 61.528L26.7492 61.9542L26.758 61.9593L27.0109 61.528ZM50.3389 62.968L50.148 62.5059L50.148 62.5059L50.3389 62.968ZM57.9229 57.976L58.2764 57.6224L57.9229 57.2689L57.5693 57.6224L57.9229 57.976ZM59.9389 59.992L60.2972 60.3407L60.6412 59.9872L60.2924 59.6384L59.9389 59.992ZM51.4909 65.656L51.2961 65.1955L51.2961 65.1955L51.4909 65.656ZM26.3389 71.512L26.1384 71.9702L26.1471 71.9737L26.3389 71.512ZM15.6829 64.216L15.3219 64.562L15.3256 64.5658L15.6829 64.216ZM8.86688 53.56L8.39863 53.7356L8.40213 53.7444L8.86688 53.56ZM8.86688 27.352L8.40113 27.1701L8.39963 27.174L8.86688 27.352ZM15.6829 16.6L15.322 16.2539L15.3219 16.254L15.6829 16.6ZM26.3389 9.304L26.1471 8.84224L26.1445 8.84332L26.3389 9.304ZM53.8909 9.304L53.6939 9.76365L53.7027 9.76723L53.8909 9.304ZM64.4509 16.312L64.8044 16.6655L65.1542 16.3158L64.8082 15.9623L64.4509 16.312ZM62.3389 18.424L61.977 18.769L62.3304 19.1396L62.6924 18.7775L62.3389 18.424ZM52.7389 11.992L52.5477 12.454L52.5505 12.4551L52.7389 11.992ZM23.8429 13.816L23.5891 13.3852L23.5865 13.3867L23.8429 13.816ZM13.1869 24.952L13.6265 25.1901L13.6279 25.1876L13.1869 24.952ZM23.8429 67L23.5865 67.4293L23.5891 67.4308L23.8429 67ZM52.7389 68.824L52.5505 68.3608L52.5477 68.362L52.7389 68.824ZM62.3389 62.392L62.6924 62.0384L62.3304 61.6764L61.977 62.047L62.3389 62.392ZM64.4509 64.504L64.8044 64.8576L65.158 64.504L64.8044 64.1504L64.4509 64.504ZM53.8909 71.512L53.6965 71.0513L53.6939 71.0524L53.8909 71.512ZM23.8429 77.368L23.6437 77.8267L23.651 77.8297L23.8429 77.368ZM11.2669 68.728L11.6267 68.3808L11.6267 68.3808L11.2669 68.728ZM3.10688 56.056L2.6418 56.2396L2.64264 56.2417L3.10688 56.056ZM3.10688 24.856L3.57112 25.0417L3.57196 25.0396L3.10688 24.856ZM11.2669 12.088L11.6267 12.4352L11.6267 12.4352L11.2669 12.088ZM23.8429 3.544L24.0369 4.00483L24.0398 4.00357L23.8429 3.544ZM56.3869 3.44799L56.1928 3.90884L56.198 3.91096L56.3869 3.44799ZM68.9629 11.8L69.3164 12.1535L69.6668 11.8032L69.3196 11.4496L68.9629 11.8ZM66.9469 13.816L66.5933 14.1696L66.9469 14.5231L67.3004 14.1696L66.9469 13.816ZM55.2349 6.13599L55.0379 6.59563L55.0458 6.59887L55.2349 6.13599ZM24.9949 6.13599L24.8003 5.67542L24.8003 5.67542L24.9949 6.13599ZM13.2829 14.104L12.9226 13.7573L12.9226 13.7573L13.2829 14.104ZM5.69888 26.008L5.23373 25.8246L5.23238 25.8281L5.69888 26.008ZM5.69888 54.904L5.23146 55.0817L5.23464 55.0897L5.69888 54.904ZM13.2829 66.712L13.6432 66.3653L13.6432 66.3653L13.2829 66.712ZM55.2349 74.776L55.4263 75.2379L55.4295 75.2366L55.2349 74.776ZM66.9469 67L67.3004 66.6464L66.9469 66.2929L66.5933 66.6464L66.9469 67ZM68.9629 69.016L69.3164 69.3696L69.67 69.016L69.3164 68.6624L68.9629 69.016ZM56.3869 77.368L56.1929 76.9072L56.1929 76.9072L56.3869 77.368ZM40.2589 67.268C34.6351 67.268 29.831 66.068 25.8261 63.6901L25.3156 64.5499C29.5028 67.036 34.4907 68.268 40.2589 68.268V67.268ZM25.8311 63.693C21.8108 61.2432 18.7389 57.982 16.6059 53.9043L15.7198 54.3677C17.9389 58.61 21.1389 62.0048 25.3107 64.547L25.8311 63.693ZM16.6059 53.9043C14.4697 49.8203 13.3989 45.3245 13.3989 40.408H12.3989C12.3989 45.4755 13.5041 50.1317 15.7198 54.3677L16.6059 53.9043ZM13.3989 40.408C13.3989 35.4263 14.4702 30.932 16.6044 26.9146L15.7213 26.4454C13.5036 30.62 12.3989 35.2777 12.3989 40.408H13.3989ZM16.6059 26.9117C18.7383 22.8352 21.8087 19.6073 25.8261 17.2219L25.3156 16.3621C21.1411 18.8407 17.9395 22.2048 15.7198 26.4482L16.6059 26.9117ZM25.8311 17.219C29.8351 14.779 34.6373 13.548 40.2589 13.548V12.548C34.4885 12.548 29.4987 13.813 25.3107 16.365L25.8311 17.219ZM40.2589 13.548C44.362 13.548 48.0383 14.2422 51.2961 15.6205L51.6857 14.6995C48.2874 13.2618 44.4758 12.548 40.2589 12.548V13.548ZM51.3036 15.6236C54.57 16.9427 57.3247 18.7916 59.5759 21.1679L60.3019 20.4801C57.9451 17.9924 55.0678 16.0653 51.6781 14.6964L51.3036 15.6236ZM59.5853 20.4704L57.5693 22.4864L58.2764 23.1935L60.2924 21.1776L59.5853 20.4704ZM58.2764 22.4864C56.1149 20.3249 53.5305 18.6253 50.5298 17.3859L50.148 18.3101C53.0353 19.5027 55.5069 21.1311 57.5693 23.1935L58.2764 22.4864ZM50.5298 17.3859C47.5151 16.1407 44.0884 15.524 40.2589 15.524V16.524C43.9813 16.524 47.2747 17.1233 50.148 18.3101L50.5298 17.3859ZM40.2589 15.524C35.0645 15.524 30.5556 16.6609 26.7525 18.9559L27.2692 19.8121C30.8901 17.627 35.2133 16.524 40.2589 16.524V15.524ZM26.7547 18.9546C23.0281 21.1775 20.1783 24.1901 18.2148 27.9863L19.103 28.4457C20.9794 24.8179 23.6977 21.9425 27.267 19.8134L26.7547 18.9546ZM18.2164 27.9831C16.2554 31.709 15.2789 35.8541 15.2789 40.408H16.2789C16.2789 36.0019 17.2223 32.019 19.1013 28.4489L18.2164 27.9831ZM15.2789 40.408C15.2789 44.962 16.2554 49.1376 18.2148 52.9257L19.103 52.4663C17.2223 48.8304 16.2789 44.814 16.2789 40.408H15.2789ZM18.2164 52.9289C20.1799 56.6595 23.0278 59.669 26.7492 61.9541L27.2725 61.1019C23.698 58.907 20.9779 56.0285 19.1013 52.4631L18.2164 52.9289ZM26.758 61.9593C30.5601 64.1882 35.067 65.292 40.2589 65.292V64.292C35.2108 64.292 30.8856 63.2198 27.2637 61.0966L26.758 61.9593ZM40.2589 65.292C44.0884 65.292 47.5151 64.6753 50.5298 63.4301L50.148 62.5059C47.2747 63.6927 43.9813 64.292 40.2589 64.292V65.292ZM50.5298 63.4301C53.5305 62.1907 56.1149 60.4911 58.2764 58.3296L57.5693 57.6224C55.5069 59.6849 53.0353 61.3133 50.148 62.5059L50.5298 63.4301ZM57.5693 58.3296L59.5853 60.3456L60.2924 59.6384L58.2764 57.6224L57.5693 58.3296ZM59.5805 59.6433C57.3272 61.9592 54.5684 63.8111 51.2961 65.1955L51.6857 66.1165C55.0693 64.6849 57.9425 62.7608 60.2972 60.3407L59.5805 59.6433ZM51.2961 65.1955C48.0383 66.5738 44.362 67.268 40.2589 67.268V68.268C44.4758 68.268 48.2874 67.5542 51.6857 66.1165L51.2961 65.1955ZM40.2589 73.604C35.1958 73.604 30.6221 72.7498 26.5307 71.0503L26.1471 71.9737C30.3756 73.7302 35.082 74.604 40.2589 74.604V73.604ZM26.5393 71.0539C22.4996 69.2866 19.0015 66.8906 16.0401 63.8662L15.3256 64.5658C18.3803 67.6854 21.9861 70.1534 26.1385 71.9701L26.5393 71.0539ZM16.0439 63.87C13.1454 60.8456 10.9083 57.3487 9.33162 53.3756L8.40213 53.7444C10.0255 57.8353 12.3323 61.4424 15.3219 64.562L16.0439 63.87ZM9.33504 53.3844C7.82149 49.3483 7.06288 45.0241 7.06288 40.408H6.06288C6.06288 45.1358 6.84027 49.5797 8.39871 53.7356L9.33504 53.3844ZM7.06288 40.408C7.06288 35.7918 7.82151 31.5006 9.33412 27.53L8.39963 27.174C6.84025 31.2674 6.06288 35.6802 6.06288 40.408H7.06288ZM9.33261 27.5339C10.9096 23.4968 13.1467 19.9691 16.0439 16.9459L15.3219 16.254C12.331 19.3749 10.0242 23.0151 8.40115 27.1701L9.33261 27.5339ZM16.0437 16.9461C19.0035 13.8604 22.4985 11.4668 26.5332 9.76468L26.1445 8.84332C21.9873 10.5971 18.3783 13.0676 15.322 16.2539L16.0437 16.9461ZM26.5307 9.76575C30.6221 8.06622 35.1958 7.212 40.2589 7.212V6.212C35.082 6.212 30.3756 7.08578 26.1471 8.84225L26.5307 9.76575ZM40.2589 7.212C45.2574 7.212 49.7329 8.06601 53.6939 9.76357L54.0878 8.84443C49.9848 7.08599 45.3723 6.212 40.2589 6.212V7.212ZM53.7027 9.76723C57.7384 11.4067 61.2 13.7052 64.0935 16.6617L64.8082 15.9623C61.8138 12.9028 58.2354 10.5293 54.0791 8.84077L53.7027 9.76723ZM64.0973 15.9584L61.9853 18.0704L62.6924 18.7775L64.8044 16.6655L64.0973 15.9584ZM62.7008 18.079C60.0245 15.2721 56.764 13.0896 52.9273 11.5289L52.5505 12.4551C56.2658 13.9664 59.4053 16.0719 61.977 18.769L62.7008 18.079ZM52.9301 11.53C49.1492 9.96549 44.9229 9.18799 40.2589 9.18799V10.188C44.8108 10.188 48.9046 10.9465 52.5477 12.454L52.9301 11.53ZM40.2589 9.18799C33.9118 9.18799 28.3494 10.5812 23.5891 13.3852L24.0966 14.2468C28.6804 11.5468 34.0619 10.188 40.2589 10.188V9.18799ZM23.5865 13.3867C18.9016 16.1847 15.2853 19.9631 12.7459 24.7164L13.6279 25.1876C16.0805 20.5968 19.5682 16.9513 24.0993 14.2453L23.5865 13.3867ZM12.7472 24.7139C10.2082 29.4012 8.94288 34.6362 8.94288 40.408H9.94288C9.94288 34.7878 11.1735 29.7188 13.6265 25.1901L12.7472 24.7139ZM8.94288 40.408C8.94288 46.1168 10.2087 51.3505 12.7459 56.0996L13.6279 55.6284C11.1731 51.0335 9.94288 45.9632 9.94288 40.408H8.94288ZM12.7459 56.0996C15.2853 60.8528 18.9016 64.6313 23.5865 67.4293L24.0993 66.5707C19.5682 63.8647 16.0805 60.2191 13.6279 55.6284L12.7459 56.0996ZM23.5891 67.4308C28.3494 70.2348 33.9118 71.628 40.2589 71.628V70.628C34.0619 70.628 28.6804 69.2692 24.0966 66.5692L23.5891 67.4308ZM40.2589 71.628C44.9229 71.628 49.1492 70.8505 52.9301 69.286L52.5477 68.362C48.9046 69.8695 44.8108 70.628 40.2589 70.628V71.628ZM52.9273 69.2871C56.764 67.7264 60.0245 65.5439 62.7008 62.737L61.977 62.047C59.4053 64.7441 56.2658 66.8496 52.5505 68.3609L52.9273 69.2871ZM61.9853 62.7456L64.0973 64.8576L64.8044 64.1504L62.6924 62.0384L61.9853 62.7456ZM64.0973 64.1504C61.202 67.0458 57.7371 69.3467 53.6965 71.0513L54.0852 71.9727C58.2366 70.2213 61.8118 67.8502 64.8044 64.8576L64.0973 64.1504ZM53.6939 71.0524C49.7329 72.75 45.2574 73.604 40.2589 73.604V74.604C45.3723 74.604 49.9848 73.73 54.0878 71.9716L53.6939 71.0524ZM40.2589 79.94C34.3004 79.94 28.8947 78.926 24.0348 76.9063L23.651 77.8297C28.6471 79.906 34.1854 80.94 40.2589 80.94V79.94ZM24.042 76.9094C19.2356 74.8224 15.0989 71.9793 11.6267 68.3808L10.9071 69.0752C14.4749 72.7727 18.7222 75.6896 23.6437 77.8266L24.042 76.9094ZM11.6267 68.3808C8.15252 64.7803 5.46757 60.6114 3.57112 55.8703L2.64264 56.2417C4.58618 61.1006 7.34124 65.3797 10.9071 69.0752L11.6267 68.3808ZM3.57196 55.8724C1.67649 51.0706 0.726878 45.9173 0.726878 40.408H-0.273122C-0.273122 46.0347 0.697262 51.3134 2.6418 56.2396L3.57196 55.8724ZM0.726878 40.408C0.726878 34.8987 1.67651 29.7782 3.57112 25.0417L2.64264 24.6703C0.697248 29.5338 -0.273122 34.7813 -0.273122 40.408H0.726878ZM3.57196 25.0396C5.46869 20.2345 8.15359 16.0346 11.6267 12.4352L10.9071 11.7408C7.34016 15.4374 4.58507 19.7495 2.6418 24.6724L3.57196 25.0396ZM11.6267 12.4352C15.0978 8.83789 19.2327 6.02765 24.0369 4.00482L23.6489 3.08318C18.7251 5.15635 14.476 8.0421 10.9071 11.7408L11.6267 12.4352ZM24.0398 4.00357C28.8984 1.92132 34.3023 0.875994 40.2589 0.875994V-0.124006C34.1834 -0.124006 28.6433 0.942675 23.6459 3.08443L24.0398 4.00357ZM40.2589 0.875994C46.088 0.875994 51.397 1.88951 56.1929 3.90881L56.5809 2.98718C51.6488 0.910482 46.2058 -0.124006 40.2589 -0.124006V0.875994ZM56.198 3.91096C61.0019 5.87045 65.136 8.61714 68.6062 12.1503L69.3196 11.4496C65.7497 7.81485 61.4998 4.99354 56.5757 2.98503L56.198 3.91096ZM68.6093 11.4464L66.5933 13.4624L67.3004 14.1696L69.3164 12.1535L68.6093 11.4464ZM67.3004 13.4624C63.9865 10.1485 60.0255 7.55265 55.4239 5.67312L55.0458 6.59887C59.5322 8.43135 63.3793 10.9555 66.5933 14.1696L67.3004 13.4624ZM55.4318 5.67642C50.882 3.72651 45.8219 2.756 40.2589 2.756V3.756C45.7039 3.756 50.6277 4.70548 55.0379 6.59557L55.4318 5.67642ZM40.2589 2.756C34.5694 2.756 29.414 3.72597 24.8003 5.67542L25.1895 6.59657C29.6638 4.70602 34.6843 3.756 40.2589 3.756V2.756ZM24.8003 5.67542C20.197 7.62049 16.2358 10.3142 12.9226 13.7573L13.6432 14.4507C16.858 11.1098 20.7048 8.4915 25.1895 6.59657L24.8003 5.67542ZM12.9226 13.7573C9.61161 17.1981 7.04878 21.2222 5.23374 25.8246L6.16401 26.1914C7.93298 21.7058 10.4261 17.7939 13.6432 14.4507L12.9226 13.7573ZM5.23238 25.8281C3.4808 30.3692 2.60688 35.2306 2.60688 40.408H3.60688C3.60688 35.3454 4.46096 30.6068 6.16538 26.1879L5.23238 25.8281ZM2.60688 40.408C2.60688 45.5855 3.48081 50.478 5.23153 55.0817L6.16623 54.7263C4.46095 50.242 3.60688 45.4705 3.60688 40.408H2.60688ZM5.23464 55.0897C7.04997 59.628 9.61276 63.6191 12.9226 67.0587L13.6432 66.3653C10.425 63.0209 7.93178 59.14 6.16312 54.7183L5.23464 55.0897ZM12.9226 67.0587C16.2358 70.5018 20.197 73.1955 24.8003 75.1406L25.1895 74.2194C20.7048 72.3245 16.858 69.7062 13.6432 66.3653L12.9226 67.0587ZM24.8003 75.1406C29.414 77.09 34.5694 78.06 40.2589 78.06V77.06C34.6843 77.06 29.6638 76.11 25.1895 74.2194L24.8003 75.1406ZM40.2589 78.06C45.8197 78.06 50.8779 77.1222 55.4263 75.2379L55.0435 74.3141C50.6318 76.1418 45.706 77.06 40.2589 77.06V78.06ZM55.4295 75.2366C60.0288 73.2932 63.9878 70.6662 67.3004 67.3536L66.5933 66.6464C63.378 69.8618 59.529 72.4188 55.0403 74.3154L55.4295 75.2366ZM66.5933 67.3536L68.6093 69.3696L69.3164 68.6624L67.3004 66.6464L66.5933 67.3536ZM68.6093 68.6624C65.1378 72.134 61.0009 74.8828 56.1929 76.9072L56.5809 77.8288C61.5009 75.7572 65.748 72.938 69.3164 69.3696L68.6093 68.6624ZM56.1929 76.9072C51.397 78.9265 46.088 79.94 40.2589 79.94V80.94C46.2058 80.94 51.6488 79.9055 56.5809 77.8288L56.1929 76.9072ZM94.4381 65.176L94.1781 65.6032L94.185 65.6072L94.4381 65.176ZM89.6381 58.072L89.5052 57.59L89.104 57.7007L89.14 58.1153L89.6381 58.072ZM92.4221 57.304H92.9221V56.6474L92.2892 56.822L92.4221 57.304ZM96.0701 62.776L95.8112 63.2037L95.8178 63.2077L95.8245 63.2115L96.0701 62.776ZM115.462 62.68L115.213 62.2465L115.208 62.2493L115.462 62.68ZM107.494 48.184L107.355 48.6642L107.359 48.6654L107.494 48.184ZM101.542 46.456L101.403 46.9362L101.403 46.9362L101.542 46.456ZM83.5901 37.72L83.2613 38.0967L83.2613 38.0967L83.5901 37.72ZM81.1901 11.512L80.7848 11.2193L80.7838 11.2207L81.1901 11.512ZM91.2701 3.352L91.0602 2.89821L91.0576 2.89943L91.2701 3.352ZM118.918 2.776L118.728 3.23874L118.738 3.24228L118.918 2.776ZM128.71 9.4L128.336 9.7322L128.341 9.73674L128.71 9.4ZM133.702 19.48L133.835 19.962L134.277 19.8402L134.194 19.3898L133.702 19.48ZM130.918 20.248L130.425 20.3317L130.518 20.8771L131.051 20.73L130.918 20.248ZM117.766 5.368L117.583 5.83337L117.583 5.83337L117.766 5.368ZM92.7101 5.944L92.9182 6.39866L92.9216 6.39709L92.7101 5.944ZM83.6861 13.048L83.2851 12.7493L83.281 12.7549L83.6861 13.048ZM85.8941 36.088L85.5644 36.4639L85.5715 36.4699L85.8941 36.088ZM102.31 43.768L102.178 44.2502L102.178 44.2502L102.31 43.768ZM108.262 45.4L108.395 44.9179L108.394 44.9178L108.262 45.4ZM118.534 49.816L118.824 49.4084L118.824 49.4084L118.534 49.816ZM117.67 64.792L117.945 65.2094L117.952 65.2053L117.67 64.792ZM90.5021 70.168L90.2247 70.5841L90.2324 70.589L90.5021 70.168ZM83.3981 59.704L83.2693 59.2209L82.8313 59.3377L82.9047 59.785L83.3981 59.704ZM86.2781 58.936L86.7734 58.8677L86.6961 58.3071L86.1493 58.4529L86.2781 58.936ZM92.2301 67.864L91.9582 68.2836L91.9617 68.2858L92.2301 67.864ZM123.142 64.312L122.745 64.0083L122.745 64.0083L123.142 64.312ZM121.222 47.608L120.914 48.0018L120.919 48.0059L121.222 47.608ZM109.03 42.04L108.896 42.5217L108.899 42.5225L109.03 42.04ZM103.174 40.408L103.308 39.9264L103.308 39.9263L103.174 40.408ZM88.8701 33.88L89.1797 33.4874L89.1797 33.4874L88.8701 33.88ZM86.6621 14.776L86.2658 14.4711L86.2609 14.4776L86.6621 14.776ZM94.5341 8.92L94.729 9.38054L94.7364 9.37727L94.5341 8.92ZM116.23 8.536L116.046 9.00104L116.058 9.00533L116.23 8.536ZM123.91 13.528L124.28 13.1911L124.28 13.1911L123.91 13.528ZM127.558 21.112L127.687 21.5951L128.121 21.4793L128.052 21.0351L127.558 21.112ZM124.678 21.88L124.182 21.9399L124.251 22.5114L124.807 22.3631L124.678 21.88ZM118.726 12.952L118.454 13.3716L118.458 13.3738L118.726 12.952ZM95.9741 11.416L96.1599 11.8803L96.1686 11.8766L95.9741 11.416ZM89.1581 16.312L88.7654 16.0026L88.7641 16.0042L89.1581 16.312ZM91.0781 32.056L90.7824 32.4592L90.7867 32.4623L91.0781 32.056ZM103.846 37.624L103.708 38.1046L103.71 38.1051L103.846 37.624ZM109.606 39.256L109.47 39.7371L109.472 39.7375L109.606 39.256ZM123.526 45.88L123.207 46.2653L123.212 46.269L123.526 45.88ZM125.638 65.848L126.038 66.148L126.042 66.1433L125.638 65.848ZM117.574 71.896L117.378 71.436L117.375 71.4373L117.574 71.896ZM92.1341 78.136L91.9471 78.5998L91.9561 78.6032L92.1341 78.136ZM82.2461 71.512L81.8723 71.8443L81.8803 71.8529L82.2461 71.512ZM77.2541 61.336L77.1212 60.854L76.674 60.9774L76.7635 61.4325L77.2541 61.336ZM80.0381 60.568L80.5298 60.477L80.4305 59.9411L79.9052 60.086L80.0381 60.568ZM84.3581 69.592L83.9817 69.9214L83.9907 69.9311L84.3581 69.592ZM93.2861 75.448L93.1061 75.9145L93.1061 75.9145L93.2861 75.448ZM119.398 74.968L119.601 75.4252L119.604 75.4237L119.398 74.968ZM128.614 67.672L128.207 67.3814L128.206 67.383L128.614 67.672ZM126.31 43.768L126.637 43.3897L126.637 43.3897L126.31 43.768ZM110.374 35.896L110.513 35.4157L110.513 35.4155L110.374 35.896ZM104.71 34.264L104.849 33.7835L104.848 33.7835L104.71 34.264ZM93.9581 29.848L94.228 29.4271L94.228 29.4271L93.9581 29.848ZM94.6301 15.928L94.8968 16.351L94.9033 16.3468L94.6301 15.928ZM121.318 22.744L121.451 23.226L121.871 23.1101L121.814 22.6779L121.318 22.744ZM118.534 23.512L118.035 23.5405L118.07 24.1586L118.667 23.994L118.534 23.512ZM114.79 18.04L114.529 18.4667L114.535 18.4698L114.79 18.04ZM96.7421 17.944L96.5051 17.5037L96.5003 17.5064L96.7421 17.944ZM96.4541 28.024L96.2156 28.4635L96.2208 28.4662L96.4541 28.024ZM105.478 31.48L105.621 31.0008L105.619 31.0002L105.478 31.48ZM110.95 33.112L110.807 33.5911L110.808 33.5912L110.95 33.112ZM128.71 42.136L128.374 42.5065L128.378 42.5094L128.71 42.136ZM131.11 69.208L130.7 68.9223L130.699 68.9238L131.11 69.208ZM120.838 77.464L120.633 77.0079L120.631 77.009L120.838 77.464ZM105.67 67.268C101.187 67.268 97.5371 66.4152 94.6912 64.7448L94.185 65.6072C97.2271 67.3928 101.066 68.268 105.67 68.268V67.268ZM94.6981 64.7489C91.8643 63.024 90.376 60.7864 90.1363 58.0287L89.14 58.1153C89.4122 61.2456 91.124 63.744 94.1782 65.6031L94.6981 64.7489ZM89.7711 58.554L92.5551 57.786L92.2892 56.822L89.5052 57.59L89.7711 58.554ZM91.9221 57.304C91.9221 59.7083 93.2817 61.6727 95.8112 63.2037L96.329 62.3482C93.9946 60.9353 92.9221 59.2517 92.9221 57.304H91.9221ZM95.8245 63.2115C98.4177 64.6744 101.71 65.388 105.67 65.388V64.388C101.822 64.388 98.7145 63.6936 96.3158 62.3405L95.8245 63.2115ZM105.67 65.388C109.758 65.388 113.119 64.6424 115.716 63.1107L115.208 62.2493C112.813 63.6616 109.646 64.388 105.67 64.388V65.388ZM115.711 63.1135C118.376 61.5813 119.802 59.5504 119.802 57.016H118.802C118.802 59.0896 117.668 60.8347 115.213 62.2465L115.711 63.1135ZM119.802 57.016C119.802 54.6409 118.633 52.7337 116.403 51.3142L115.866 52.1578C117.859 53.4263 118.802 55.0391 118.802 57.016H119.802ZM116.403 51.3142C114.234 49.9341 111.303 48.7338 107.629 47.7026L107.359 48.6654C110.981 49.6822 113.81 50.8499 115.866 52.1578L116.403 51.3142ZM107.634 47.7038L101.682 45.9758L101.403 46.9362L107.355 48.6642L107.634 47.7038ZM101.682 45.9758C93.7812 43.6822 87.8744 40.7965 83.919 37.3433L83.2613 38.0967C87.3698 41.6835 93.4311 44.6218 101.403 46.9362L101.682 45.9758ZM83.919 37.3433C80.0124 33.9328 78.0421 29.2473 78.0421 23.224H77.0421C77.0421 29.4887 79.1039 34.4672 83.2613 38.0967L83.919 37.3433ZM78.0421 23.224C78.0421 18.9061 79.229 15.1053 81.5965 11.8033L80.7838 11.2207C78.2872 14.7027 77.0421 18.7099 77.0421 23.224H78.0421ZM81.5955 11.8047C84.0372 8.42388 87.328 5.756 91.4827 3.80456L91.0576 2.89943C86.7642 4.91599 83.3351 7.68811 80.7848 11.2193L81.5955 11.8047ZM91.4801 3.80578C95.6938 1.85616 100.453 0.875994 105.766 0.875994V-0.124006C100.328 -0.124006 95.4225 0.879828 91.0602 2.89821L91.4801 3.80578ZM105.766 0.875994C110.575 0.875994 114.893 1.66678 118.729 3.23865L119.108 2.31334C115.135 0.685206 110.685 -0.124006 105.766 -0.124006V0.875994ZM118.738 3.24228C122.639 4.75262 125.835 6.9176 128.336 9.73218L129.084 9.06782C126.466 6.1224 123.133 3.87137 119.099 2.30971L118.738 3.24228ZM128.341 9.73674C130.901 12.5475 132.523 15.822 133.21 19.5702L134.194 19.3898C133.473 15.458 131.767 12.0125 129.08 9.06325L128.341 9.73674ZM133.569 18.998L130.785 19.766L131.051 20.73L133.835 19.962L133.569 18.998ZM131.411 20.1643C130.819 16.6788 129.337 13.6159 126.97 10.9855L126.226 11.6545C128.467 14.1441 129.865 17.0332 130.425 20.3317L131.411 20.1643ZM126.97 10.9855C124.608 8.3613 121.597 6.33562 117.949 4.90262L117.583 5.83337C121.104 7.21637 123.98 9.15868 126.226 11.6545L126.97 10.9855ZM117.949 4.90262C114.299 3.46864 110.236 2.756 105.766 2.756V3.756C110.129 3.756 114.065 4.45136 117.583 5.83337L117.949 4.90262ZM105.766 2.756C100.84 2.756 96.414 3.66375 92.4987 5.4909L92.9216 6.39709C96.6862 4.64024 100.964 3.756 105.766 3.756V2.756ZM92.5021 5.48934C88.658 7.24848 85.5805 9.66696 83.2851 12.7494L84.0872 13.3466C86.2717 10.413 89.2102 8.09551 92.9182 6.39865L92.5021 5.48934ZM83.281 12.7549C81.04 15.8528 79.9221 19.4125 79.9221 23.416H80.9221C80.9221 19.6115 81.9802 16.2592 84.0912 13.3411L83.281 12.7549ZM79.9221 23.416C79.9221 28.7947 81.7986 33.1606 85.5644 36.4639L86.2238 35.7121C82.6936 32.6154 80.9221 28.5333 80.9221 23.416H79.9221ZM85.5715 36.4699C89.3608 39.6713 94.9101 42.2564 102.178 44.2502L102.442 43.2858C95.2461 41.3116 89.8515 38.7767 86.2168 35.7061L85.5715 36.4699ZM102.178 44.2502L108.13 45.8822L108.394 44.9178L102.442 43.2858L102.178 44.2502ZM108.129 45.8821C112.516 47.09 115.878 48.5424 118.245 50.2236L118.824 49.4084C116.326 47.6336 112.84 46.142 108.395 44.9179L108.129 45.8821ZM118.245 50.2236C120.547 51.8593 121.682 54.0445 121.682 56.824H122.682C122.682 53.7155 121.386 51.2287 118.824 49.4084L118.245 50.2236ZM121.682 56.824C121.682 59.9015 120.278 62.4113 117.389 64.3787L117.952 65.2053C121.078 63.0767 122.682 60.2745 122.682 56.824H121.682ZM117.395 64.3746C114.494 66.2877 110.601 67.268 105.67 67.268V68.268C110.724 68.268 114.83 67.2643 117.945 65.2094L117.395 64.3746ZM105.67 73.604C99.7271 73.604 94.7702 72.3084 90.7718 69.747L90.2324 70.589C94.4261 73.2756 99.5812 74.604 105.67 74.604V73.604ZM90.7795 69.752C86.8481 67.1311 84.5704 63.7577 83.8915 59.623L82.9047 59.785C83.6339 64.2263 86.0921 67.8289 90.2248 70.584L90.7795 69.752ZM83.527 60.1871L86.407 59.4191L86.1493 58.4529L83.2693 59.2209L83.527 60.1871ZM85.7828 59.0043C86.3168 62.8756 88.3938 65.9733 91.9582 68.2836L92.5021 67.4444C89.1544 65.2747 87.2635 62.4204 86.7734 58.8677L85.7828 59.0043ZM91.9617 68.2858C95.5829 70.5902 100.163 71.724 105.67 71.724V70.724C100.297 70.724 95.9173 69.6178 92.4986 67.4422L91.9617 68.2858ZM105.67 71.724C109.688 71.724 113.242 71.1083 116.322 69.8636L115.947 68.9364C113.01 70.1237 109.588 70.724 105.67 70.724V71.724ZM116.322 69.8636C119.397 68.6202 121.812 66.875 123.539 64.6157L122.745 64.0083C121.145 66.101 118.887 67.7478 115.947 68.9364L116.322 69.8636ZM123.539 64.6157C125.272 62.3499 126.138 59.7465 126.138 56.824H125.138C125.138 59.5335 124.34 61.9221 122.745 64.0083L123.539 64.6157ZM126.138 56.824C126.138 52.7739 124.601 49.5506 121.525 47.2101L120.919 48.0059C123.731 50.1454 125.138 53.0661 125.138 56.824H126.138ZM121.53 47.2142C118.516 44.8553 114.384 42.9759 109.161 41.5575L108.899 42.5225C114.045 43.9201 118.04 45.7527 120.914 48.0018L121.53 47.2142ZM109.164 41.5584L103.308 39.9264L103.04 40.8896L108.896 42.5216L109.164 41.5584ZM103.308 39.9263C97.1341 38.2077 92.4359 36.0547 89.1797 33.4874L88.5606 34.2726C91.9604 36.9533 96.7982 39.1523 103.04 40.8897L103.308 39.9263ZM89.1797 33.4874C85.9757 30.9611 84.3781 27.6197 84.3781 23.416H83.3781C83.3781 27.9163 85.1086 31.5509 88.5606 34.2726L89.1797 33.4874ZM84.3781 23.416C84.3781 20.2538 85.2748 17.4797 87.0634 15.0743L86.2609 14.4776C84.3375 17.0643 83.3781 20.0502 83.3781 23.416H84.3781ZM87.0584 15.0809C88.9185 12.6628 91.4685 10.7599 94.729 9.38048L94.3393 8.45951C90.9437 9.89611 88.2458 11.8972 86.2658 14.4711L87.0584 15.0809ZM94.7364 9.37727C97.9922 7.9372 101.666 7.212 105.766 7.212V6.212C101.546 6.212 97.7321 6.95879 94.3319 8.46273L94.7364 9.37727ZM105.766 7.212C109.618 7.212 113.042 7.81189 116.046 9.0009L116.414 8.07109C113.274 6.82811 109.722 6.212 105.766 6.212V7.212ZM116.058 9.00533C119.129 10.1334 121.618 11.7558 123.541 13.8649L124.28 13.1911C122.235 10.9482 119.604 9.24259 116.403 8.06666L116.058 9.00533ZM123.541 13.8649C125.459 15.9691 126.631 18.4069 127.064 21.1888L128.052 21.0351C127.589 18.0571 126.329 15.4389 124.28 13.1911L123.541 13.8649ZM127.429 20.6289L124.549 21.3969L124.807 22.3631L127.687 21.5951L127.429 20.6289ZM125.175 21.8201C124.706 17.9409 122.624 14.84 118.995 12.5302L118.458 13.3738C121.868 15.544 123.754 18.3951 124.182 21.9399L125.175 21.8201ZM118.998 12.5324C115.442 10.2279 111.022 9.092 105.766 9.092V10.092C110.879 10.092 115.098 11.1961 118.454 13.3716L118.998 12.5324ZM105.766 9.092C102.062 9.092 98.7306 9.70942 95.7796 10.9554L96.1686 11.8766C98.9777 10.6906 102.174 10.092 105.766 10.092V9.092ZM95.7884 10.9518C92.8397 12.1312 90.4915 13.8117 88.7654 16.0026L89.5509 16.6214C91.1528 14.5883 93.3486 13.0047 96.1598 11.8802L95.7884 10.9518ZM88.7641 16.0042C87.0929 18.1433 86.2581 20.6206 86.2581 23.416H87.2581C87.2581 20.8354 88.0233 18.5767 89.5521 16.6198L88.7641 16.0042ZM86.2581 23.416C86.2581 27.2192 87.7708 30.2506 90.7824 32.4592L91.3738 31.6528C88.6255 29.6373 87.2581 26.9088 87.2581 23.416H86.2581ZM90.7867 32.4623C93.7965 34.6215 98.1139 36.497 103.708 38.1046L103.984 37.1434C98.4423 35.5509 94.2477 33.7145 91.3696 31.6497L90.7867 32.4623ZM103.71 38.1051L109.47 39.7371L109.742 38.7749L103.982 37.1429L103.71 38.1051ZM109.472 39.7375C115.383 41.3902 119.951 43.5728 123.207 46.2653L123.845 45.4947C120.445 42.6832 115.733 40.4498 109.741 38.7745L109.472 39.7375ZM123.212 46.269C126.412 48.854 128.018 52.3537 128.018 56.824H129.018C129.018 52.0783 127.296 48.282 123.84 45.491L123.212 46.269ZM128.018 56.824C128.018 60.1147 127.089 63.0183 125.235 65.5527L126.042 66.1433C128.027 63.4297 129.018 60.3173 129.018 56.824H128.018ZM125.238 65.548C123.379 68.0263 120.767 69.9924 117.378 71.436L117.77 72.356C121.293 70.8556 124.057 68.7897 126.038 66.148L125.238 65.548ZM117.375 71.4373C114.059 72.8766 110.161 73.604 105.67 73.604V74.604C110.267 74.604 114.306 73.8594 117.773 72.3547L117.375 71.4373ZM105.67 79.94C100.73 79.94 96.2791 79.18 92.3121 77.6688L91.9561 78.6032C96.0532 80.164 100.627 80.94 105.67 80.94V79.94ZM92.3211 77.6723C88.4134 76.0966 85.1807 73.9279 82.6119 71.1711L81.8803 71.8529C84.5595 74.7281 87.9189 76.9754 91.9471 78.5997L92.3211 77.6723ZM82.6198 71.1798C80.1211 68.3688 78.4961 65.0589 77.7447 61.2395L76.7635 61.4325C77.5482 65.4211 79.2511 68.8952 81.8724 71.8442L82.6198 71.1798ZM77.3871 61.818L80.1711 61.05L79.9052 60.086L77.1212 60.854L77.3871 61.818ZM79.5465 60.659C80.2023 64.2003 81.6807 67.2913 83.9818 69.9213L84.7344 69.2627C82.5556 66.7727 81.154 63.8477 80.5298 60.477L79.5465 60.659ZM83.9907 69.9311C86.3539 72.4913 89.3975 74.4831 93.1061 75.9145L93.4662 74.9815C89.8787 73.5969 86.9703 71.6847 84.7255 69.2529L83.9907 69.9311ZM93.1061 75.9145C96.8208 77.3482 101.011 78.06 105.67 78.06V77.06C101.113 77.06 97.0475 76.3638 93.4662 74.9815L93.1061 75.9145ZM105.67 78.06C110.972 78.06 115.62 77.1871 119.601 75.4252L119.196 74.5108C115.368 76.2049 110.864 77.06 105.67 77.06V78.06ZM119.604 75.4237C123.64 73.6009 126.787 71.1163 129.022 67.961L128.206 67.383C126.089 70.3717 123.092 72.7511 119.192 74.5123L119.604 75.4237ZM129.021 67.9626C131.325 64.7363 132.474 61.0173 132.474 56.824H131.474C131.474 60.8227 130.383 64.3357 128.207 67.3814L129.021 67.9626ZM132.474 56.824C132.474 51.2535 130.534 46.7579 126.637 43.3897L125.983 44.1463C129.639 47.3061 131.474 51.5145 131.474 56.824H132.474ZM126.637 43.3897C122.788 40.0629 117.403 37.4118 110.513 35.4157L110.235 36.3762C117.041 38.3482 122.28 40.9451 125.983 44.1463L126.637 43.3897ZM110.513 35.4155L104.849 33.7835L104.572 34.7445L110.236 36.3765L110.513 35.4155ZM104.848 33.7835C100.197 32.4455 96.6656 30.9896 94.228 29.4271L93.6883 30.2689C96.2427 31.9064 99.879 33.3945 104.572 34.7445L104.848 33.7835ZM94.228 29.4271C91.8578 27.9078 90.7141 25.9138 90.7141 23.416H89.7141C89.7141 26.2942 91.0664 28.5882 93.6883 30.2689L94.228 29.4271ZM90.7141 23.416C90.7141 20.473 92.0791 18.1273 94.8968 16.351L94.3635 15.505C91.2932 17.4407 89.7141 20.087 89.7141 23.416H90.7141ZM94.9033 16.3468C97.7464 14.4926 101.357 13.548 105.766 13.548V12.548C101.216 12.548 97.4019 13.5234 94.357 15.5092L94.9033 16.3468ZM105.766 13.548C110.051 13.548 113.535 14.4302 116.25 16.1578L116.787 15.3142C113.869 13.4577 110.185 12.548 105.766 12.548V13.548ZM116.25 16.1578C118.962 17.8838 120.461 20.0991 120.823 22.8101L121.814 22.6779C121.407 19.6289 119.706 17.1722 116.787 15.3142L116.25 16.1578ZM121.185 22.262L118.401 23.03L118.667 23.994L121.451 23.226L121.185 22.262ZM119.033 23.4835C118.894 21.0387 117.519 19.0811 115.046 17.6102L114.535 18.4698C116.797 19.8148 117.919 21.5053 118.035 23.5405L119.033 23.4835ZM115.051 17.6134C112.644 16.1426 109.537 15.428 105.766 15.428V16.428C109.419 16.428 112.328 17.1214 114.529 18.4666L115.051 17.6134ZM105.766 15.428C102.183 15.428 99.0895 16.1122 96.5051 17.5038L96.9792 18.3842C99.3868 17.0878 102.309 16.428 105.766 16.428V15.428ZM96.5003 17.5064C93.9604 18.91 92.5941 20.814 92.5941 23.224H93.5941C93.5941 21.282 94.6598 19.666 96.984 18.3816L96.5003 17.5064ZM92.5941 23.224C92.5941 25.4451 93.868 27.189 96.2156 28.4634L96.6927 27.5846C94.5603 26.427 93.5941 24.9709 93.5941 23.224H92.5941ZM96.2208 28.4662C98.5648 29.7033 101.607 30.8665 105.337 31.9598L105.619 31.0002C101.925 29.9175 98.9514 28.7767 96.6875 27.5818L96.2208 28.4662ZM105.335 31.9591L110.807 33.5911L111.093 32.6329L105.621 31.0009L105.335 31.9591ZM110.808 33.5912C118.51 35.883 124.353 38.8625 128.374 42.5065L129.046 41.7655C124.875 37.9855 118.878 34.949 111.093 32.6328L110.808 33.5912ZM128.378 42.5094C132.351 46.0484 134.354 50.864 134.354 57.016H135.354C135.354 50.624 133.261 45.5196 129.043 41.7626L128.378 42.5094ZM134.354 57.016C134.354 61.4622 133.135 65.4256 130.7 68.9223L131.52 69.4937C134.077 65.8224 135.354 61.6578 135.354 57.016H134.354ZM130.699 68.9238C128.325 72.3592 124.977 75.0563 120.633 77.0079L121.043 77.9201C125.531 75.9037 129.031 73.0968 131.521 69.4922L130.699 68.9238ZM120.631 77.009C116.356 78.9579 111.373 79.94 105.67 79.94V80.94C111.487 80.94 116.617 79.9381 121.046 77.919L120.631 77.009Z" fill="white" fill-opacity="0.35"/>
</svg>
