<svg width="143" height="89" viewBox="0 0 143 89" fill="none" xmlns="http://www.w3.org/2000/svg">
<g filter="url(#filter0_d_9_5)">
<path d="M44.2589 67.768C38.5629 67.768 33.6669 66.552 29.5709 64.12C25.4749 61.624 22.3389 58.296 20.1629 54.136C17.9869 49.976 16.8989 45.4 16.8989 40.408C16.8989 35.352 17.9869 30.776 20.1629 26.68C22.3389 22.52 25.4749 19.224 29.5709 16.792C33.6669 14.296 38.5629 13.048 44.2589 13.048C48.4189 13.048 52.1629 13.752 55.4909 15.16C58.8189 16.504 61.6349 18.392 63.9389 20.824L61.9229 22.84C59.8109 20.728 57.2829 19.064 54.3389 17.848C51.3949 16.632 48.0349 16.024 44.2589 16.024C39.1389 16.024 34.7229 17.144 31.0109 19.384C27.3629 21.56 24.5789 24.504 22.6589 28.216C20.7389 31.864 19.7789 35.928 19.7789 40.408C19.7789 44.888 20.7389 48.984 22.6589 52.696C24.5789 56.344 27.3629 59.288 31.0109 61.528C34.7229 63.704 39.1389 64.792 44.2589 64.792C48.0349 64.792 51.3949 64.184 54.3389 62.968C57.2829 61.752 59.8109 60.088 61.9229 57.976L63.9389 59.992C61.6349 62.36 58.8189 64.248 55.4909 65.656C52.1629 67.064 48.4189 67.768 44.2589 67.768ZM44.2589 74.104C39.1389 74.104 34.4989 73.24 30.3389 71.512C26.2429 69.72 22.6909 67.288 19.6829 64.216C16.7389 61.144 14.4669 57.592 12.8669 53.56C11.3309 49.464 10.5629 45.08 10.5629 40.408C10.5629 35.736 11.3309 31.384 12.8669 27.352C14.4669 23.256 16.7389 19.672 19.6829 16.6C22.6909 13.464 26.2429 11.032 30.3389 9.304C34.4989 7.576 39.1389 6.712 44.2589 6.712C49.3149 6.712 53.8589 7.576 57.8909 9.304C61.9869 10.968 65.5069 13.304 68.4509 16.312L66.3389 18.424C63.7149 15.672 60.5149 13.528 56.7389 11.992C53.0269 10.456 48.8669 9.68799 44.2589 9.68799C37.9869 9.68799 32.5149 11.064 27.8429 13.816C23.2349 16.568 19.6829 20.28 17.1869 24.952C14.6909 29.56 13.4429 34.712 13.4429 40.408C13.4429 46.04 14.6909 51.192 17.1869 55.864C19.6829 60.536 23.2349 64.248 27.8429 67C32.5149 69.752 37.9869 71.128 44.2589 71.128C48.8669 71.128 53.0269 70.36 56.7389 68.824C60.5149 67.288 63.7149 65.144 66.3389 62.392L68.4509 64.504C65.5069 67.448 61.9869 69.784 57.8909 71.512C53.8589 73.24 49.3149 74.104 44.2589 74.104ZM44.2589 80.44C38.2429 80.44 32.7709 79.416 27.8429 77.368C22.9789 75.256 18.7869 72.376 15.2669 68.728C11.7469 65.08 9.02688 60.856 7.10688 56.056C5.18688 51.192 4.22688 45.976 4.22688 40.408C4.22688 34.84 5.18688 29.656 7.10688 24.856C9.02688 19.992 11.7469 15.736 15.2669 12.088C18.7869 8.44 22.9789 5.592 27.8429 3.544C32.7709 1.432 38.2429 0.375994 44.2589 0.375994C50.1469 0.375994 55.5229 1.39999 60.3869 3.44799C65.2509 5.432 69.4429 8.216 72.9629 11.8L70.9469 13.816C67.6829 10.552 63.7789 7.992 59.2349 6.13599C54.7549 4.216 49.7629 3.256 44.2589 3.256C38.6269 3.256 33.5389 4.216 28.9949 6.13599C24.4509 8.056 20.5469 10.712 17.2829 14.104C14.0189 17.496 11.4909 21.464 9.69888 26.008C7.97088 30.488 7.10688 35.288 7.10688 40.408C7.10688 45.528 7.97088 50.36 9.69888 54.904C11.4909 59.384 14.0189 63.32 17.2829 66.712C20.5469 70.104 24.4509 72.76 28.9949 74.68C33.5389 76.6 38.6269 77.56 44.2589 77.56C49.7629 77.56 54.7549 76.632 59.2349 74.776C63.7789 72.856 67.6829 70.264 70.9469 67L72.9629 69.016C69.4429 72.536 65.2509 75.32 60.3869 77.368C55.5229 79.416 50.1469 80.44 44.2589 80.44ZM109.67 67.768C105.126 67.768 101.382 66.904 98.4381 65.176C95.4941 63.384 93.8941 61.016 93.6381 58.072L96.4221 57.304C96.4221 59.48 97.6381 61.304 100.07 62.776C102.566 64.184 105.766 64.888 109.67 64.888C113.702 64.888 116.966 64.152 119.462 62.68C122.022 61.208 123.302 59.32 123.302 57.016C123.302 54.84 122.246 53.08 120.134 51.736C118.022 50.392 115.142 49.208 111.494 48.184L105.542 46.456C97.6061 44.152 91.6221 41.24 87.5901 37.72C83.5581 34.2 81.5421 29.368 81.5421 23.224C81.5421 18.808 82.7581 14.904 85.1901 11.512C87.6861 8.056 91.0461 5.336 95.2701 3.352C99.5581 1.36799 104.39 0.375994 109.766 0.375994C114.63 0.375994 119.014 1.17599 122.918 2.776C126.886 4.312 130.15 6.52 132.71 9.4C135.334 12.28 136.998 15.64 137.702 19.48L134.918 20.248C134.342 16.856 132.902 13.88 130.598 11.32C128.294 8.75999 125.35 6.776 121.766 5.368C118.182 3.96 114.182 3.256 109.766 3.256C104.902 3.256 100.55 4.152 96.7101 5.944C92.9341 7.672 89.9261 10.04 87.6861 13.048C85.5101 16.056 84.4221 19.512 84.4221 23.416C84.4221 28.664 86.2461 32.888 89.8941 36.088C93.6061 39.224 99.0781 41.784 106.31 43.768L112.262 45.4C116.678 46.616 120.102 48.088 122.534 49.816C124.966 51.544 126.182 53.88 126.182 56.824C126.182 60.088 124.678 62.744 121.67 64.792C118.662 66.776 114.662 67.768 109.67 67.768ZM109.67 74.104C103.654 74.104 98.5981 72.792 94.5021 70.168C90.4701 67.48 88.1021 63.992 87.3981 59.704L90.2781 58.936C90.7901 62.648 92.7741 65.624 96.2301 67.864C99.7501 70.104 104.23 71.224 109.67 71.224C113.638 71.224 117.126 70.616 120.134 69.4C123.142 68.184 125.478 66.488 127.142 64.312C128.806 62.136 129.638 59.64 129.638 56.824C129.638 52.92 128.166 49.848 125.222 47.608C122.278 45.304 118.214 43.448 113.03 42.04L107.174 40.408C100.966 38.68 96.1981 36.504 92.8701 33.88C89.5421 31.256 87.8781 27.768 87.8781 23.416C87.8781 20.152 88.8061 17.272 90.6621 14.776C92.5821 12.28 95.2061 10.328 98.5341 8.92C101.862 7.448 105.606 6.712 109.766 6.712C113.67 6.712 117.158 7.32 120.23 8.536C123.366 9.688 125.926 11.352 127.91 13.528C129.894 15.704 131.11 18.232 131.558 21.112L128.678 21.88C128.23 18.168 126.246 15.192 122.726 12.952C119.27 10.712 114.95 9.592 109.766 9.592C106.118 9.592 102.854 10.2 99.9741 11.416C97.0941 12.568 94.8221 14.2 93.1581 16.312C91.5581 18.36 90.7581 20.728 90.7581 23.416C90.7581 27.064 92.1981 29.944 95.0781 32.056C98.0221 34.168 102.278 36.024 107.846 37.624L113.606 39.256C119.558 40.92 124.198 43.128 127.526 45.88C130.854 48.568 132.518 52.216 132.518 56.824C132.518 60.216 131.558 63.224 129.638 65.848C127.718 68.408 125.03 70.424 121.574 71.896C118.182 73.368 114.214 74.104 109.67 74.104ZM109.67 80.44C104.678 80.44 100.166 79.672 96.1341 78.136C92.1661 76.536 88.8701 74.328 86.2461 71.512C83.6861 68.632 82.0221 65.24 81.2541 61.336L84.0381 60.568C84.6781 64.024 86.1181 67.032 88.3581 69.592C90.6621 72.088 93.6381 74.04 97.2861 75.448C100.934 76.856 105.062 77.56 109.67 77.56C114.918 77.56 119.494 76.696 123.398 74.968C127.366 73.176 130.438 70.744 132.614 67.672C134.854 64.536 135.974 60.92 135.974 56.824C135.974 51.384 134.086 47.032 130.31 43.768C126.534 40.504 121.222 37.88 114.374 35.896L108.71 34.264C104.038 32.92 100.454 31.448 97.9581 29.848C95.4621 28.248 94.2141 26.104 94.2141 23.416C94.2141 20.28 95.6861 17.784 98.6301 15.928C101.574 14.008 105.286 13.048 109.766 13.048C114.118 13.048 117.702 13.944 120.518 15.736C123.334 17.528 124.934 19.864 125.318 22.744L122.534 23.512C122.406 21.272 121.158 19.448 118.79 18.04C116.486 16.632 113.478 15.928 109.766 15.928C106.246 15.928 103.238 16.6 100.742 17.944C98.3101 19.288 97.0941 21.048 97.0941 23.224C97.0941 25.208 98.2141 26.808 100.454 28.024C102.758 29.24 105.766 30.392 109.478 31.48L114.95 33.112C122.694 35.416 128.614 38.424 132.71 42.136C136.806 45.784 138.854 50.744 138.854 57.016C138.854 61.56 137.606 65.624 135.11 69.208C132.678 72.728 129.254 75.48 124.838 77.464C120.486 79.448 115.43 80.44 109.67 80.44Z" fill="#626262" fill-opacity="0.5" shape-rendering="crispEdges"/>
<path d="M29.5709 64.12L29.3107 64.547L29.3156 64.5499L29.5709 64.12ZM20.1629 54.136L20.6059 53.9043L20.6059 53.9043L20.1629 54.136ZM20.1629 26.68L20.6044 26.9146L20.6059 26.9117L20.1629 26.68ZM29.5709 16.792L29.8262 17.222L29.8311 17.219L29.5709 16.792ZM55.4909 15.16L55.296 15.6205L55.3036 15.6236L55.4909 15.16ZM63.9389 20.824L64.2924 21.1776L64.6366 20.8334L64.3019 20.4801L63.9389 20.824ZM61.9229 22.84L61.5693 23.1935L61.9229 23.5471L62.2764 23.1935L61.9229 22.84ZM31.0109 19.384L31.267 19.8134L31.2692 19.8121L31.0109 19.384ZM22.6589 28.216L23.1014 28.4489L23.103 28.4457L22.6589 28.216ZM22.6589 52.696L22.2148 52.9257L22.2164 52.9289L22.6589 52.696ZM31.0109 61.528L30.7492 61.9542L30.758 61.9593L31.0109 61.528ZM54.3389 62.968L54.148 62.5059L54.148 62.5059L54.3389 62.968ZM61.9229 57.976L62.2764 57.6224L61.9229 57.2689L61.5693 57.6224L61.9229 57.976ZM63.9389 59.992L64.2972 60.3407L64.6412 59.9872L64.2924 59.6384L63.9389 59.992ZM55.4909 65.656L55.2961 65.1955L55.2961 65.1955L55.4909 65.656ZM30.3389 71.512L30.1384 71.9702L30.1471 71.9737L30.3389 71.512ZM19.6829 64.216L19.3219 64.562L19.3256 64.5658L19.6829 64.216ZM12.8669 53.56L12.3986 53.7356L12.4021 53.7444L12.8669 53.56ZM12.8669 27.352L12.4011 27.1701L12.3996 27.174L12.8669 27.352ZM19.6829 16.6L19.322 16.2539L19.3219 16.254L19.6829 16.6ZM30.3389 9.304L30.1471 8.84224L30.1445 8.84332L30.3389 9.304ZM57.8909 9.304L57.6939 9.76365L57.7027 9.76723L57.8909 9.304ZM68.4509 16.312L68.8044 16.6655L69.1542 16.3158L68.8082 15.9623L68.4509 16.312ZM66.3389 18.424L65.977 18.769L66.3304 19.1396L66.6924 18.7775L66.3389 18.424ZM56.7389 11.992L56.5477 12.454L56.5505 12.4551L56.7389 11.992ZM27.8429 13.816L27.5891 13.3852L27.5865 13.3867L27.8429 13.816ZM17.1869 24.952L17.6265 25.1901L17.6279 25.1876L17.1869 24.952ZM27.8429 67L27.5865 67.4293L27.5891 67.4308L27.8429 67ZM56.7389 68.824L56.5505 68.3608L56.5477 68.362L56.7389 68.824ZM66.3389 62.392L66.6924 62.0384L66.3304 61.6764L65.977 62.047L66.3389 62.392ZM68.4509 64.504L68.8044 64.8576L69.158 64.504L68.8044 64.1504L68.4509 64.504ZM57.8909 71.512L57.6965 71.0513L57.6939 71.0524L57.8909 71.512ZM27.8429 77.368L27.6437 77.8267L27.651 77.8297L27.8429 77.368ZM15.2669 68.728L15.6267 68.3808L15.6267 68.3808L15.2669 68.728ZM7.10688 56.056L6.6418 56.2396L6.64264 56.2417L7.10688 56.056ZM7.10688 24.856L7.57112 25.0417L7.57196 25.0396L7.10688 24.856ZM15.2669 12.088L15.6267 12.4352L15.6267 12.4352L15.2669 12.088ZM27.8429 3.544L28.0369 4.00483L28.0398 4.00357L27.8429 3.544ZM60.3869 3.44799L60.1928 3.90884L60.198 3.91096L60.3869 3.44799ZM72.9629 11.8L73.3164 12.1535L73.6668 11.8032L73.3196 11.4496L72.9629 11.8ZM70.9469 13.816L70.5933 14.1696L70.9469 14.5231L71.3004 14.1696L70.9469 13.816ZM59.2349 6.13599L59.0379 6.59563L59.0458 6.59887L59.2349 6.13599ZM28.9949 6.13599L28.8003 5.67542L28.8003 5.67542L28.9949 6.13599ZM17.2829 14.104L16.9226 13.7573L16.9226 13.7573L17.2829 14.104ZM9.69888 26.008L9.23373 25.8246L9.23238 25.8281L9.69888 26.008ZM9.69888 54.904L9.23146 55.0817L9.23464 55.0897L9.69888 54.904ZM17.2829 66.712L17.6432 66.3653L17.6432 66.3653L17.2829 66.712ZM59.2349 74.776L59.4263 75.2379L59.4295 75.2366L59.2349 74.776ZM70.9469 67L71.3004 66.6464L70.9469 66.2929L70.5933 66.6464L70.9469 67ZM72.9629 69.016L73.3164 69.3696L73.67 69.016L73.3164 68.6624L72.9629 69.016ZM60.3869 77.368L60.1929 76.9072L60.1929 76.9072L60.3869 77.368ZM44.2589 67.268C38.6351 67.268 33.831 66.068 29.8261 63.6901L29.3156 64.5499C33.5028 67.036 38.4907 68.268 44.2589 68.268V67.268ZM29.8311 63.693C25.8108 61.2432 22.7389 57.982 20.6059 53.9043L19.7198 54.3677C21.9389 58.61 25.1389 62.0048 29.3107 64.547L29.8311 63.693ZM20.6059 53.9043C18.4697 49.8203 17.3989 45.3245 17.3989 40.408H16.3989C16.3989 45.4755 17.5041 50.1317 19.7198 54.3677L20.6059 53.9043ZM17.3989 40.408C17.3989 35.4263 18.4702 30.932 20.6044 26.9146L19.7213 26.4454C17.5036 30.62 16.3989 35.2777 16.3989 40.408H17.3989ZM20.6059 26.9117C22.7383 22.8352 25.8087 19.6073 29.8261 17.2219L29.3156 16.3621C25.1411 18.8407 21.9395 22.2048 19.7198 26.4482L20.6059 26.9117ZM29.8311 17.219C33.8351 14.779 38.6373 13.548 44.2589 13.548V12.548C38.4885 12.548 33.4987 13.813 29.3107 16.365L29.8311 17.219ZM44.2589 13.548C48.362 13.548 52.0383 14.2422 55.2961 15.6205L55.6857 14.6995C52.2874 13.2618 48.4758 12.548 44.2589 12.548V13.548ZM55.3036 15.6236C58.57 16.9427 61.3247 18.7916 63.5759 21.1679L64.3019 20.4801C61.9451 17.9924 59.0678 16.0653 55.6781 14.6964L55.3036 15.6236ZM63.5853 20.4704L61.5693 22.4864L62.2764 23.1935L64.2924 21.1776L63.5853 20.4704ZM62.2764 22.4864C60.1149 20.3249 57.5305 18.6253 54.5298 17.3859L54.148 18.3101C57.0353 19.5027 59.5069 21.1311 61.5693 23.1935L62.2764 22.4864ZM54.5298 17.3859C51.5151 16.1407 48.0884 15.524 44.2589 15.524V16.524C47.9813 16.524 51.2747 17.1233 54.148 18.3101L54.5298 17.3859ZM44.2589 15.524C39.0645 15.524 34.5556 16.6609 30.7525 18.9559L31.2692 19.8121C34.8901 17.627 39.2133 16.524 44.2589 16.524V15.524ZM30.7547 18.9546C27.0281 21.1775 24.1783 24.1901 22.2148 27.9863L23.103 28.4457C24.9794 24.8179 27.6977 21.9425 31.267 19.8134L30.7547 18.9546ZM22.2164 27.9831C20.2554 31.709 19.2789 35.8541 19.2789 40.408H20.2789C20.2789 36.0019 21.2223 32.019 23.1013 28.4489L22.2164 27.9831ZM19.2789 40.408C19.2789 44.962 20.2554 49.1376 22.2148 52.9257L23.103 52.4663C21.2223 48.8304 20.2789 44.814 20.2789 40.408H19.2789ZM22.2164 52.9289C24.1799 56.6595 27.0278 59.669 30.7492 61.9541L31.2725 61.1019C27.698 58.907 24.9779 56.0285 23.1013 52.4631L22.2164 52.9289ZM30.758 61.9593C34.5601 64.1882 39.067 65.292 44.2589 65.292V64.292C39.2108 64.292 34.8856 63.2198 31.2637 61.0966L30.758 61.9593ZM44.2589 65.292C48.0884 65.292 51.5151 64.6753 54.5298 63.4301L54.148 62.5059C51.2747 63.6927 47.9813 64.292 44.2589 64.292V65.292ZM54.5298 63.4301C57.5305 62.1907 60.1149 60.4911 62.2764 58.3296L61.5693 57.6224C59.5069 59.6849 57.0353 61.3133 54.148 62.5059L54.5298 63.4301ZM61.5693 58.3296L63.5853 60.3456L64.2924 59.6384L62.2764 57.6224L61.5693 58.3296ZM63.5805 59.6433C61.3272 61.9592 58.5684 63.8111 55.2961 65.1955L55.6857 66.1165C59.0693 64.6849 61.9425 62.7608 64.2972 60.3407L63.5805 59.6433ZM55.2961 65.1955C52.0383 66.5738 48.362 67.268 44.2589 67.268V68.268C48.4758 68.268 52.2874 67.5542 55.6857 66.1165L55.2961 65.1955ZM44.2589 73.604C39.1958 73.604 34.6221 72.7498 30.5307 71.0503L30.1471 71.9737C34.3756 73.7302 39.082 74.604 44.2589 74.604V73.604ZM30.5393 71.0539C26.4996 69.2866 23.0015 66.8906 20.0401 63.8662L19.3256 64.5658C22.3803 67.6854 25.9861 70.1534 30.1385 71.9701L30.5393 71.0539ZM20.0439 63.87C17.1454 60.8456 14.9083 57.3487 13.3316 53.3756L12.4021 53.7444C14.0255 57.8353 16.3323 61.4424 19.3219 64.562L20.0439 63.87ZM13.335 53.3844C11.8215 49.3483 11.0629 45.0241 11.0629 40.408H10.0629C10.0629 45.1358 10.8403 49.5797 12.3987 53.7356L13.335 53.3844ZM11.0629 40.408C11.0629 35.7918 11.8215 31.5006 13.3341 27.53L12.3996 27.174C10.8402 31.2674 10.0629 35.6802 10.0629 40.408H11.0629ZM13.3326 27.5339C14.9096 23.4968 17.1467 19.9691 20.0439 16.9459L19.3219 16.254C16.331 19.3749 14.0242 23.0151 12.4011 27.1701L13.3326 27.5339ZM20.0437 16.9461C23.0035 13.8604 26.4985 11.4668 30.5332 9.76468L30.1445 8.84332C25.9873 10.5971 22.3783 13.0676 19.322 16.2539L20.0437 16.9461ZM30.5307 9.76575C34.6221 8.06622 39.1958 7.212 44.2589 7.212V6.212C39.082 6.212 34.3756 7.08578 30.1471 8.84225L30.5307 9.76575ZM44.2589 7.212C49.2574 7.212 53.7329 8.06601 57.6939 9.76357L58.0878 8.84443C53.9848 7.08599 49.3723 6.212 44.2589 6.212V7.212ZM57.7027 9.76723C61.7384 11.4067 65.2 13.7052 68.0935 16.6617L68.8082 15.9623C65.8138 12.9028 62.2354 10.5293 58.0791 8.84077L57.7027 9.76723ZM68.0973 15.9584L65.9853 18.0704L66.6924 18.7775L68.8044 16.6655L68.0973 15.9584ZM66.7008 18.079C64.0245 15.2721 60.764 13.0896 56.9273 11.5289L56.5505 12.4551C60.2658 13.9664 63.4053 16.0719 65.977 18.769L66.7008 18.079ZM56.9301 11.53C53.1492 9.96549 48.9229 9.18799 44.2589 9.18799V10.188C48.8108 10.188 52.9046 10.9465 56.5477 12.454L56.9301 11.53ZM44.2589 9.18799C37.9118 9.18799 32.3494 10.5812 27.5891 13.3852L28.0966 14.2468C32.6804 11.5468 38.0619 10.188 44.2589 10.188V9.18799ZM27.5865 13.3867C22.9016 16.1847 19.2853 19.9631 16.7459 24.7164L17.6279 25.1876C20.0805 20.5968 23.5682 16.9513 28.0993 14.2453L27.5865 13.3867ZM16.7472 24.7139C14.2082 29.4012 12.9429 34.6362 12.9429 40.408H13.9429C13.9429 34.7878 15.1735 29.7188 17.6265 25.1901L16.7472 24.7139ZM12.9429 40.408C12.9429 46.1168 14.2087 51.3505 16.7459 56.0996L17.6279 55.6284C15.1731 51.0335 13.9429 45.9632 13.9429 40.408H12.9429ZM16.7459 56.0996C19.2853 60.8528 22.9016 64.6313 27.5865 67.4293L28.0993 66.5707C23.5682 63.8647 20.0805 60.2191 17.6279 55.6284L16.7459 56.0996ZM27.5891 67.4308C32.3494 70.2348 37.9118 71.628 44.2589 71.628V70.628C38.0619 70.628 32.6804 69.2692 28.0966 66.5692L27.5891 67.4308ZM44.2589 71.628C48.9229 71.628 53.1492 70.8505 56.9301 69.286L56.5477 68.362C52.9046 69.8695 48.8108 70.628 44.2589 70.628V71.628ZM56.9273 69.2871C60.764 67.7264 64.0245 65.5439 66.7008 62.737L65.977 62.047C63.4053 64.7441 60.2658 66.8496 56.5505 68.3609L56.9273 69.2871ZM65.9853 62.7456L68.0973 64.8576L68.8044 64.1504L66.6924 62.0384L65.9853 62.7456ZM68.0973 64.1504C65.202 67.0458 61.7371 69.3467 57.6965 71.0513L58.0852 71.9727C62.2366 70.2213 65.8118 67.8502 68.8044 64.8576L68.0973 64.1504ZM57.6939 71.0524C53.7329 72.75 49.2574 73.604 44.2589 73.604V74.604C49.3723 74.604 53.9848 73.73 58.0878 71.9716L57.6939 71.0524ZM44.2589 79.94C38.3004 79.94 32.8947 78.926 28.0348 76.9063L27.651 77.8297C32.6471 79.906 38.1854 80.94 44.2589 80.94V79.94ZM28.042 76.9094C23.2356 74.8224 19.0989 71.9793 15.6267 68.3808L14.9071 69.0752C18.4749 72.7727 22.7222 75.6896 27.6437 77.8266L28.042 76.9094ZM15.6267 68.3808C12.1525 64.7803 9.46757 60.6114 7.57112 55.8703L6.64264 56.2417C8.58618 61.1006 11.3412 65.3797 14.9071 69.0752L15.6267 68.3808ZM7.57196 55.8724C5.67649 51.0706 4.72688 45.9173 4.72688 40.408H3.72688C3.72688 46.0347 4.69726 51.3134 6.6418 56.2396L7.57196 55.8724ZM4.72688 40.408C4.72688 34.8987 5.67651 29.7782 7.57112 25.0417L6.64264 24.6703C4.69725 29.5338 3.72688 34.7813 3.72688 40.408H4.72688ZM7.57196 25.0396C9.46869 20.2345 12.1536 16.0346 15.6267 12.4352L14.9071 11.7408C11.3402 15.4374 8.58507 19.7495 6.6418 24.6724L7.57196 25.0396ZM15.6267 12.4352C19.0978 8.83789 23.2327 6.02765 28.0369 4.00482L27.6489 3.08318C22.7251 5.15635 18.476 8.0421 14.9071 11.7408L15.6267 12.4352ZM28.0398 4.00357C32.8984 1.92132 38.3023 0.875994 44.2589 0.875994V-0.124006C38.1834 -0.124006 32.6433 0.942675 27.6459 3.08443L28.0398 4.00357ZM44.2589 0.875994C50.088 0.875994 55.397 1.88951 60.1929 3.90881L60.5809 2.98718C55.6488 0.910482 50.2058 -0.124006 44.2589 -0.124006V0.875994ZM60.198 3.91096C65.0019 5.87045 69.136 8.61714 72.6062 12.1503L73.3196 11.4496C69.7497 7.81485 65.4998 4.99354 60.5757 2.98503L60.198 3.91096ZM72.6093 11.4464L70.5933 13.4624L71.3004 14.1696L73.3164 12.1535L72.6093 11.4464ZM71.3004 13.4624C67.9865 10.1485 64.0255 7.55265 59.4239 5.67312L59.0458 6.59887C63.5322 8.43135 67.3793 10.9555 70.5933 14.1696L71.3004 13.4624ZM59.4318 5.67642C54.882 3.72651 49.8219 2.756 44.2589 2.756V3.756C49.7039 3.756 54.6277 4.70548 59.0379 6.59557L59.4318 5.67642ZM44.2589 2.756C38.5694 2.756 33.414 3.72597 28.8003 5.67542L29.1895 6.59657C33.6638 4.70602 38.6843 3.756 44.2589 3.756V2.756ZM28.8003 5.67542C24.197 7.62049 20.2358 10.3142 16.9226 13.7573L17.6432 14.4507C20.858 11.1098 24.7048 8.4915 29.1895 6.59657L28.8003 5.67542ZM16.9226 13.7573C13.6116 17.1981 11.0488 21.2222 9.23374 25.8246L10.164 26.1914C11.933 21.7058 14.4261 17.7939 17.6432 14.4507L16.9226 13.7573ZM9.23238 25.8281C7.4808 30.3692 6.60688 35.2306 6.60688 40.408H7.60688C7.60688 35.3454 8.46096 30.6068 10.1654 26.1879L9.23238 25.8281ZM6.60688 40.408C6.60688 45.5855 7.48081 50.478 9.23153 55.0817L10.1662 54.7263C8.46095 50.242 7.60688 45.4705 7.60688 40.408H6.60688ZM9.23464 55.0897C11.05 59.628 13.6128 63.6191 16.9226 67.0587L17.6432 66.3653C14.425 63.0209 11.9318 59.14 10.1631 54.7183L9.23464 55.0897ZM16.9226 67.0587C20.2358 70.5018 24.197 73.1955 28.8003 75.1406L29.1895 74.2194C24.7048 72.3245 20.858 69.7062 17.6432 66.3653L16.9226 67.0587ZM28.8003 75.1406C33.414 77.09 38.5694 78.06 44.2589 78.06V77.06C38.6843 77.06 33.6638 76.11 29.1895 74.2194L28.8003 75.1406ZM44.2589 78.06C49.8197 78.06 54.8779 77.1222 59.4263 75.2379L59.0435 74.3141C54.6318 76.1418 49.706 77.06 44.2589 77.06V78.06ZM59.4295 75.2366C64.0288 73.2932 67.9878 70.6662 71.3004 67.3536L70.5933 66.6464C67.378 69.8618 63.529 72.4188 59.0403 74.3154L59.4295 75.2366ZM70.5933 67.3536L72.6093 69.3696L73.3164 68.6624L71.3004 66.6464L70.5933 67.3536ZM72.6093 68.6624C69.1378 72.134 65.0009 74.8828 60.1929 76.9072L60.5809 77.8288C65.5009 75.7572 69.748 72.938 73.3164 69.3696L72.6093 68.6624ZM60.1929 76.9072C55.397 78.9265 50.088 79.94 44.2589 79.94V80.94C50.2058 80.94 55.6488 79.9055 60.5809 77.8288L60.1929 76.9072ZM98.4381 65.176L98.1781 65.6032L98.185 65.6072L98.4381 65.176ZM93.6381 58.072L93.5052 57.59L93.104 57.7007L93.14 58.1153L93.6381 58.072ZM96.4221 57.304H96.9221V56.6474L96.2892 56.822L96.4221 57.304ZM100.07 62.776L99.8112 63.2037L99.8178 63.2077L99.8245 63.2115L100.07 62.776ZM119.462 62.68L119.213 62.2465L119.208 62.2493L119.462 62.68ZM111.494 48.184L111.355 48.6642L111.359 48.6654L111.494 48.184ZM105.542 46.456L105.403 46.9362L105.403 46.9362L105.542 46.456ZM87.5901 37.72L87.2613 38.0967L87.2613 38.0967L87.5901 37.72ZM85.1901 11.512L84.7848 11.2193L84.7838 11.2207L85.1901 11.512ZM95.2701 3.352L95.0602 2.89821L95.0576 2.89943L95.2701 3.352ZM122.918 2.776L122.728 3.23874L122.738 3.24228L122.918 2.776ZM132.71 9.4L132.336 9.7322L132.341 9.73674L132.71 9.4ZM137.702 19.48L137.835 19.962L138.277 19.8402L138.194 19.3898L137.702 19.48ZM134.918 20.248L134.425 20.3317L134.518 20.8771L135.051 20.73L134.918 20.248ZM121.766 5.368L121.583 5.83337L121.583 5.83337L121.766 5.368ZM96.7101 5.944L96.9182 6.39866L96.9216 6.39709L96.7101 5.944ZM87.6861 13.048L87.2851 12.7493L87.281 12.7549L87.6861 13.048ZM89.8941 36.088L89.5644 36.4639L89.5715 36.4699L89.8941 36.088ZM106.31 43.768L106.178 44.2502L106.178 44.2502L106.31 43.768ZM112.262 45.4L112.395 44.9179L112.394 44.9178L112.262 45.4ZM122.534 49.816L122.824 49.4084L122.824 49.4084L122.534 49.816ZM121.67 64.792L121.945 65.2094L121.952 65.2053L121.67 64.792ZM94.5021 70.168L94.2247 70.5841L94.2324 70.589L94.5021 70.168ZM87.3981 59.704L87.2693 59.2209L86.8313 59.3377L86.9047 59.785L87.3981 59.704ZM90.2781 58.936L90.7734 58.8677L90.6961 58.3071L90.1493 58.4529L90.2781 58.936ZM96.2301 67.864L95.9582 68.2836L95.9617 68.2858L96.2301 67.864ZM127.142 64.312L126.745 64.0083L126.745 64.0083L127.142 64.312ZM125.222 47.608L124.914 48.0018L124.919 48.0059L125.222 47.608ZM113.03 42.04L112.896 42.5217L112.899 42.5225L113.03 42.04ZM107.174 40.408L107.308 39.9264L107.308 39.9263L107.174 40.408ZM92.8701 33.88L93.1797 33.4874L93.1797 33.4874L92.8701 33.88ZM90.6621 14.776L90.2658 14.4711L90.2609 14.4776L90.6621 14.776ZM98.5341 8.92L98.729 9.38054L98.7364 9.37727L98.5341 8.92ZM120.23 8.536L120.046 9.00104L120.058 9.00533L120.23 8.536ZM127.91 13.528L128.28 13.1911L128.28 13.1911L127.91 13.528ZM131.558 21.112L131.687 21.5951L132.121 21.4793L132.052 21.0351L131.558 21.112ZM128.678 21.88L128.182 21.9399L128.251 22.5114L128.807 22.3631L128.678 21.88ZM122.726 12.952L122.454 13.3716L122.458 13.3738L122.726 12.952ZM99.9741 11.416L100.16 11.8803L100.169 11.8766L99.9741 11.416ZM93.1581 16.312L92.7654 16.0026L92.7641 16.0042L93.1581 16.312ZM95.0781 32.056L94.7824 32.4592L94.7867 32.4623L95.0781 32.056ZM107.846 37.624L107.708 38.1046L107.71 38.1051L107.846 37.624ZM113.606 39.256L113.47 39.7371L113.472 39.7375L113.606 39.256ZM127.526 45.88L127.207 46.2653L127.212 46.269L127.526 45.88ZM129.638 65.848L130.038 66.148L130.042 66.1433L129.638 65.848ZM121.574 71.896L121.378 71.436L121.375 71.4373L121.574 71.896ZM96.1341 78.136L95.9471 78.5998L95.9561 78.6032L96.1341 78.136ZM86.2461 71.512L85.8723 71.8443L85.8803 71.8529L86.2461 71.512ZM81.2541 61.336L81.1212 60.854L80.674 60.9774L80.7635 61.4325L81.2541 61.336ZM84.0381 60.568L84.5298 60.477L84.4305 59.9411L83.9052 60.086L84.0381 60.568ZM88.3581 69.592L87.9817 69.9214L87.9907 69.9311L88.3581 69.592ZM97.2861 75.448L97.1061 75.9145L97.1061 75.9145L97.2861 75.448ZM123.398 74.968L123.601 75.4252L123.604 75.4237L123.398 74.968ZM132.614 67.672L132.207 67.3814L132.206 67.383L132.614 67.672ZM130.31 43.768L130.637 43.3897L130.637 43.3897L130.31 43.768ZM114.374 35.896L114.513 35.4157L114.513 35.4155L114.374 35.896ZM108.71 34.264L108.849 33.7835L108.848 33.7835L108.71 34.264ZM97.9581 29.848L98.228 29.4271L98.228 29.4271L97.9581 29.848ZM98.6301 15.928L98.8968 16.351L98.9033 16.3468L98.6301 15.928ZM125.318 22.744L125.451 23.226L125.871 23.1101L125.814 22.6779L125.318 22.744ZM122.534 23.512L122.035 23.5405L122.07 24.1586L122.667 23.994L122.534 23.512ZM118.79 18.04L118.529 18.4667L118.535 18.4698L118.79 18.04ZM100.742 17.944L100.505 17.5037L100.5 17.5064L100.742 17.944ZM100.454 28.024L100.216 28.4635L100.221 28.4662L100.454 28.024ZM109.478 31.48L109.621 31.0008L109.619 31.0002L109.478 31.48ZM114.95 33.112L114.807 33.5911L114.808 33.5912L114.95 33.112ZM132.71 42.136L132.374 42.5065L132.378 42.5094L132.71 42.136ZM135.11 69.208L134.7 68.9223L134.699 68.9238L135.11 69.208ZM124.838 77.464L124.633 77.0079L124.631 77.009L124.838 77.464ZM109.67 67.268C105.187 67.268 101.537 66.4152 98.6912 64.7448L98.185 65.6072C101.227 67.3928 105.066 68.268 109.67 68.268V67.268ZM98.6981 64.7489C95.8643 63.024 94.376 60.7864 94.1363 58.0287L93.14 58.1153C93.4122 61.2456 95.124 63.744 98.1782 65.6031L98.6981 64.7489ZM93.7711 58.554L96.5551 57.786L96.2892 56.822L93.5052 57.59L93.7711 58.554ZM95.9221 57.304C95.9221 59.7083 97.2817 61.6727 99.8112 63.2037L100.329 62.3482C97.9946 60.9353 96.9221 59.2517 96.9221 57.304H95.9221ZM99.8245 63.2115C102.418 64.6744 105.71 65.388 109.67 65.388V64.388C105.822 64.388 102.715 63.6936 100.316 62.3405L99.8245 63.2115ZM109.67 65.388C113.758 65.388 117.119 64.6424 119.716 63.1107L119.208 62.2493C116.813 63.6616 113.646 64.388 109.67 64.388V65.388ZM119.711 63.1135C122.376 61.5813 123.802 59.5504 123.802 57.016H122.802C122.802 59.0896 121.668 60.8347 119.213 62.2465L119.711 63.1135ZM123.802 57.016C123.802 54.6409 122.633 52.7337 120.403 51.3142L119.866 52.1578C121.859 53.4263 122.802 55.0391 122.802 57.016H123.802ZM120.403 51.3142C118.234 49.9341 115.303 48.7338 111.629 47.7026L111.359 48.6654C114.981 49.6822 117.81 50.8499 119.866 52.1578L120.403 51.3142ZM111.634 47.7038L105.682 45.9758L105.403 46.9362L111.355 48.6642L111.634 47.7038ZM105.682 45.9758C97.7812 43.6822 91.8744 40.7965 87.919 37.3433L87.2613 38.0967C91.3698 41.6835 97.4311 44.6218 105.403 46.9362L105.682 45.9758ZM87.919 37.3433C84.0124 33.9328 82.0421 29.2473 82.0421 23.224H81.0421C81.0421 29.4887 83.1039 34.4672 87.2613 38.0967L87.919 37.3433ZM82.0421 23.224C82.0421 18.9061 83.229 15.1053 85.5965 11.8033L84.7838 11.2207C82.2872 14.7027 81.0421 18.7099 81.0421 23.224H82.0421ZM85.5955 11.8047C88.0372 8.42388 91.328 5.756 95.4827 3.80456L95.0576 2.89943C90.7642 4.91599 87.3351 7.68811 84.7848 11.2193L85.5955 11.8047ZM95.4801 3.80578C99.6938 1.85616 104.453 0.875994 109.766 0.875994V-0.124006C104.328 -0.124006 99.4225 0.879828 95.0602 2.89821L95.4801 3.80578ZM109.766 0.875994C114.575 0.875994 118.893 1.66678 122.729 3.23865L123.108 2.31334C119.135 0.685206 114.685 -0.124006 109.766 -0.124006V0.875994ZM122.738 3.24228C126.639 4.75262 129.835 6.9176 132.336 9.73218L133.084 9.06782C130.466 6.1224 127.133 3.87137 123.099 2.30971L122.738 3.24228ZM132.341 9.73674C134.901 12.5475 136.523 15.822 137.21 19.5702L138.194 19.3898C137.473 15.458 135.767 12.0125 133.08 9.06325L132.341 9.73674ZM137.569 18.998L134.785 19.766L135.051 20.73L137.835 19.962L137.569 18.998ZM135.411 20.1643C134.819 16.6788 133.337 13.6159 130.97 10.9855L130.226 11.6545C132.467 14.1441 133.865 17.0332 134.425 20.3317L135.411 20.1643ZM130.97 10.9855C128.608 8.3613 125.597 6.33562 121.949 4.90262L121.583 5.83337C125.104 7.21637 127.98 9.15868 130.226 11.6545L130.97 10.9855ZM121.949 4.90262C118.299 3.46864 114.236 2.756 109.766 2.756V3.756C114.129 3.756 118.065 4.45136 121.583 5.83337L121.949 4.90262ZM109.766 2.756C104.84 2.756 100.414 3.66375 96.4987 5.4909L96.9216 6.39709C100.686 4.64024 104.964 3.756 109.766 3.756V2.756ZM96.5021 5.48934C92.658 7.24848 89.5805 9.66696 87.2851 12.7494L88.0872 13.3466C90.2717 10.413 93.2102 8.09551 96.9182 6.39865L96.5021 5.48934ZM87.281 12.7549C85.04 15.8528 83.9221 19.4125 83.9221 23.416H84.9221C84.9221 19.6115 85.9802 16.2592 88.0912 13.3411L87.281 12.7549ZM83.9221 23.416C83.9221 28.7947 85.7986 33.1606 89.5644 36.4639L90.2238 35.7121C86.6936 32.6154 84.9221 28.5333 84.9221 23.416H83.9221ZM89.5715 36.4699C93.3608 39.6713 98.9101 42.2564 106.178 44.2502L106.442 43.2858C99.2461 41.3116 93.8515 38.7767 90.2168 35.7061L89.5715 36.4699ZM106.178 44.2502L112.13 45.8822L112.394 44.9178L106.442 43.2858L106.178 44.2502ZM112.129 45.8821C116.516 47.09 119.878 48.5424 122.245 50.2236L122.824 49.4084C120.326 47.6336 116.84 46.142 112.395 44.9179L112.129 45.8821ZM122.245 50.2236C124.547 51.8593 125.682 54.0445 125.682 56.824H126.682C126.682 53.7155 125.386 51.2287 122.824 49.4084L122.245 50.2236ZM125.682 56.824C125.682 59.9015 124.278 62.4113 121.389 64.3787L121.952 65.2053C125.078 63.0767 126.682 60.2745 126.682 56.824H125.682ZM121.395 64.3746C118.494 66.2877 114.601 67.268 109.67 67.268V68.268C114.724 68.268 118.83 67.2643 121.945 65.2094L121.395 64.3746ZM109.67 73.604C103.727 73.604 98.7702 72.3084 94.7718 69.747L94.2324 70.589C98.4261 73.2756 103.581 74.604 109.67 74.604V73.604ZM94.7795 69.752C90.8481 67.1311 88.5704 63.7577 87.8915 59.623L86.9047 59.785C87.6339 64.2263 90.0921 67.8289 94.2248 70.584L94.7795 69.752ZM87.527 60.1871L90.407 59.4191L90.1493 58.4529L87.2693 59.2209L87.527 60.1871ZM89.7828 59.0043C90.3168 62.8756 92.3938 65.9733 95.9582 68.2836L96.5021 67.4444C93.1544 65.2747 91.2635 62.4204 90.7734 58.8677L89.7828 59.0043ZM95.9617 68.2858C99.5829 70.5902 104.163 71.724 109.67 71.724V70.724C104.297 70.724 99.9173 69.6178 96.4986 67.4422L95.9617 68.2858ZM109.67 71.724C113.688 71.724 117.242 71.1083 120.322 69.8636L119.947 68.9364C117.01 70.1237 113.588 70.724 109.67 70.724V71.724ZM120.322 69.8636C123.397 68.6202 125.812 66.875 127.539 64.6157L126.745 64.0083C125.145 66.101 122.887 67.7478 119.947 68.9364L120.322 69.8636ZM127.539 64.6157C129.272 62.3499 130.138 59.7465 130.138 56.824H129.138C129.138 59.5335 128.34 61.9221 126.745 64.0083L127.539 64.6157ZM130.138 56.824C130.138 52.7739 128.601 49.5506 125.525 47.2101L124.919 48.0059C127.731 50.1454 129.138 53.0661 129.138 56.824H130.138ZM125.53 47.2142C122.516 44.8553 118.384 42.9759 113.161 41.5575L112.899 42.5225C118.045 43.9201 122.04 45.7527 124.914 48.0018L125.53 47.2142ZM113.164 41.5584L107.308 39.9264L107.04 40.8896L112.896 42.5216L113.164 41.5584ZM107.308 39.9263C101.134 38.2077 96.4359 36.0547 93.1797 33.4874L92.5606 34.2726C95.9604 36.9533 100.798 39.1523 107.04 40.8897L107.308 39.9263ZM93.1797 33.4874C89.9757 30.9611 88.3781 27.6197 88.3781 23.416H87.3781C87.3781 27.9163 89.1086 31.5509 92.5606 34.2726L93.1797 33.4874ZM88.3781 23.416C88.3781 20.2538 89.2748 17.4797 91.0634 15.0743L90.2609 14.4776C88.3375 17.0643 87.3781 20.0502 87.3781 23.416H88.3781ZM91.0584 15.0809C92.9185 12.6628 95.4685 10.7599 98.729 9.38048L98.3393 8.45951C94.9437 9.89611 92.2458 11.8972 90.2658 14.4711L91.0584 15.0809ZM98.7364 9.37727C101.992 7.9372 105.666 7.212 109.766 7.212V6.212C105.546 6.212 101.732 6.95879 98.3319 8.46273L98.7364 9.37727ZM109.766 7.212C113.618 7.212 117.042 7.81189 120.046 9.0009L120.414 8.07109C117.274 6.82811 113.722 6.212 109.766 6.212V7.212ZM120.058 9.00533C123.129 10.1334 125.618 11.7558 127.541 13.8649L128.28 13.1911C126.235 10.9482 123.604 9.24259 120.403 8.06666L120.058 9.00533ZM127.541 13.8649C129.459 15.9691 130.631 18.4069 131.064 21.1888L132.052 21.0351C131.589 18.0571 130.329 15.4389 128.28 13.1911L127.541 13.8649ZM131.429 20.6289L128.549 21.3969L128.807 22.3631L131.687 21.5951L131.429 20.6289ZM129.175 21.8201C128.706 17.9409 126.624 14.84 122.995 12.5302L122.458 13.3738C125.868 15.544 127.754 18.3951 128.182 21.9399L129.175 21.8201ZM122.998 12.5324C119.442 10.2279 115.022 9.092 109.766 9.092V10.092C114.879 10.092 119.098 11.1961 122.454 13.3716L122.998 12.5324ZM109.766 9.092C106.062 9.092 102.731 9.70942 99.7796 10.9554L100.169 11.8766C102.978 10.6906 106.174 10.092 109.766 10.092V9.092ZM99.7884 10.9518C96.8397 12.1312 94.4915 13.8117 92.7654 16.0026L93.5509 16.6214C95.1528 14.5883 97.3486 13.0047 100.16 11.8802L99.7884 10.9518ZM92.7641 16.0042C91.0929 18.1433 90.2581 20.6206 90.2581 23.416H91.2581C91.2581 20.8354 92.0233 18.5767 93.5521 16.6198L92.7641 16.0042ZM90.2581 23.416C90.2581 27.2192 91.7708 30.2506 94.7824 32.4592L95.3738 31.6528C92.6255 29.6373 91.2581 26.9088 91.2581 23.416H90.2581ZM94.7867 32.4623C97.7965 34.6215 102.114 36.497 107.708 38.1046L107.984 37.1434C102.442 35.5509 98.2477 33.7145 95.3696 31.6497L94.7867 32.4623ZM107.71 38.1051L113.47 39.7371L113.742 38.7749L107.982 37.1429L107.71 38.1051ZM113.472 39.7375C119.383 41.3902 123.951 43.5728 127.207 46.2653L127.845 45.4947C124.445 42.6832 119.733 40.4498 113.741 38.7745L113.472 39.7375ZM127.212 46.269C130.412 48.854 132.018 52.3537 132.018 56.824H133.018C133.018 52.0783 131.296 48.282 127.84 45.491L127.212 46.269ZM132.018 56.824C132.018 60.1147 131.089 63.0183 129.235 65.5527L130.042 66.1433C132.027 63.4297 133.018 60.3173 133.018 56.824H132.018ZM129.238 65.548C127.379 68.0263 124.767 69.9924 121.378 71.436L121.77 72.356C125.293 70.8556 128.057 68.7897 130.038 66.148L129.238 65.548ZM121.375 71.4373C118.059 72.8766 114.161 73.604 109.67 73.604V74.604C114.267 74.604 118.306 73.8594 121.773 72.3547L121.375 71.4373ZM109.67 79.94C104.73 79.94 100.279 79.18 96.3121 77.6688L95.9561 78.6032C100.053 80.164 104.627 80.94 109.67 80.94V79.94ZM96.3211 77.6723C92.4134 76.0966 89.1807 73.9279 86.6119 71.1711L85.8803 71.8529C88.5595 74.7281 91.9189 76.9754 95.9471 78.5997L96.3211 77.6723ZM86.6198 71.1798C84.1211 68.3688 82.4961 65.0589 81.7447 61.2395L80.7635 61.4325C81.5482 65.4211 83.2511 68.8952 85.8724 71.8442L86.6198 71.1798ZM81.3871 61.818L84.1711 61.05L83.9052 60.086L81.1212 60.854L81.3871 61.818ZM83.5465 60.659C84.2023 64.2003 85.6807 67.2913 87.9818 69.9213L88.7344 69.2627C86.5556 66.7727 85.154 63.8477 84.5298 60.477L83.5465 60.659ZM87.9907 69.9311C90.3539 72.4913 93.3975 74.4831 97.1061 75.9145L97.4662 74.9815C93.8787 73.5969 90.9703 71.6847 88.7255 69.2529L87.9907 69.9311ZM97.1061 75.9145C100.821 77.3482 105.011 78.06 109.67 78.06V77.06C105.113 77.06 101.047 76.3638 97.4662 74.9815L97.1061 75.9145ZM109.67 78.06C114.972 78.06 119.62 77.1871 123.601 75.4252L123.196 74.5108C119.368 76.2049 114.864 77.06 109.67 77.06V78.06ZM123.604 75.4237C127.64 73.6009 130.787 71.1163 133.022 67.961L132.206 67.383C130.089 70.3717 127.092 72.7511 123.192 74.5123L123.604 75.4237ZM133.021 67.9626C135.325 64.7363 136.474 61.0173 136.474 56.824H135.474C135.474 60.8227 134.383 64.3357 132.207 67.3814L133.021 67.9626ZM136.474 56.824C136.474 51.2535 134.534 46.7579 130.637 43.3897L129.983 44.1463C133.639 47.3061 135.474 51.5145 135.474 56.824H136.474ZM130.637 43.3897C126.788 40.0629 121.403 37.4118 114.513 35.4157L114.235 36.3762C121.041 38.3482 126.28 40.9451 129.983 44.1463L130.637 43.3897ZM114.513 35.4155L108.849 33.7835L108.572 34.7445L114.236 36.3765L114.513 35.4155ZM108.848 33.7835C104.197 32.4455 100.666 30.9896 98.228 29.4271L97.6883 30.2689C100.243 31.9064 103.879 33.3945 108.572 34.7445L108.848 33.7835ZM98.228 29.4271C95.8578 27.9078 94.7141 25.9138 94.7141 23.416H93.7141C93.7141 26.2942 95.0664 28.5882 97.6883 30.2689L98.228 29.4271ZM94.7141 23.416C94.7141 20.473 96.0791 18.1273 98.8968 16.351L98.3635 15.505C95.2932 17.4407 93.7141 20.087 93.7141 23.416H94.7141ZM98.9033 16.3468C101.746 14.4926 105.357 13.548 109.766 13.548V12.548C105.216 12.548 101.402 13.5234 98.357 15.5092L98.9033 16.3468ZM109.766 13.548C114.051 13.548 117.535 14.4302 120.25 16.1578L120.787 15.3142C117.869 13.4577 114.185 12.548 109.766 12.548V13.548ZM120.25 16.1578C122.962 17.8838 124.461 20.0991 124.823 22.8101L125.814 22.6779C125.407 19.6289 123.706 17.1722 120.787 15.3142L120.25 16.1578ZM125.185 22.262L122.401 23.03L122.667 23.994L125.451 23.226L125.185 22.262ZM123.033 23.4835C122.894 21.0387 121.519 19.0811 119.046 17.6102L118.535 18.4698C120.797 19.8148 121.919 21.5053 122.035 23.5405L123.033 23.4835ZM119.051 17.6134C116.644 16.1426 113.537 15.428 109.766 15.428V16.428C113.419 16.428 116.328 17.1214 118.529 18.4666L119.051 17.6134ZM109.766 15.428C106.183 15.428 103.089 16.1122 100.505 17.5038L100.979 18.3842C103.387 17.0878 106.309 16.428 109.766 16.428V15.428ZM100.5 17.5064C97.9604 18.91 96.5941 20.814 96.5941 23.224H97.5941C97.5941 21.282 98.6598 19.666 100.984 18.3816L100.5 17.5064ZM96.5941 23.224C96.5941 25.4451 97.868 27.189 100.216 28.4634L100.693 27.5846C98.5603 26.427 97.5941 24.9709 97.5941 23.224H96.5941ZM100.221 28.4662C102.565 29.7033 105.607 30.8665 109.337 31.9598L109.619 31.0002C105.925 29.9175 102.951 28.7767 100.688 27.5818L100.221 28.4662ZM109.335 31.9591L114.807 33.5911L115.093 32.6329L109.621 31.0009L109.335 31.9591ZM114.808 33.5912C122.51 35.883 128.353 38.8625 132.374 42.5065L133.046 41.7655C128.875 37.9855 122.878 34.949 115.093 32.6328L114.808 33.5912ZM132.378 42.5094C136.351 46.0484 138.354 50.864 138.354 57.016H139.354C139.354 50.624 137.261 45.5196 133.043 41.7626L132.378 42.5094ZM138.354 57.016C138.354 61.4622 137.135 65.4256 134.7 68.9223L135.52 69.4937C138.077 65.8224 139.354 61.6578 139.354 57.016H138.354ZM134.699 68.9238C132.325 72.3592 128.977 75.0563 124.633 77.0079L125.043 77.9201C129.531 75.9037 133.031 73.0968 135.521 69.4922L134.699 68.9238ZM124.631 77.009C120.356 78.9579 115.373 79.94 109.67 79.94V80.94C115.487 80.94 120.617 79.9381 125.046 77.919L124.631 77.009Z" fill="white" fill-opacity="0.35"/>
</g>
<defs>
<filter id="filter0_d_9_5" x="0.226875" y="0.376007" width="142.627" height="88.064" filterUnits="userSpaceOnUse" color-interpolation-filters="sRGB">
<feFlood flood-opacity="0" result="BackgroundImageFix"/>
<feColorMatrix in="SourceAlpha" type="matrix" values="0 0 0 0 0 0 0 0 0 0 0 0 0 0 0 0 0 0 127 0" result="hardAlpha"/>
<feOffset dy="4"/>
<feGaussianBlur stdDeviation="2"/>
<feComposite in2="hardAlpha" operator="out"/>
<feColorMatrix type="matrix" values="0 0 0 0 0 0 0 0 0 0 0 0 0 0 0 0 0 0 0.25 0"/>
<feBlend mode="normal" in2="BackgroundImageFix" result="effect1_dropShadow_9_5"/>
<feBlend mode="normal" in="SourceGraphic" in2="effect1_dropShadow_9_5" result="shape"/>
</filter>
</defs>
</svg>
