<svg viewBox="0 0 420 54" fill="none" xmlns="http://www.w3.org/2000/svg">
<path d="M54.9521 34.4424C54.9521 33.8584 54.8623 33.3343 54.6826 32.8701C54.5179 32.391 54.2035 31.9567 53.7393 31.5674C53.2751 31.1631 52.6237 30.7663 51.7852 30.377C50.9466 29.9876 49.861 29.5833 48.5283 29.1641C47.0459 28.6849 45.6383 28.1458 44.3057 27.5469C42.988 26.9479 41.82 26.2516 40.8018 25.458C39.7985 24.6494 39.0049 23.7135 38.4209 22.6504C37.8519 21.5872 37.5674 20.3519 37.5674 18.9443C37.5674 17.5817 37.8669 16.3464 38.4658 15.2383C39.0648 14.1152 39.9033 13.1569 40.9814 12.3633C42.0596 11.5547 43.3324 10.9333 44.7998 10.499C46.2822 10.0648 47.9069 9.84766 49.6738 9.84766C52.0846 9.84766 54.1885 10.2819 55.9854 11.1504C57.7822 12.0189 59.1748 13.2093 60.1631 14.7217C61.1663 16.234 61.668 17.9635 61.668 19.9102H54.9746C54.9746 18.9518 54.7725 18.1133 54.3682 17.3945C53.9788 16.6608 53.3799 16.0843 52.5713 15.665C51.7777 15.2458 50.7744 15.0361 49.5615 15.0361C48.3936 15.0361 47.4202 15.2158 46.6416 15.5752C45.863 15.9196 45.279 16.3913 44.8896 16.9902C44.5003 17.5742 44.3057 18.2331 44.3057 18.9668C44.3057 19.5208 44.4404 20.0225 44.71 20.4717C44.9945 20.9209 45.4137 21.3402 45.9678 21.7295C46.5218 22.1188 47.2031 22.4857 48.0117 22.8301C48.8203 23.1745 49.7562 23.5114 50.8193 23.8408C52.6012 24.3799 54.166 24.9863 55.5137 25.6602C56.8763 26.334 58.0143 27.0902 58.9277 27.9287C59.8411 28.7673 60.5299 29.7181 60.9941 30.7812C61.4583 31.8444 61.6904 33.0498 61.6904 34.3975C61.6904 35.82 61.4134 37.0928 60.8594 38.2158C60.3053 39.3389 59.5042 40.2897 58.4561 41.0684C57.4079 41.847 56.1576 42.4385 54.7051 42.8428C53.2526 43.2471 51.6279 43.4492 49.8311 43.4492C48.2139 43.4492 46.6191 43.2396 45.0469 42.8203C43.4746 42.3861 42.0446 41.7347 40.7568 40.8662C39.484 39.9977 38.4658 38.8896 37.7021 37.542C36.9385 36.1943 36.5566 34.5996 36.5566 32.7578H43.3174C43.3174 33.776 43.4746 34.637 43.7891 35.3408C44.1035 36.0446 44.5452 36.6136 45.1143 37.0479C45.6982 37.4821 46.387 37.7965 47.1807 37.9912C47.9893 38.1859 48.8727 38.2832 49.8311 38.2832C50.999 38.2832 51.9574 38.1185 52.7061 37.7891C53.4697 37.4596 54.0312 37.0029 54.3906 36.4189C54.765 35.835 54.9521 35.1761 54.9521 34.4424ZM80.2432 37.1826V18.6973H86.7119V43H80.625L80.2432 37.1826ZM80.9619 32.1963L82.8711 32.1514C82.8711 33.7686 82.6839 35.2734 82.3096 36.666C81.9352 38.0436 81.3737 39.2415 80.625 40.2598C79.8763 41.263 78.9329 42.0492 77.7949 42.6182C76.6569 43.1722 75.3167 43.4492 73.7744 43.4492C72.5915 43.4492 71.4984 43.2845 70.4951 42.9551C69.5068 42.6107 68.6533 42.0791 67.9346 41.3604C67.2308 40.6266 66.6768 39.6908 66.2725 38.5527C65.8831 37.3997 65.6885 36.0146 65.6885 34.3975V18.6973H72.1572V34.4424C72.1572 35.1611 72.2396 35.7676 72.4043 36.2617C72.584 36.7559 72.8311 37.1602 73.1455 37.4746C73.46 37.7891 73.8268 38.0137 74.2461 38.1484C74.6803 38.2832 75.1595 38.3506 75.6836 38.3506C77.0163 38.3506 78.0645 38.0811 78.8281 37.542C79.6068 37.0029 80.1533 36.2692 80.4678 35.3408C80.7972 34.3975 80.9619 33.3493 80.9619 32.1963ZM97.9873 23.8857V43H91.5186V18.6973H97.583L97.9873 23.8857ZM97.0439 29.9951H95.292C95.292 28.1982 95.5241 26.5811 95.9883 25.1436C96.4525 23.6911 97.1038 22.4557 97.9424 21.4375C98.7809 20.4043 99.7767 19.6182 100.93 19.0791C102.098 18.5251 103.4 18.248 104.838 18.248C105.976 18.248 107.017 18.4128 107.96 18.7422C108.903 19.0716 109.712 19.5957 110.386 20.3145C111.075 21.0332 111.599 21.984 111.958 23.167C112.332 24.3499 112.52 25.7949 112.52 27.502V43H106.006V27.4795C106.006 26.4014 105.856 25.5628 105.557 24.9639C105.257 24.3649 104.815 23.9456 104.231 23.7061C103.662 23.4515 102.959 23.3242 102.12 23.3242C101.252 23.3242 100.495 23.4964 99.8516 23.8408C99.2227 24.1852 98.6986 24.6644 98.2793 25.2783C97.875 25.8773 97.568 26.5811 97.3584 27.3896C97.1488 28.1982 97.0439 29.0667 97.0439 29.9951ZM131.791 37.6992V8.5H138.305V43H132.442L131.791 37.6992ZM116.428 31.1406V30.6689C116.428 28.8122 116.637 27.1276 117.057 25.6152C117.476 24.0879 118.09 22.7777 118.898 21.6846C119.707 20.5915 120.703 19.7454 121.886 19.1465C123.069 18.5475 124.416 18.248 125.929 18.248C127.351 18.248 128.594 18.5475 129.657 19.1465C130.735 19.7454 131.649 20.599 132.397 21.707C133.161 22.8001 133.775 24.0954 134.239 25.5928C134.703 27.0752 135.04 28.6999 135.25 30.4668V31.5C135.04 33.1921 134.703 34.7643 134.239 36.2168C133.775 37.6693 133.161 38.9421 132.397 40.0352C131.649 41.1133 130.735 41.9518 129.657 42.5508C128.579 43.1497 127.321 43.4492 125.884 43.4492C124.371 43.4492 123.024 43.1423 121.841 42.5283C120.673 41.9144 119.685 41.0534 118.876 39.9453C118.082 38.8372 117.476 37.5345 117.057 36.0371C116.637 34.5397 116.428 32.9076 116.428 31.1406ZM122.896 30.6689V31.1406C122.896 32.1439 122.971 33.0798 123.121 33.9482C123.286 34.8167 123.548 35.5879 123.907 36.2617C124.282 36.9206 124.761 37.4372 125.345 37.8115C125.944 38.1709 126.67 38.3506 127.523 38.3506C128.632 38.3506 129.545 38.1035 130.264 37.6094C130.982 37.1003 131.529 36.404 131.903 35.5205C132.293 34.637 132.517 33.6188 132.577 32.4658V29.5234C132.532 28.5801 132.397 27.734 132.173 26.9854C131.963 26.2217 131.649 25.5703 131.229 25.0312C130.825 24.4922 130.316 24.0729 129.702 23.7734C129.103 23.474 128.392 23.3242 127.568 23.3242C126.73 23.3242 126.011 23.5189 125.412 23.9082C124.813 24.2826 124.326 24.7992 123.952 25.458C123.593 26.1169 123.323 26.8955 123.144 27.7939C122.979 28.6774 122.896 29.6357 122.896 30.6689ZM156.476 37.5195V26.6934C156.476 25.9147 156.348 25.2484 156.094 24.6943C155.839 24.1253 155.442 23.6836 154.903 23.3691C154.379 23.0547 153.698 22.8975 152.859 22.8975C152.141 22.8975 151.519 23.0247 150.995 23.2793C150.471 23.5189 150.067 23.8708 149.782 24.335C149.498 24.7842 149.355 25.3158 149.355 25.9297H142.887C142.887 24.8965 143.126 23.9157 143.605 22.9873C144.085 22.0589 144.781 21.2428 145.694 20.5391C146.608 19.8203 147.693 19.2588 148.951 18.8545C150.224 18.4502 151.646 18.248 153.219 18.248C155.105 18.248 156.783 18.5625 158.25 19.1914C159.717 19.8203 160.87 20.7637 161.709 22.0215C162.562 23.2793 162.989 24.8516 162.989 26.7383V37.1377C162.989 38.4704 163.072 39.5635 163.236 40.417C163.401 41.2555 163.641 41.9893 163.955 42.6182V43H157.419C157.104 42.3411 156.865 41.5176 156.7 40.5293C156.55 39.526 156.476 38.5228 156.476 37.5195ZM157.329 28.1982L157.374 31.8594H153.758C152.904 31.8594 152.163 31.9567 151.534 32.1514C150.905 32.346 150.389 32.623 149.984 32.9824C149.58 33.3268 149.281 33.7311 149.086 34.1953C148.906 34.6595 148.816 35.1686 148.816 35.7227C148.816 36.2767 148.944 36.7783 149.198 37.2275C149.453 37.6618 149.82 38.0062 150.299 38.2607C150.778 38.5003 151.34 38.6201 151.983 38.6201C152.957 38.6201 153.803 38.4255 154.521 38.0361C155.24 37.6468 155.794 37.1676 156.184 36.5986C156.588 36.0296 156.798 35.4906 156.812 34.9814L158.52 37.7217C158.28 38.3356 157.951 38.972 157.531 39.6309C157.127 40.2897 156.61 40.9111 155.981 41.4951C155.353 42.0641 154.596 42.5358 153.713 42.9102C152.829 43.2695 151.781 43.4492 150.568 43.4492C149.026 43.4492 147.626 43.1423 146.368 42.5283C145.125 41.8994 144.137 41.0384 143.403 39.9453C142.685 38.8372 142.325 37.5794 142.325 36.1719C142.325 34.8991 142.565 33.7686 143.044 32.7803C143.523 31.792 144.227 30.9609 145.155 30.2871C146.099 29.5983 147.274 29.0817 148.682 28.7373C150.089 28.3779 151.721 28.1982 153.578 28.1982H157.329ZM174.826 40.2598L181.272 18.6973H188.213L178.442 46.6611C178.233 47.2751 177.948 47.9339 177.589 48.6377C177.244 49.3415 176.773 50.0078 176.174 50.6367C175.59 51.2806 174.849 51.8047 173.95 52.209C173.067 52.6133 171.981 52.8154 170.693 52.8154C170.079 52.8154 169.578 52.778 169.188 52.7031C168.799 52.6283 168.335 52.5234 167.796 52.3887V47.6494C167.961 47.6494 168.133 47.6494 168.312 47.6494C168.492 47.6644 168.664 47.6719 168.829 47.6719C169.683 47.6719 170.379 47.5745 170.918 47.3799C171.457 47.1852 171.891 46.8857 172.221 46.4814C172.55 46.0921 172.812 45.583 173.007 44.9541L174.826 40.2598ZM172.131 18.6973L177.409 36.3066L178.33 43.1572L173.928 43.6289L165.19 18.6973H172.131ZM219.681 34.4424C219.681 33.8584 219.591 33.3343 219.411 32.8701C219.246 32.391 218.932 31.9567 218.468 31.5674C218.004 31.1631 217.352 30.7663 216.514 30.377C215.675 29.9876 214.59 29.5833 213.257 29.1641C211.774 28.6849 210.367 28.1458 209.034 27.5469C207.716 26.9479 206.549 26.2516 205.53 25.458C204.527 24.6494 203.733 23.7135 203.149 22.6504C202.58 21.5872 202.296 20.3519 202.296 18.9443C202.296 17.5817 202.595 16.3464 203.194 15.2383C203.793 14.1152 204.632 13.1569 205.71 12.3633C206.788 11.5547 208.061 10.9333 209.528 10.499C211.011 10.0648 212.635 9.84766 214.402 9.84766C216.813 9.84766 218.917 10.2819 220.714 11.1504C222.511 12.0189 223.903 13.2093 224.892 14.7217C225.895 16.234 226.396 17.9635 226.396 19.9102H219.703C219.703 18.9518 219.501 18.1133 219.097 17.3945C218.707 16.6608 218.108 16.0843 217.3 15.665C216.506 15.2458 215.503 15.0361 214.29 15.0361C213.122 15.0361 212.149 15.2158 211.37 15.5752C210.591 15.9196 210.007 16.3913 209.618 16.9902C209.229 17.5742 209.034 18.2331 209.034 18.9668C209.034 19.5208 209.169 20.0225 209.438 20.4717C209.723 20.9209 210.142 21.3402 210.696 21.7295C211.25 22.1188 211.932 22.4857 212.74 22.8301C213.549 23.1745 214.485 23.5114 215.548 23.8408C217.33 24.3799 218.895 24.9863 220.242 25.6602C221.605 26.334 222.743 27.0902 223.656 27.9287C224.57 28.7673 225.258 29.7181 225.723 30.7812C226.187 31.8444 226.419 33.0498 226.419 34.3975C226.419 35.82 226.142 37.0928 225.588 38.2158C225.034 39.3389 224.233 40.2897 223.185 41.0684C222.136 41.847 220.886 42.4385 219.434 42.8428C217.981 43.2471 216.356 43.4492 214.56 43.4492C212.942 43.4492 211.348 43.2396 209.775 42.8203C208.203 42.3861 206.773 41.7347 205.485 40.8662C204.213 39.9977 203.194 38.8896 202.431 37.542C201.667 36.1943 201.285 34.5996 201.285 32.7578H208.046C208.046 33.776 208.203 34.637 208.518 35.3408C208.832 36.0446 209.274 36.6136 209.843 37.0479C210.427 37.4821 211.116 37.7965 211.909 37.9912C212.718 38.1859 213.601 38.2832 214.56 38.2832C215.728 38.2832 216.686 38.1185 217.435 37.7891C218.198 37.4596 218.76 37.0029 219.119 36.4189C219.493 35.835 219.681 35.1761 219.681 34.4424ZM241.782 43.4492C239.896 43.4492 238.203 43.1497 236.706 42.5508C235.209 41.9368 233.936 41.0908 232.888 40.0127C231.854 38.9346 231.061 37.6842 230.507 36.2617C229.953 34.8242 229.676 33.2969 229.676 31.6797V30.7812C229.676 28.9395 229.938 27.2549 230.462 25.7275C230.986 24.2002 231.735 22.875 232.708 21.752C233.696 20.6289 234.894 19.7679 236.302 19.1689C237.709 18.555 239.297 18.248 241.063 18.248C242.785 18.248 244.313 18.5326 245.646 19.1016C246.978 19.6706 248.094 20.4792 248.992 21.5273C249.906 22.5755 250.594 23.8333 251.059 25.3008C251.523 26.7533 251.755 28.3704 251.755 30.1523V32.8477H232.438V28.5352H245.398V28.041C245.398 27.1426 245.234 26.3415 244.904 25.6377C244.59 24.9189 244.111 24.3499 243.467 23.9307C242.823 23.5114 241.999 23.3018 240.996 23.3018C240.143 23.3018 239.409 23.4889 238.795 23.8633C238.181 24.2376 237.679 24.7617 237.29 25.4355C236.916 26.1094 236.631 26.903 236.437 27.8164C236.257 28.7148 236.167 29.7031 236.167 30.7812V31.6797C236.167 32.653 236.302 33.5514 236.571 34.375C236.856 35.1986 237.253 35.9098 237.762 36.5088C238.286 37.1077 238.915 37.5719 239.648 37.9014C240.397 38.2308 241.243 38.3955 242.187 38.3955C243.354 38.3955 244.44 38.1709 245.443 37.7217C246.462 37.2575 247.338 36.5612 248.071 35.6328L251.216 39.0469C250.707 39.7806 250.01 40.4844 249.127 41.1582C248.258 41.832 247.21 42.3861 245.982 42.8203C244.755 43.2396 243.354 43.4492 241.782 43.4492ZM261.907 23.998V43H255.438V18.6973H261.525L261.907 23.998ZM269.229 18.54L269.117 24.5371C268.803 24.4922 268.421 24.4548 267.972 24.4248C267.537 24.3799 267.141 24.3574 266.781 24.3574C265.868 24.3574 265.074 24.4772 264.4 24.7168C263.742 24.9414 263.188 25.2783 262.738 25.7275C262.304 26.1768 261.975 26.7233 261.75 27.3672C261.54 28.0111 261.421 28.7448 261.391 29.5684L260.088 29.1641C260.088 27.5918 260.245 26.1468 260.56 24.8291C260.874 23.4964 261.331 22.3359 261.93 21.3477C262.544 20.3594 263.292 19.5957 264.176 19.0566C265.059 18.5176 266.07 18.248 267.208 18.248C267.567 18.248 267.934 18.278 268.309 18.3379C268.683 18.3828 268.99 18.4502 269.229 18.54ZM278.753 23.7285V43H272.262V18.6973H278.349L278.753 23.7285ZM277.854 29.9951H276.058C276.058 28.3031 276.26 26.7458 276.664 25.3232C277.083 23.8857 277.69 22.6429 278.483 21.5947C279.292 20.5316 280.288 19.708 281.471 19.124C282.654 18.54 284.024 18.248 285.581 18.248C286.659 18.248 287.647 18.4128 288.546 18.7422C289.444 19.0566 290.215 19.5583 290.859 20.2471C291.518 20.9209 292.027 21.8044 292.387 22.8975C292.746 23.9756 292.926 25.2708 292.926 26.7832V43H286.457V27.502C286.457 26.3939 286.307 25.5404 286.008 24.9414C285.708 24.3424 285.282 23.9232 284.728 23.6836C284.188 23.444 283.537 23.3242 282.773 23.3242C281.935 23.3242 281.201 23.4964 280.572 23.8408C279.958 24.1852 279.449 24.6644 279.045 25.2783C278.641 25.8773 278.341 26.5811 278.146 27.3896C277.952 28.1982 277.854 29.0667 277.854 29.9951ZM292.319 29.2539L290.006 29.5459C290.006 27.9587 290.201 26.4837 290.59 25.1211C290.994 23.7585 291.586 22.5605 292.364 21.5273C293.158 20.4941 294.139 19.693 295.307 19.124C296.475 18.54 297.822 18.248 299.35 18.248C300.518 18.248 301.581 18.4202 302.539 18.7646C303.497 19.0941 304.313 19.6257 304.987 20.3594C305.676 21.0781 306.2 22.0215 306.56 23.1895C306.934 24.3574 307.121 25.7874 307.121 27.4795V43H300.63V27.4795C300.63 26.3564 300.48 25.5029 300.181 24.9189C299.896 24.32 299.477 23.9082 298.923 23.6836C298.384 23.444 297.74 23.3242 296.991 23.3242C296.213 23.3242 295.531 23.4814 294.947 23.7959C294.363 24.0954 293.877 24.5146 293.487 25.0537C293.098 25.5928 292.806 26.2217 292.611 26.9404C292.417 27.6442 292.319 28.4154 292.319 29.2539ZM311.097 31.0957V30.624C311.097 28.8421 311.351 27.2025 311.86 25.7051C312.369 24.1927 313.111 22.8825 314.084 21.7744C315.057 20.6663 316.255 19.8053 317.678 19.1914C319.1 18.5625 320.732 18.248 322.574 18.248C324.416 18.248 326.056 18.5625 327.493 19.1914C328.931 19.8053 330.136 20.6663 331.109 21.7744C332.098 22.8825 332.846 24.1927 333.355 25.7051C333.865 27.2025 334.119 28.8421 334.119 30.624V31.0957C334.119 32.8626 333.865 34.5023 333.355 36.0146C332.846 37.512 332.098 38.8223 331.109 39.9453C330.136 41.0534 328.938 41.9144 327.516 42.5283C326.093 43.1423 324.461 43.4492 322.619 43.4492C320.777 43.4492 319.138 43.1423 317.7 42.5283C316.278 41.9144 315.072 41.0534 314.084 39.9453C313.111 38.8223 312.369 37.512 311.86 36.0146C311.351 34.5023 311.097 32.8626 311.097 31.0957ZM317.565 30.624V31.0957C317.565 32.1139 317.655 33.0648 317.835 33.9482C318.015 34.8317 318.299 35.6104 318.688 36.2842C319.093 36.943 319.617 37.4596 320.261 37.834C320.905 38.2083 321.691 38.3955 322.619 38.3955C323.518 38.3955 324.289 38.2083 324.933 37.834C325.576 37.4596 326.093 36.943 326.482 36.2842C326.872 35.6104 327.156 34.8317 327.336 33.9482C327.531 33.0648 327.628 32.1139 327.628 31.0957V30.624C327.628 29.6357 327.531 28.7074 327.336 27.8389C327.156 26.9554 326.864 26.1768 326.46 25.5029C326.071 24.8141 325.554 24.2751 324.91 23.8857C324.266 23.4964 323.488 23.3018 322.574 23.3018C321.661 23.3018 320.882 23.4964 320.238 23.8857C319.609 24.2751 319.093 24.8141 318.688 25.5029C318.299 26.1768 318.015 26.9554 317.835 27.8389C317.655 28.7074 317.565 29.6357 317.565 30.624ZM344.429 23.8857V43H337.96V18.6973H344.024L344.429 23.8857ZM343.485 29.9951H341.733C341.733 28.1982 341.965 26.5811 342.43 25.1436C342.894 23.6911 343.545 22.4557 344.384 21.4375C345.222 20.4043 346.218 19.6182 347.371 19.0791C348.539 18.5251 349.842 18.248 351.279 18.248C352.417 18.248 353.458 18.4128 354.401 18.7422C355.345 19.0716 356.153 19.5957 356.827 20.3145C357.516 21.0332 358.04 21.984 358.399 23.167C358.774 24.3499 358.961 25.7949 358.961 27.502V43H352.447V27.4795C352.447 26.4014 352.298 25.5628 351.998 24.9639C351.699 24.3649 351.257 23.9456 350.673 23.7061C350.104 23.4515 349.4 23.3242 348.562 23.3242C347.693 23.3242 346.937 23.4964 346.293 23.8408C345.664 24.1852 345.14 24.6644 344.721 25.2783C344.316 25.8773 344.009 26.5811 343.8 27.3896C343.59 28.1982 343.485 29.0667 343.485 29.9951ZM377.02 36.2842C377.02 35.82 376.885 35.4007 376.615 35.0264C376.346 34.652 375.844 34.3076 375.11 33.9932C374.392 33.6637 373.351 33.3643 371.988 33.0947C370.76 32.8252 369.615 32.4883 368.552 32.084C367.504 31.6647 366.59 31.1631 365.812 30.5791C365.048 29.9951 364.449 29.3063 364.015 28.5127C363.58 27.7041 363.363 26.7832 363.363 25.75C363.363 24.7318 363.58 23.7734 364.015 22.875C364.464 21.9766 365.1 21.1829 365.924 20.4941C366.762 19.7904 367.781 19.2438 368.979 18.8545C370.191 18.4502 371.554 18.248 373.066 18.248C375.178 18.248 376.99 18.585 378.502 19.2588C380.029 19.9326 381.197 20.861 382.006 22.0439C382.829 23.2119 383.241 24.5446 383.241 26.042H376.772C376.772 25.4131 376.638 24.8516 376.368 24.3574C376.114 23.8483 375.709 23.4515 375.155 23.167C374.616 22.8675 373.912 22.7178 373.044 22.7178C372.325 22.7178 371.704 22.8451 371.18 23.0996C370.656 23.3392 370.251 23.6686 369.967 24.0879C369.697 24.4922 369.562 24.9414 369.562 25.4355C369.562 25.8099 369.637 26.1468 369.787 26.4463C369.952 26.7308 370.214 26.9928 370.573 27.2324C370.933 27.472 371.397 27.6966 371.966 27.9062C372.55 28.1009 373.269 28.2806 374.122 28.4453C375.874 28.8047 377.439 29.2764 378.816 29.8604C380.194 30.4294 381.287 31.208 382.096 32.1963C382.904 33.1696 383.309 34.4499 383.309 36.0371C383.309 37.1152 383.069 38.1035 382.59 39.002C382.111 39.9004 381.422 40.6865 380.523 41.3604C379.625 42.0192 378.547 42.5358 377.289 42.9102C376.046 43.2695 374.646 43.4492 373.089 43.4492C370.828 43.4492 368.911 43.0449 367.339 42.2363C365.782 41.4277 364.599 40.402 363.79 39.1592C362.996 37.9014 362.6 36.6136 362.6 35.2959H368.731C368.761 36.1794 368.986 36.8906 369.405 37.4297C369.84 37.9688 370.386 38.3581 371.045 38.5977C371.719 38.8372 372.445 38.957 373.224 38.957C374.062 38.957 374.758 38.8447 375.312 38.6201C375.867 38.3805 376.286 38.0661 376.57 37.6768C376.87 37.2725 377.02 36.8083 377.02 36.2842Z" fill="white"/>
</svg>
