<svg  viewBox="0 0 350 206" fill="none" xmlns="http://www.w3.org/2000/svg">
<line x1="3.5" y1="7.5" x2="3.5" y2="67.5" stroke="white" stroke-width="7" stroke-linecap="round"/>
<path d="M67.8789 47.7617H68.3711V50.457H68.1719C67.2812 50.457 66.4883 50.5898 65.793 50.8555C65.0977 51.1211 64.5078 51.5 64.0234 51.9922C63.5469 52.4766 63.1797 53.0625 62.9219 53.75C62.6719 54.4375 62.5469 55.207 62.5469 56.0586V58.8945C62.5469 59.5039 62.6055 60.043 62.7227 60.5117C62.8477 60.9727 63.0234 61.3594 63.25 61.6719C63.4844 61.9766 63.7578 62.207 64.0703 62.3633C64.3828 62.5117 64.7344 62.5859 65.125 62.5859C65.4922 62.5859 65.8242 62.5078 66.1211 62.3516C66.4258 62.1953 66.6836 61.9766 66.8945 61.6953C67.1133 61.4062 67.2773 61.0703 67.3867 60.6875C67.5039 60.2969 67.5625 59.8711 67.5625 59.4102C67.5625 58.9492 67.5039 58.5234 67.3867 58.1328C67.2773 57.7422 67.1133 57.4062 66.8945 57.125C66.6758 56.8359 66.4102 56.6133 66.0977 56.457C65.7852 56.3008 65.4336 56.2227 65.043 56.2227C64.5117 56.2227 64.043 56.3477 63.6367 56.5977C63.2383 56.8398 62.9258 57.1523 62.6992 57.5352C62.4727 57.918 62.3516 58.3203 62.3359 58.7422L61.3164 58.0859C61.3398 57.4844 61.4648 56.9141 61.6914 56.375C61.9258 55.8359 62.2461 55.3594 62.6523 54.9453C63.0664 54.5234 63.5625 54.1953 64.1406 53.9609C64.7188 53.7188 65.3711 53.5977 66.0977 53.5977C66.8945 53.5977 67.5938 53.75 68.1953 54.0547C68.8047 54.3594 69.3125 54.7773 69.7188 55.3086C70.125 55.8398 70.4297 56.4531 70.6328 57.1484C70.8359 57.8438 70.9375 58.5859 70.9375 59.375C70.9375 60.2031 70.8008 60.9727 70.5273 61.6836C70.2617 62.3945 69.875 63.0156 69.3672 63.5469C68.8672 64.0781 68.2656 64.4922 67.5625 64.7891C66.8594 65.0859 66.0703 65.2344 65.1953 65.2344C64.2891 65.2344 63.4648 65.0703 62.7227 64.7422C61.9883 64.4062 61.3555 63.9375 60.8242 63.3359C60.293 62.7344 59.8828 62.0195 59.5938 61.1914C59.3125 60.3633 59.1719 59.457 59.1719 58.4727V57.1602C59.1719 55.7852 59.3711 54.5273 59.7695 53.3867C60.1758 52.2383 60.7578 51.2461 61.5156 50.4102C62.2734 49.5664 63.1875 48.9141 64.2578 48.4531C65.3281 47.9922 66.5352 47.7617 67.8789 47.7617ZM73.2227 63.3711C73.2227 62.8711 73.3945 62.4531 73.7383 62.1172C74.0898 61.7812 74.5547 61.6133 75.1328 61.6133C75.7109 61.6133 76.1719 61.7812 76.5156 62.1172C76.8672 62.4531 77.043 62.8711 77.043 63.3711C77.043 63.8711 76.8672 64.2891 76.5156 64.625C76.1719 64.9609 75.7109 65.1289 75.1328 65.1289C74.5547 65.1289 74.0898 64.9609 73.7383 64.625C73.3945 64.2891 73.2227 63.8711 73.2227 63.3711ZM73.2227 53.7031C73.2227 53.2031 73.3945 52.7852 73.7383 52.4492C74.0898 52.1133 74.5547 51.9453 75.1328 51.9453C75.7109 51.9453 76.1719 52.1133 76.5156 52.4492C76.8672 52.7852 77.043 53.2031 77.043 53.7031C77.043 54.2031 76.8672 54.6211 76.5156 54.957C76.1719 55.293 75.7109 55.4609 75.1328 55.4609C74.5547 55.4609 74.0898 55.293 73.7383 54.957C73.3945 54.6211 73.2227 54.2031 73.2227 53.7031ZM91.2109 54.9688V57.9219C91.2109 59.2031 91.0742 60.3086 90.8008 61.2383C90.5273 62.1602 90.1328 62.918 89.6172 63.5117C89.1094 64.0977 88.5039 64.5312 87.8008 64.8125C87.0977 65.0938 86.3164 65.2344 85.457 65.2344C84.7695 65.2344 84.1289 65.1484 83.5352 64.9766C82.9414 64.7969 82.4062 64.5195 81.9297 64.1445C81.4609 63.7695 81.0547 63.2969 80.7109 62.7266C80.375 62.1484 80.1172 61.4609 79.9375 60.6641C79.7578 59.8672 79.668 58.9531 79.668 57.9219V54.9688C79.668 53.6875 79.8047 52.5898 80.0781 51.6758C80.3594 50.7539 80.7539 50 81.2617 49.4141C81.7773 48.8281 82.3867 48.3984 83.0898 48.125C83.793 47.8438 84.5742 47.7031 85.4336 47.7031C86.1211 47.7031 86.7578 47.793 87.3438 47.9727C87.9375 48.1445 88.4727 48.4141 88.9492 48.7812C89.4258 49.1484 89.832 49.6211 90.168 50.1992C90.5039 50.7695 90.7617 51.4531 90.9414 52.25C91.1211 53.0391 91.2109 53.9453 91.2109 54.9688ZM87.8242 58.3672V54.5117C87.8242 53.8945 87.7891 53.3555 87.7188 52.8945C87.6562 52.4336 87.5586 52.043 87.4258 51.7227C87.293 51.3945 87.1289 51.1289 86.9336 50.9258C86.7383 50.7227 86.5156 50.5742 86.2656 50.4805C86.0156 50.3867 85.7383 50.3398 85.4336 50.3398C85.0508 50.3398 84.7109 50.4141 84.4141 50.5625C84.125 50.7109 83.8789 50.9492 83.6758 51.2773C83.4727 51.5977 83.3164 52.0273 83.207 52.5664C83.1055 53.0977 83.0547 53.7461 83.0547 54.5117V58.3672C83.0547 58.9844 83.0859 59.5273 83.1484 59.9961C83.2188 60.4648 83.3203 60.8672 83.4531 61.2031C83.5938 61.5312 83.7578 61.8008 83.9453 62.0117C84.1406 62.2148 84.3633 62.3633 84.6133 62.457C84.8711 62.5508 85.1523 62.5977 85.457 62.5977C85.832 62.5977 86.1641 62.5234 86.4531 62.375C86.75 62.2188 87 61.9766 87.2031 61.6484C87.4141 61.3125 87.5703 60.875 87.6719 60.3359C87.7734 59.7969 87.8242 59.1406 87.8242 58.3672ZM104.992 54.9688V57.9219C104.992 59.2031 104.855 60.3086 104.582 61.2383C104.309 62.1602 103.914 62.918 103.398 63.5117C102.891 64.0977 102.285 64.5312 101.582 64.8125C100.879 65.0938 100.098 65.2344 99.2383 65.2344C98.5508 65.2344 97.9102 65.1484 97.3164 64.9766C96.7227 64.7969 96.1875 64.5195 95.7109 64.1445C95.2422 63.7695 94.8359 63.2969 94.4922 62.7266C94.1562 62.1484 93.8984 61.4609 93.7188 60.6641C93.5391 59.8672 93.4492 58.9531 93.4492 57.9219V54.9688C93.4492 53.6875 93.5859 52.5898 93.8594 51.6758C94.1406 50.7539 94.5352 50 95.043 49.4141C95.5586 48.8281 96.168 48.3984 96.8711 48.125C97.5742 47.8438 98.3555 47.7031 99.2148 47.7031C99.9023 47.7031 100.539 47.793 101.125 47.9727C101.719 48.1445 102.254 48.4141 102.73 48.7812C103.207 49.1484 103.613 49.6211 103.949 50.1992C104.285 50.7695 104.543 51.4531 104.723 52.25C104.902 53.0391 104.992 53.9453 104.992 54.9688ZM101.605 58.3672V54.5117C101.605 53.8945 101.57 53.3555 101.5 52.8945C101.438 52.4336 101.34 52.043 101.207 51.7227C101.074 51.3945 100.91 51.1289 100.715 50.9258C100.52 50.7227 100.297 50.5742 100.047 50.4805C99.7969 50.3867 99.5195 50.3398 99.2148 50.3398C98.832 50.3398 98.4922 50.4141 98.1953 50.5625C97.9062 50.7109 97.6602 50.9492 97.457 51.2773C97.2539 51.5977 97.0977 52.0273 96.9883 52.5664C96.8867 53.0977 96.8359 53.7461 96.8359 54.5117V58.3672C96.8359 58.9844 96.8672 59.5273 96.9297 59.9961C97 60.4648 97.1016 60.8672 97.2344 61.2031C97.375 61.5312 97.5391 61.8008 97.7266 62.0117C97.9219 62.2148 98.1445 62.3633 98.3945 62.457C98.6523 62.5508 98.9336 62.5977 99.2383 62.5977C99.6133 62.5977 99.9453 62.5234 100.234 62.375C100.531 62.2188 100.781 61.9766 100.984 61.6484C101.195 61.3125 101.352 60.875 101.453 60.3359C101.555 59.7969 101.605 59.1406 101.605 58.3672ZM120.25 62.1406V56.4922C120.25 56.0859 120.184 55.7383 120.051 55.4492C119.918 55.1523 119.711 54.9219 119.43 54.7578C119.156 54.5938 118.801 54.5117 118.363 54.5117C117.988 54.5117 117.664 54.5781 117.391 54.7109C117.117 54.8359 116.906 55.0195 116.758 55.2617C116.609 55.4961 116.535 55.7734 116.535 56.0938H113.16C113.16 55.5547 113.285 55.043 113.535 54.5586C113.785 54.0742 114.148 53.6484 114.625 53.2812C115.102 52.9062 115.668 52.6133 116.324 52.4023C116.988 52.1914 117.73 52.0859 118.551 52.0859C119.535 52.0859 120.41 52.25 121.176 52.5781C121.941 52.9062 122.543 53.3984 122.98 54.0547C123.426 54.7109 123.648 55.5312 123.648 56.5156V61.9414C123.648 62.6367 123.691 63.207 123.777 63.6523C123.863 64.0898 123.988 64.4727 124.152 64.8008V65H120.742C120.578 64.6562 120.453 64.2266 120.367 63.7109C120.289 63.1875 120.25 62.6641 120.25 62.1406ZM120.695 57.2773L120.719 59.1875H118.832C118.387 59.1875 118 59.2383 117.672 59.3398C117.344 59.4414 117.074 59.5859 116.863 59.7734C116.652 59.9531 116.496 60.1641 116.395 60.4062C116.301 60.6484 116.254 60.9141 116.254 61.2031C116.254 61.4922 116.32 61.7539 116.453 61.9883C116.586 62.2148 116.777 62.3945 117.027 62.5273C117.277 62.6523 117.57 62.7148 117.906 62.7148C118.414 62.7148 118.855 62.6133 119.23 62.4102C119.605 62.207 119.895 61.957 120.098 61.6602C120.309 61.3633 120.418 61.082 120.426 60.8164L121.316 62.2461C121.191 62.5664 121.02 62.8984 120.801 63.2422C120.59 63.5859 120.32 63.9102 119.992 64.2148C119.664 64.5117 119.27 64.7578 118.809 64.9531C118.348 65.1406 117.801 65.2344 117.168 65.2344C116.363 65.2344 115.633 65.0742 114.977 64.7539C114.328 64.4258 113.812 63.9766 113.43 63.4062C113.055 62.8281 112.867 62.1719 112.867 61.4375C112.867 60.7734 112.992 60.1836 113.242 59.668C113.492 59.1523 113.859 58.7188 114.344 58.3672C114.836 58.0078 115.449 57.7383 116.184 57.5586C116.918 57.3711 117.77 57.2773 118.738 57.2773H120.695ZM129.625 54.9453V65H126.238V52.3203H129.414L129.625 54.9453ZM129.156 58.2148H128.219C128.219 57.332 128.324 56.5195 128.535 55.7773C128.754 55.0273 129.07 54.3789 129.484 53.832C129.906 53.2773 130.426 52.8477 131.043 52.543C131.66 52.2383 132.375 52.0859 133.188 52.0859C133.75 52.0859 134.266 52.1719 134.734 52.3438C135.203 52.5078 135.605 52.7695 135.941 53.1289C136.285 53.4805 136.551 53.9414 136.738 54.5117C136.926 55.0742 137.02 55.75 137.02 56.5391V65H133.645V56.9141C133.645 56.3359 133.566 55.8906 133.41 55.5781C133.254 55.2656 133.031 55.0469 132.742 54.9219C132.461 54.7969 132.121 54.7344 131.723 54.7344C131.285 54.7344 130.902 54.8242 130.574 55.0039C130.254 55.1836 129.988 55.4336 129.777 55.7539C129.566 56.0664 129.41 56.4336 129.309 56.8555C129.207 57.2773 129.156 57.7305 129.156 58.2148ZM136.703 57.8281L135.496 57.9805C135.496 57.1523 135.598 56.3828 135.801 55.6719C136.012 54.9609 136.32 54.3359 136.727 53.7969C137.141 53.2578 137.652 52.8398 138.262 52.543C138.871 52.2383 139.574 52.0859 140.371 52.0859C140.98 52.0859 141.535 52.1758 142.035 52.3555C142.535 52.5273 142.961 52.8047 143.312 53.1875C143.672 53.5625 143.945 54.0547 144.133 54.6641C144.328 55.2734 144.426 56.0195 144.426 56.9023V65H141.039V56.9023C141.039 56.3164 140.961 55.8711 140.805 55.5664C140.656 55.2539 140.438 55.0391 140.148 54.9219C139.867 54.7969 139.531 54.7344 139.141 54.7344C138.734 54.7344 138.379 54.8164 138.074 54.9805C137.77 55.1367 137.516 55.3555 137.312 55.6367C137.109 55.918 136.957 56.2461 136.855 56.6211C136.754 56.9883 136.703 57.3906 136.703 57.8281ZM159.227 52.3203V54.7109H151.844V52.3203H159.227ZM153.672 49.1914H157.047V61.1797C157.047 61.5469 157.094 61.8281 157.188 62.0234C157.289 62.2188 157.438 62.3555 157.633 62.4336C157.828 62.5039 158.074 62.5391 158.371 62.5391C158.582 62.5391 158.77 62.5312 158.934 62.5156C159.105 62.4922 159.25 62.4688 159.367 62.4453L159.379 64.9297C159.09 65.0234 158.777 65.0977 158.441 65.1523C158.105 65.207 157.734 65.2344 157.328 65.2344C156.586 65.2344 155.938 65.1133 155.383 64.8711C154.836 64.6211 154.414 64.2227 154.117 63.6758C153.82 63.1289 153.672 62.4102 153.672 61.5195V49.1914ZM160.305 58.7891V58.543C160.305 57.6133 160.438 56.7578 160.703 55.9766C160.969 55.1875 161.355 54.5039 161.863 53.9258C162.371 53.3477 162.996 52.8984 163.738 52.5781C164.48 52.25 165.332 52.0859 166.293 52.0859C167.254 52.0859 168.109 52.25 168.859 52.5781C169.609 52.8984 170.238 53.3477 170.746 53.9258C171.262 54.5039 171.652 55.1875 171.918 55.9766C172.184 56.7578 172.316 57.6133 172.316 58.543V58.7891C172.316 59.7109 172.184 60.5664 171.918 61.3555C171.652 62.1367 171.262 62.8203 170.746 63.4062C170.238 63.9844 169.613 64.4336 168.871 64.7539C168.129 65.0742 167.277 65.2344 166.316 65.2344C165.355 65.2344 164.5 65.0742 163.75 64.7539C163.008 64.4336 162.379 63.9844 161.863 63.4062C161.355 62.8203 160.969 62.1367 160.703 61.3555C160.438 60.5664 160.305 59.7109 160.305 58.7891ZM163.68 58.543V58.7891C163.68 59.3203 163.727 59.8164 163.82 60.2773C163.914 60.7383 164.062 61.1445 164.266 61.4961C164.477 61.8398 164.75 62.1094 165.086 62.3047C165.422 62.5 165.832 62.5977 166.316 62.5977C166.785 62.5977 167.188 62.5 167.523 62.3047C167.859 62.1094 168.129 61.8398 168.332 61.4961C168.535 61.1445 168.684 60.7383 168.777 60.2773C168.879 59.8164 168.93 59.3203 168.93 58.7891V58.543C168.93 58.0273 168.879 57.543 168.777 57.0898C168.684 56.6289 168.531 56.2227 168.32 55.8711C168.117 55.5117 167.848 55.2305 167.512 55.0273C167.176 54.8242 166.77 54.7227 166.293 54.7227C165.816 54.7227 165.41 54.8242 165.074 55.0273C164.746 55.2305 164.477 55.5117 164.266 55.8711C164.062 56.2227 163.914 56.6289 163.82 57.0898C163.727 57.543 163.68 58.0273 163.68 58.543ZM191.723 60.3242C191.723 61.3945 191.473 62.2969 190.973 63.0312C190.473 63.7578 189.785 64.3086 188.91 64.6836C188.043 65.0508 187.059 65.2344 185.957 65.2344C184.855 65.2344 183.867 65.0508 182.992 64.6836C182.117 64.3086 181.426 63.7578 180.918 63.0312C180.41 62.2969 180.156 61.3945 180.156 60.3242C180.156 59.6055 180.301 58.957 180.59 58.3789C180.879 57.793 181.281 57.293 181.797 56.8789C182.32 56.457 182.934 56.1367 183.637 55.918C184.34 55.6914 185.105 55.5781 185.934 55.5781C187.043 55.5781 188.035 55.7734 188.91 56.1641C189.785 56.5547 190.473 57.1055 190.973 57.8164C191.473 58.5273 191.723 59.3633 191.723 60.3242ZM188.324 60.1016C188.324 59.5781 188.223 59.1289 188.02 58.7539C187.824 58.3711 187.547 58.0781 187.188 57.875C186.828 57.6719 186.41 57.5703 185.934 57.5703C185.457 57.5703 185.039 57.6719 184.68 57.875C184.32 58.0781 184.039 58.3711 183.836 58.7539C183.641 59.1289 183.543 59.5781 183.543 60.1016C183.543 60.6172 183.641 61.0625 183.836 61.4375C184.039 61.8125 184.32 62.1016 184.68 62.3047C185.047 62.5 185.473 62.5977 185.957 62.5977C186.441 62.5977 186.859 62.5 187.211 62.3047C187.57 62.1016 187.844 61.8125 188.031 61.4375C188.227 61.0625 188.324 60.6172 188.324 60.1016ZM191.359 52.4609C191.359 53.3281 191.129 54.0977 190.668 54.7695C190.207 55.4336 189.566 55.9531 188.746 56.3281C187.934 56.7031 187.004 56.8906 185.957 56.8906C184.902 56.8906 183.965 56.7031 183.145 56.3281C182.324 55.9531 181.684 55.4336 181.223 54.7695C180.762 54.0977 180.531 53.3281 180.531 52.4609C180.531 51.4297 180.762 50.5625 181.223 49.8594C181.691 49.1484 182.332 48.6094 183.145 48.2422C183.965 47.875 184.895 47.6914 185.934 47.6914C186.988 47.6914 187.922 47.875 188.734 48.2422C189.555 48.6094 190.195 49.1484 190.656 49.8594C191.125 50.5625 191.359 51.4297 191.359 52.4609ZM187.984 52.6133C187.984 52.1523 187.902 51.7539 187.738 51.418C187.574 51.0742 187.34 50.8086 187.035 50.6211C186.738 50.4336 186.371 50.3398 185.934 50.3398C185.512 50.3398 185.148 50.4297 184.844 50.6094C184.547 50.7891 184.316 51.0508 184.152 51.3945C183.996 51.7305 183.918 52.1367 183.918 52.6133C183.918 53.0742 183.996 53.4805 184.152 53.832C184.316 54.1758 184.551 54.4453 184.855 54.6406C185.16 54.8359 185.527 54.9336 185.957 54.9336C186.387 54.9336 186.75 54.8359 187.047 54.6406C187.352 54.4453 187.582 54.1758 187.738 53.832C187.902 53.4805 187.984 53.0742 187.984 52.6133ZM194.277 63.3711C194.277 62.8711 194.449 62.4531 194.793 62.1172C195.145 61.7812 195.609 61.6133 196.188 61.6133C196.766 61.6133 197.227 61.7812 197.57 62.1172C197.922 62.4531 198.098 62.8711 198.098 63.3711C198.098 63.8711 197.922 64.2891 197.57 64.625C197.227 64.9609 196.766 65.1289 196.188 65.1289C195.609 65.1289 195.145 64.9609 194.793 64.625C194.449 64.2891 194.277 63.8711 194.277 63.3711ZM194.277 53.7031C194.277 53.2031 194.449 52.7852 194.793 52.4492C195.145 52.1133 195.609 51.9453 196.188 51.9453C196.766 51.9453 197.227 52.1133 197.57 52.4492C197.922 52.7852 198.098 53.2031 198.098 53.7031C198.098 54.2031 197.922 54.6211 197.57 54.957C197.227 55.293 196.766 55.4609 196.188 55.4609C195.609 55.4609 195.145 55.293 194.793 54.957C194.449 54.6211 194.277 54.2031 194.277 53.7031ZM212.266 54.9688V57.9219C212.266 59.2031 212.129 60.3086 211.855 61.2383C211.582 62.1602 211.188 62.918 210.672 63.5117C210.164 64.0977 209.559 64.5312 208.855 64.8125C208.152 65.0938 207.371 65.2344 206.512 65.2344C205.824 65.2344 205.184 65.1484 204.59 64.9766C203.996 64.7969 203.461 64.5195 202.984 64.1445C202.516 63.7695 202.109 63.2969 201.766 62.7266C201.43 62.1484 201.172 61.4609 200.992 60.6641C200.812 59.8672 200.723 58.9531 200.723 57.9219V54.9688C200.723 53.6875 200.859 52.5898 201.133 51.6758C201.414 50.7539 201.809 50 202.316 49.4141C202.832 48.8281 203.441 48.3984 204.145 48.125C204.848 47.8438 205.629 47.7031 206.488 47.7031C207.176 47.7031 207.812 47.793 208.398 47.9727C208.992 48.1445 209.527 48.4141 210.004 48.7812C210.48 49.1484 210.887 49.6211 211.223 50.1992C211.559 50.7695 211.816 51.4531 211.996 52.25C212.176 53.0391 212.266 53.9453 212.266 54.9688ZM208.879 58.3672V54.5117C208.879 53.8945 208.844 53.3555 208.773 52.8945C208.711 52.4336 208.613 52.043 208.48 51.7227C208.348 51.3945 208.184 51.1289 207.988 50.9258C207.793 50.7227 207.57 50.5742 207.32 50.4805C207.07 50.3867 206.793 50.3398 206.488 50.3398C206.105 50.3398 205.766 50.4141 205.469 50.5625C205.18 50.7109 204.934 50.9492 204.73 51.2773C204.527 51.5977 204.371 52.0273 204.262 52.5664C204.16 53.0977 204.109 53.7461 204.109 54.5117V58.3672C204.109 58.9844 204.141 59.5273 204.203 59.9961C204.273 60.4648 204.375 60.8672 204.508 61.2031C204.648 61.5312 204.812 61.8008 205 62.0117C205.195 62.2148 205.418 62.3633 205.668 62.457C205.926 62.5508 206.207 62.5977 206.512 62.5977C206.887 62.5977 207.219 62.5234 207.508 62.375C207.805 62.2188 208.055 61.9766 208.258 61.6484C208.469 61.3125 208.625 60.875 208.727 60.3359C208.828 59.7969 208.879 59.1406 208.879 58.3672ZM226.047 54.9688V57.9219C226.047 59.2031 225.91 60.3086 225.637 61.2383C225.363 62.1602 224.969 62.918 224.453 63.5117C223.945 64.0977 223.34 64.5312 222.637 64.8125C221.934 65.0938 221.152 65.2344 220.293 65.2344C219.605 65.2344 218.965 65.1484 218.371 64.9766C217.777 64.7969 217.242 64.5195 216.766 64.1445C216.297 63.7695 215.891 63.2969 215.547 62.7266C215.211 62.1484 214.953 61.4609 214.773 60.6641C214.594 59.8672 214.504 58.9531 214.504 57.9219V54.9688C214.504 53.6875 214.641 52.5898 214.914 51.6758C215.195 50.7539 215.59 50 216.098 49.4141C216.613 48.8281 217.223 48.3984 217.926 48.125C218.629 47.8438 219.41 47.7031 220.27 47.7031C220.957 47.7031 221.594 47.793 222.18 47.9727C222.773 48.1445 223.309 48.4141 223.785 48.7812C224.262 49.1484 224.668 49.6211 225.004 50.1992C225.34 50.7695 225.598 51.4531 225.777 52.25C225.957 53.0391 226.047 53.9453 226.047 54.9688ZM222.66 58.3672V54.5117C222.66 53.8945 222.625 53.3555 222.555 52.8945C222.492 52.4336 222.395 52.043 222.262 51.7227C222.129 51.3945 221.965 51.1289 221.77 50.9258C221.574 50.7227 221.352 50.5742 221.102 50.4805C220.852 50.3867 220.574 50.3398 220.27 50.3398C219.887 50.3398 219.547 50.4141 219.25 50.5625C218.961 50.7109 218.715 50.9492 218.512 51.2773C218.309 51.5977 218.152 52.0273 218.043 52.5664C217.941 53.0977 217.891 53.7461 217.891 54.5117V58.3672C217.891 58.9844 217.922 59.5273 217.984 59.9961C218.055 60.4648 218.156 60.8672 218.289 61.2031C218.43 61.5312 218.594 61.8008 218.781 62.0117C218.977 62.2148 219.199 62.3633 219.449 62.457C219.707 62.5508 219.988 62.5977 220.293 62.5977C220.668 62.5977 221 62.5234 221.289 62.375C221.586 62.2188 221.836 61.9766 222.039 61.6484C222.25 61.3125 222.406 60.875 222.508 60.3359C222.609 59.7969 222.66 59.1406 222.66 58.3672ZM241.305 62.1406V56.4922C241.305 56.0859 241.238 55.7383 241.105 55.4492C240.973 55.1523 240.766 54.9219 240.484 54.7578C240.211 54.5938 239.855 54.5117 239.418 54.5117C239.043 54.5117 238.719 54.5781 238.445 54.7109C238.172 54.8359 237.961 55.0195 237.812 55.2617C237.664 55.4961 237.59 55.7734 237.59 56.0938H234.215C234.215 55.5547 234.34 55.043 234.59 54.5586C234.84 54.0742 235.203 53.6484 235.68 53.2812C236.156 52.9062 236.723 52.6133 237.379 52.4023C238.043 52.1914 238.785 52.0859 239.605 52.0859C240.59 52.0859 241.465 52.25 242.23 52.5781C242.996 52.9062 243.598 53.3984 244.035 54.0547C244.48 54.7109 244.703 55.5312 244.703 56.5156V61.9414C244.703 62.6367 244.746 63.207 244.832 63.6523C244.918 64.0898 245.043 64.4727 245.207 64.8008V65H241.797C241.633 64.6562 241.508 64.2266 241.422 63.7109C241.344 63.1875 241.305 62.6641 241.305 62.1406ZM241.75 57.2773L241.773 59.1875H239.887C239.441 59.1875 239.055 59.2383 238.727 59.3398C238.398 59.4414 238.129 59.5859 237.918 59.7734C237.707 59.9531 237.551 60.1641 237.449 60.4062C237.355 60.6484 237.309 60.9141 237.309 61.2031C237.309 61.4922 237.375 61.7539 237.508 61.9883C237.641 62.2148 237.832 62.3945 238.082 62.5273C238.332 62.6523 238.625 62.7148 238.961 62.7148C239.469 62.7148 239.91 62.6133 240.285 62.4102C240.66 62.207 240.949 61.957 241.152 61.6602C241.363 61.3633 241.473 61.082 241.48 60.8164L242.371 62.2461C242.246 62.5664 242.074 62.8984 241.855 63.2422C241.645 63.5859 241.375 63.9102 241.047 64.2148C240.719 64.5117 240.324 64.7578 239.863 64.9531C239.402 65.1406 238.855 65.2344 238.223 65.2344C237.418 65.2344 236.688 65.0742 236.031 64.7539C235.383 64.4258 234.867 63.9766 234.484 63.4062C234.109 62.8281 233.922 62.1719 233.922 61.4375C233.922 60.7734 234.047 60.1836 234.297 59.668C234.547 59.1523 234.914 58.7188 235.398 58.3672C235.891 58.0078 236.504 57.7383 237.238 57.5586C237.973 57.3711 238.824 57.2773 239.793 57.2773H241.75ZM250.68 54.9453V65H247.293V52.3203H250.469L250.68 54.9453ZM250.211 58.2148H249.273C249.273 57.332 249.379 56.5195 249.59 55.7773C249.809 55.0273 250.125 54.3789 250.539 53.832C250.961 53.2773 251.48 52.8477 252.098 52.543C252.715 52.2383 253.43 52.0859 254.242 52.0859C254.805 52.0859 255.32 52.1719 255.789 52.3438C256.258 52.5078 256.66 52.7695 256.996 53.1289C257.34 53.4805 257.605 53.9414 257.793 54.5117C257.98 55.0742 258.074 55.75 258.074 56.5391V65H254.699V56.9141C254.699 56.3359 254.621 55.8906 254.465 55.5781C254.309 55.2656 254.086 55.0469 253.797 54.9219C253.516 54.7969 253.176 54.7344 252.777 54.7344C252.34 54.7344 251.957 54.8242 251.629 55.0039C251.309 55.1836 251.043 55.4336 250.832 55.7539C250.621 56.0664 250.465 56.4336 250.363 56.8555C250.262 57.2773 250.211 57.7305 250.211 58.2148ZM257.758 57.8281L256.551 57.9805C256.551 57.1523 256.652 56.3828 256.855 55.6719C257.066 54.9609 257.375 54.3359 257.781 53.7969C258.195 53.2578 258.707 52.8398 259.316 52.543C259.926 52.2383 260.629 52.0859 261.426 52.0859C262.035 52.0859 262.59 52.1758 263.09 52.3555C263.59 52.5273 264.016 52.8047 264.367 53.1875C264.727 53.5625 265 54.0547 265.188 54.6641C265.383 55.2734 265.48 56.0195 265.48 56.9023V65H262.094V56.9023C262.094 56.3164 262.016 55.8711 261.859 55.5664C261.711 55.2539 261.492 55.0391 261.203 54.9219C260.922 54.7969 260.586 54.7344 260.195 54.7344C259.789 54.7344 259.434 54.8164 259.129 54.9805C258.824 55.1367 258.57 55.3555 258.367 55.6367C258.164 55.918 258.012 56.2461 257.91 56.6211C257.809 56.9883 257.758 57.3906 257.758 57.8281Z" fill="white"/>
<path d="M68.4062 17.5352C68.4062 17.2305 68.3594 16.957 68.2656 16.7148C68.1797 16.4648 68.0156 16.2383 67.7734 16.0352C67.5312 15.8242 67.1914 15.6172 66.7539 15.4141C66.3164 15.2109 65.75 15 65.0547 14.7812C64.2812 14.5312 63.5469 14.25 62.8516 13.9375C62.1641 13.625 61.5547 13.2617 61.0234 12.8477C60.5 12.4258 60.0859 11.9375 59.7812 11.3828C59.4844 10.8281 59.3359 10.1836 59.3359 9.44922C59.3359 8.73828 59.4922 8.09375 59.8047 7.51562C60.1172 6.92969 60.5547 6.42969 61.1172 6.01562C61.6797 5.59375 62.3438 5.26953 63.1094 5.04297C63.8828 4.81641 64.7305 4.70312 65.6523 4.70312C66.9102 4.70312 68.0078 4.92969 68.9453 5.38281C69.8828 5.83594 70.6094 6.45703 71.125 7.24609C71.6484 8.03516 71.9102 8.9375 71.9102 9.95312H68.418C68.418 9.45312 68.3125 9.01562 68.1016 8.64062C67.8984 8.25781 67.5859 7.95703 67.1641 7.73828C66.75 7.51953 66.2266 7.41016 65.5938 7.41016C64.9844 7.41016 64.4766 7.50391 64.0703 7.69141C63.6641 7.87109 63.3594 8.11719 63.1562 8.42969C62.9531 8.73438 62.8516 9.07812 62.8516 9.46094C62.8516 9.75 62.9219 10.0117 63.0625 10.2461C63.2109 10.4805 63.4297 10.6992 63.7188 10.9023C64.0078 11.1055 64.3633 11.2969 64.7852 11.4766C65.207 11.6562 65.6953 11.832 66.25 12.0039C67.1797 12.2852 67.9961 12.6016 68.6992 12.9531C69.4102 13.3047 70.0039 13.6992 70.4805 14.1367C70.957 14.5742 71.3164 15.0703 71.5586 15.625C71.8008 16.1797 71.9219 16.8086 71.9219 17.5117C71.9219 18.2539 71.7773 18.918 71.4883 19.5039C71.1992 20.0898 70.7812 20.5859 70.2344 20.9922C69.6875 21.3984 69.0352 21.707 68.2773 21.918C67.5195 22.1289 66.6719 22.2344 65.7344 22.2344C64.8906 22.2344 64.0586 22.125 63.2383 21.9062C62.418 21.6797 61.6719 21.3398 61 20.8867C60.3359 20.4336 59.8047 19.8555 59.4062 19.1523C59.0078 18.4492 58.8086 17.6172 58.8086 16.6562H62.3359C62.3359 17.1875 62.418 17.6367 62.582 18.0039C62.7461 18.3711 62.9766 18.668 63.2734 18.8945C63.5781 19.1211 63.9375 19.2852 64.3516 19.3867C64.7734 19.4883 65.2344 19.5391 65.7344 19.5391C66.3438 19.5391 66.8438 19.4531 67.2344 19.2812C67.6328 19.1094 67.9258 18.8711 68.1133 18.5664C68.3086 18.2617 68.4062 17.918 68.4062 17.5352ZM81.6016 18.9648V9.32031H84.9766V22H81.8008L81.6016 18.9648ZM81.9766 16.3633L82.9727 16.3398C82.9727 17.1836 82.875 17.9688 82.6797 18.6953C82.4844 19.4141 82.1914 20.0391 81.8008 20.5703C81.4102 21.0938 80.918 21.5039 80.3242 21.8008C79.7305 22.0898 79.0312 22.2344 78.2266 22.2344C77.6094 22.2344 77.0391 22.1484 76.5156 21.9766C76 21.7969 75.5547 21.5195 75.1797 21.1445C74.8125 20.7617 74.5234 20.2734 74.3125 19.6797C74.1094 19.0781 74.0078 18.3555 74.0078 17.5117V9.32031H77.3828V17.5352C77.3828 17.9102 77.4258 18.2266 77.5117 18.4844C77.6055 18.7422 77.7344 18.9531 77.8984 19.1172C78.0625 19.2812 78.2539 19.3984 78.4727 19.4688C78.6992 19.5391 78.9492 19.5742 79.2227 19.5742C79.918 19.5742 80.4648 19.4336 80.8633 19.1523C81.2695 18.8711 81.5547 18.4883 81.7188 18.0039C81.8906 17.5117 81.9766 16.9648 81.9766 16.3633ZM90.8594 12.0273V22H87.4844V9.32031H90.6484L90.8594 12.0273ZM90.3672 15.2148H89.4531C89.4531 14.2773 89.5742 13.4336 89.8164 12.6836C90.0586 11.9258 90.3984 11.2812 90.8359 10.75C91.2734 10.2109 91.793 9.80078 92.3945 9.51953C93.0039 9.23047 93.6836 9.08594 94.4336 9.08594C95.0273 9.08594 95.5703 9.17188 96.0625 9.34375C96.5547 9.51562 96.9766 9.78906 97.3281 10.1641C97.6875 10.5391 97.9609 11.0352 98.1484 11.6523C98.3438 12.2695 98.4414 13.0234 98.4414 13.9141V22H95.043V13.9023C95.043 13.3398 94.9648 12.9023 94.8086 12.5898C94.6523 12.2773 94.4219 12.0586 94.1172 11.9336C93.8203 11.8008 93.4531 11.7344 93.0156 11.7344C92.5625 11.7344 92.168 11.8242 91.832 12.0039C91.5039 12.1836 91.2305 12.4336 91.0117 12.7539C90.8008 13.0664 90.6406 13.4336 90.5312 13.8555C90.4219 14.2773 90.3672 14.7305 90.3672 15.2148ZM108.496 19.2344V4H111.895V22H108.836L108.496 19.2344ZM100.48 15.8125V15.5664C100.48 14.5977 100.59 13.7188 100.809 12.9297C101.027 12.1328 101.348 11.4492 101.77 10.8789C102.191 10.3086 102.711 9.86719 103.328 9.55469C103.945 9.24219 104.648 9.08594 105.438 9.08594C106.18 9.08594 106.828 9.24219 107.383 9.55469C107.945 9.86719 108.422 10.3125 108.812 10.8906C109.211 11.4609 109.531 12.1367 109.773 12.918C110.016 13.6914 110.191 14.5391 110.301 15.4609V16C110.191 16.8828 110.016 17.7031 109.773 18.4609C109.531 19.2188 109.211 19.8828 108.812 20.4531C108.422 21.0156 107.945 21.4531 107.383 21.7656C106.82 22.0781 106.164 22.2344 105.414 22.2344C104.625 22.2344 103.922 22.0742 103.305 21.7539C102.695 21.4336 102.18 20.9844 101.758 20.4062C101.344 19.8281 101.027 19.1484 100.809 18.3672C100.59 17.5859 100.48 16.7344 100.48 15.8125ZM103.855 15.5664V15.8125C103.855 16.3359 103.895 16.8242 103.973 17.2773C104.059 17.7305 104.195 18.1328 104.383 18.4844C104.578 18.8281 104.828 19.0977 105.133 19.293C105.445 19.4805 105.824 19.5742 106.27 19.5742C106.848 19.5742 107.324 19.4453 107.699 19.1875C108.074 18.9219 108.359 18.5586 108.555 18.0977C108.758 17.6367 108.875 17.1055 108.906 16.5039V14.9688C108.883 14.4766 108.812 14.0352 108.695 13.6445C108.586 13.2461 108.422 12.9062 108.203 12.625C107.992 12.3438 107.727 12.125 107.406 11.9688C107.094 11.8125 106.723 11.7344 106.293 11.7344C105.855 11.7344 105.48 11.8359 105.168 12.0391C104.855 12.2344 104.602 12.5039 104.406 12.8477C104.219 13.1914 104.078 13.5977 103.984 14.0664C103.898 14.5273 103.855 15.0273 103.855 15.5664ZM121.375 19.1406V13.4922C121.375 13.0859 121.309 12.7383 121.176 12.4492C121.043 12.1523 120.836 11.9219 120.555 11.7578C120.281 11.5938 119.926 11.5117 119.488 11.5117C119.113 11.5117 118.789 11.5781 118.516 11.7109C118.242 11.8359 118.031 12.0195 117.883 12.2617C117.734 12.4961 117.66 12.7734 117.66 13.0938H114.285C114.285 12.5547 114.41 12.043 114.66 11.5586C114.91 11.0742 115.273 10.6484 115.75 10.2812C116.227 9.90625 116.793 9.61328 117.449 9.40234C118.113 9.19141 118.855 9.08594 119.676 9.08594C120.66 9.08594 121.535 9.25 122.301 9.57812C123.066 9.90625 123.668 10.3984 124.105 11.0547C124.551 11.7109 124.773 12.5312 124.773 13.5156V18.9414C124.773 19.6367 124.816 20.207 124.902 20.6523C124.988 21.0898 125.113 21.4727 125.277 21.8008V22H121.867C121.703 21.6562 121.578 21.2266 121.492 20.7109C121.414 20.1875 121.375 19.6641 121.375 19.1406ZM121.82 14.2773L121.844 16.1875H119.957C119.512 16.1875 119.125 16.2383 118.797 16.3398C118.469 16.4414 118.199 16.5859 117.988 16.7734C117.777 16.9531 117.621 17.1641 117.52 17.4062C117.426 17.6484 117.379 17.9141 117.379 18.2031C117.379 18.4922 117.445 18.7539 117.578 18.9883C117.711 19.2148 117.902 19.3945 118.152 19.5273C118.402 19.6523 118.695 19.7148 119.031 19.7148C119.539 19.7148 119.98 19.6133 120.355 19.4102C120.73 19.207 121.02 18.957 121.223 18.6602C121.434 18.3633 121.543 18.082 121.551 17.8164L122.441 19.2461C122.316 19.5664 122.145 19.8984 121.926 20.2422C121.715 20.5859 121.445 20.9102 121.117 21.2148C120.789 21.5117 120.395 21.7578 119.934 21.9531C119.473 22.1406 118.926 22.2344 118.293 22.2344C117.488 22.2344 116.758 22.0742 116.102 21.7539C115.453 21.4258 114.938 20.9766 114.555 20.4062C114.18 19.8281 113.992 19.1719 113.992 18.4375C113.992 17.7734 114.117 17.1836 114.367 16.668C114.617 16.1523 114.984 15.7188 115.469 15.3672C115.961 15.0078 116.574 14.7383 117.309 14.5586C118.043 14.3711 118.895 14.2773 119.863 14.2773H121.82ZM130.949 20.5703L134.312 9.32031H137.934L132.836 23.9102C132.727 24.2305 132.578 24.5742 132.391 24.9414C132.211 25.3086 131.965 25.6562 131.652 25.9844C131.348 26.3203 130.961 26.5938 130.492 26.8047C130.031 27.0156 129.465 27.1211 128.793 27.1211C128.473 27.1211 128.211 27.1016 128.008 27.0625C127.805 27.0234 127.562 26.9688 127.281 26.8984V24.4258C127.367 24.4258 127.457 24.4258 127.551 24.4258C127.645 24.4336 127.734 24.4375 127.82 24.4375C128.266 24.4375 128.629 24.3867 128.91 24.2852C129.191 24.1836 129.418 24.0273 129.59 23.8164C129.762 23.6133 129.898 23.3477 130 23.0195L130.949 20.5703ZM129.543 9.32031L132.297 18.5078L132.777 22.082L130.48 22.3281L125.922 9.32031H129.543ZM154.352 17.5352C154.352 17.2305 154.305 16.957 154.211 16.7148C154.125 16.4648 153.961 16.2383 153.719 16.0352C153.477 15.8242 153.137 15.6172 152.699 15.4141C152.262 15.2109 151.695 15 151 14.7812C150.227 14.5312 149.492 14.25 148.797 13.9375C148.109 13.625 147.5 13.2617 146.969 12.8477C146.445 12.4258 146.031 11.9375 145.727 11.3828C145.43 10.8281 145.281 10.1836 145.281 9.44922C145.281 8.73828 145.438 8.09375 145.75 7.51562C146.062 6.92969 146.5 6.42969 147.062 6.01562C147.625 5.59375 148.289 5.26953 149.055 5.04297C149.828 4.81641 150.676 4.70312 151.598 4.70312C152.855 4.70312 153.953 4.92969 154.891 5.38281C155.828 5.83594 156.555 6.45703 157.07 7.24609C157.594 8.03516 157.855 8.9375 157.855 9.95312H154.363C154.363 9.45312 154.258 9.01562 154.047 8.64062C153.844 8.25781 153.531 7.95703 153.109 7.73828C152.695 7.51953 152.172 7.41016 151.539 7.41016C150.93 7.41016 150.422 7.50391 150.016 7.69141C149.609 7.87109 149.305 8.11719 149.102 8.42969C148.898 8.73438 148.797 9.07812 148.797 9.46094C148.797 9.75 148.867 10.0117 149.008 10.2461C149.156 10.4805 149.375 10.6992 149.664 10.9023C149.953 11.1055 150.309 11.2969 150.73 11.4766C151.152 11.6562 151.641 11.832 152.195 12.0039C153.125 12.2852 153.941 12.6016 154.645 12.9531C155.355 13.3047 155.949 13.6992 156.426 14.1367C156.902 14.5742 157.262 15.0703 157.504 15.625C157.746 16.1797 157.867 16.8086 157.867 17.5117C157.867 18.2539 157.723 18.918 157.434 19.5039C157.145 20.0898 156.727 20.5859 156.18 20.9922C155.633 21.3984 154.98 21.707 154.223 21.918C153.465 22.1289 152.617 22.2344 151.68 22.2344C150.836 22.2344 150.004 22.125 149.184 21.9062C148.363 21.6797 147.617 21.3398 146.945 20.8867C146.281 20.4336 145.75 19.8555 145.352 19.1523C144.953 18.4492 144.754 17.6172 144.754 16.6562H148.281C148.281 17.1875 148.363 17.6367 148.527 18.0039C148.691 18.3711 148.922 18.668 149.219 18.8945C149.523 19.1211 149.883 19.2852 150.297 19.3867C150.719 19.4883 151.18 19.5391 151.68 19.5391C152.289 19.5391 152.789 19.4531 153.18 19.2812C153.578 19.1094 153.871 18.8711 154.059 18.5664C154.254 18.2617 154.352 17.918 154.352 17.5352ZM165.883 22.2344C164.898 22.2344 164.016 22.0781 163.234 21.7656C162.453 21.4453 161.789 21.0039 161.242 20.4414C160.703 19.8789 160.289 19.2266 160 18.4844C159.711 17.7344 159.566 16.9375 159.566 16.0938V15.625C159.566 14.6641 159.703 13.7852 159.977 12.9883C160.25 12.1914 160.641 11.5 161.148 10.9141C161.664 10.3281 162.289 9.87891 163.023 9.56641C163.758 9.24609 164.586 9.08594 165.508 9.08594C166.406 9.08594 167.203 9.23438 167.898 9.53125C168.594 9.82812 169.176 10.25 169.645 10.7969C170.121 11.3438 170.48 12 170.723 12.7656C170.965 13.5234 171.086 14.3672 171.086 15.2969V16.7031H161.008V14.4531H167.77V14.1953C167.77 13.7266 167.684 13.3086 167.512 12.9414C167.348 12.5664 167.098 12.2695 166.762 12.0508C166.426 11.832 165.996 11.7227 165.473 11.7227C165.027 11.7227 164.645 11.8203 164.324 12.0156C164.004 12.2109 163.742 12.4844 163.539 12.8359C163.344 13.1875 163.195 13.6016 163.094 14.0781C163 14.5469 162.953 15.0625 162.953 15.625V16.0938C162.953 16.6016 163.023 17.0703 163.164 17.5C163.312 17.9297 163.52 18.3008 163.785 18.6133C164.059 18.9258 164.387 19.168 164.77 19.3398C165.16 19.5117 165.602 19.5977 166.094 19.5977C166.703 19.5977 167.27 19.4805 167.793 19.2461C168.324 19.0039 168.781 18.6406 169.164 18.1562L170.805 19.9375C170.539 20.3203 170.176 20.6875 169.715 21.0391C169.262 21.3906 168.715 21.6797 168.074 21.9062C167.434 22.125 166.703 22.2344 165.883 22.2344ZM176.383 12.0859V22H173.008V9.32031H176.184L176.383 12.0859ZM180.203 9.23828L180.145 12.3672C179.98 12.3438 179.781 12.3242 179.547 12.3086C179.32 12.2852 179.113 12.2734 178.926 12.2734C178.449 12.2734 178.035 12.3359 177.684 12.4609C177.34 12.5781 177.051 12.7539 176.816 12.9883C176.59 13.2227 176.418 13.5078 176.301 13.8438C176.191 14.1797 176.129 14.5625 176.113 14.9922L175.434 14.7812C175.434 13.9609 175.516 13.207 175.68 12.5195C175.844 11.8242 176.082 11.2188 176.395 10.7031C176.715 10.1875 177.105 9.78906 177.566 9.50781C178.027 9.22656 178.555 9.08594 179.148 9.08594C179.336 9.08594 179.527 9.10156 179.723 9.13281C179.918 9.15625 180.078 9.19141 180.203 9.23828ZM186.32 19.5391L189.133 9.32031H192.66L188.383 22H186.25L186.32 19.5391ZM184.387 9.32031L187.211 19.5508L187.27 22H185.125L180.848 9.32031H184.387ZM197.734 9.32031V22H194.348V9.32031H197.734ZM194.137 6.01562C194.137 5.52344 194.309 5.11719 194.652 4.79688C194.996 4.47656 195.457 4.31641 196.035 4.31641C196.605 4.31641 197.062 4.47656 197.406 4.79688C197.758 5.11719 197.934 5.52344 197.934 6.01562C197.934 6.50781 197.758 6.91406 197.406 7.23438C197.062 7.55469 196.605 7.71484 196.035 7.71484C195.457 7.71484 194.996 7.55469 194.652 7.23438C194.309 6.91406 194.137 6.50781 194.137 6.01562ZM205.762 19.5977C206.176 19.5977 206.543 19.5195 206.863 19.3633C207.184 19.1992 207.434 18.9727 207.613 18.6836C207.801 18.3867 207.898 18.0391 207.906 17.6406H211.082C211.074 18.5312 210.836 19.3242 210.367 20.0195C209.898 20.707 209.27 21.25 208.48 21.6484C207.691 22.0391 206.809 22.2344 205.832 22.2344C204.848 22.2344 203.988 22.0703 203.254 21.7422C202.527 21.4141 201.922 20.9609 201.438 20.3828C200.953 19.7969 200.59 19.1172 200.348 18.3438C200.105 17.5625 199.984 16.7266 199.984 15.8359V15.4961C199.984 14.5977 200.105 13.7617 200.348 12.9883C200.59 12.207 200.953 11.5273 201.438 10.9492C201.922 10.3633 202.527 9.90625 203.254 9.57812C203.98 9.25 204.832 9.08594 205.809 9.08594C206.848 9.08594 207.758 9.28516 208.539 9.68359C209.328 10.082 209.945 10.6523 210.391 11.3945C210.844 12.1289 211.074 13 211.082 14.0078H207.906C207.898 13.5859 207.809 13.2031 207.637 12.8594C207.473 12.5156 207.23 12.2422 206.91 12.0391C206.598 11.8281 206.211 11.7227 205.75 11.7227C205.258 11.7227 204.855 11.8281 204.543 12.0391C204.23 12.2422 203.988 12.5234 203.816 12.8828C203.645 13.2344 203.523 13.6367 203.453 14.0898C203.391 14.5352 203.359 15.0039 203.359 15.4961V15.8359C203.359 16.3281 203.391 16.8008 203.453 17.2539C203.516 17.707 203.633 18.1094 203.805 18.4609C203.984 18.8125 204.23 19.0898 204.543 19.293C204.855 19.4961 205.262 19.5977 205.762 19.5977ZM218.875 22.2344C217.891 22.2344 217.008 22.0781 216.227 21.7656C215.445 21.4453 214.781 21.0039 214.234 20.4414C213.695 19.8789 213.281 19.2266 212.992 18.4844C212.703 17.7344 212.559 16.9375 212.559 16.0938V15.625C212.559 14.6641 212.695 13.7852 212.969 12.9883C213.242 12.1914 213.633 11.5 214.141 10.9141C214.656 10.3281 215.281 9.87891 216.016 9.56641C216.75 9.24609 217.578 9.08594 218.5 9.08594C219.398 9.08594 220.195 9.23438 220.891 9.53125C221.586 9.82812 222.168 10.25 222.637 10.7969C223.113 11.3438 223.473 12 223.715 12.7656C223.957 13.5234 224.078 14.3672 224.078 15.2969V16.7031H214V14.4531H220.762V14.1953C220.762 13.7266 220.676 13.3086 220.504 12.9414C220.34 12.5664 220.09 12.2695 219.754 12.0508C219.418 11.832 218.988 11.7227 218.465 11.7227C218.02 11.7227 217.637 11.8203 217.316 12.0156C216.996 12.2109 216.734 12.4844 216.531 12.8359C216.336 13.1875 216.188 13.6016 216.086 14.0781C215.992 14.5469 215.945 15.0625 215.945 15.625V16.0938C215.945 16.6016 216.016 17.0703 216.156 17.5C216.305 17.9297 216.512 18.3008 216.777 18.6133C217.051 18.9258 217.379 19.168 217.762 19.3398C218.152 19.5117 218.594 19.5977 219.086 19.5977C219.695 19.5977 220.262 19.4805 220.785 19.2461C221.316 19.0039 221.773 18.6406 222.156 18.1562L223.797 19.9375C223.531 20.3203 223.168 20.6875 222.707 21.0391C222.254 21.3906 221.707 21.6797 221.066 21.9062C220.426 22.125 219.695 22.2344 218.875 22.2344ZM238.633 13.3516V16H232.012V13.3516H238.633ZM251.148 4.9375V22H247.633V4.9375H251.148ZM261.367 4.9375L254.605 13.3633L250.703 17.5586L250.07 14.2305L252.707 10.6211L257.055 4.9375H261.367ZM257.371 22L252.344 14.1133L254.945 11.9336L261.531 22H257.371ZM269.898 18.9648V9.32031H273.273V22H270.098L269.898 18.9648ZM270.273 16.3633L271.27 16.3398C271.27 17.1836 271.172 17.9688 270.977 18.6953C270.781 19.4141 270.488 20.0391 270.098 20.5703C269.707 21.0938 269.215 21.5039 268.621 21.8008C268.027 22.0898 267.328 22.2344 266.523 22.2344C265.906 22.2344 265.336 22.1484 264.812 21.9766C264.297 21.7969 263.852 21.5195 263.477 21.1445C263.109 20.7617 262.82 20.2734 262.609 19.6797C262.406 19.0781 262.305 18.3555 262.305 17.5117V9.32031H265.68V17.5352C265.68 17.9102 265.723 18.2266 265.809 18.4844C265.902 18.7422 266.031 18.9531 266.195 19.1172C266.359 19.2812 266.551 19.3984 266.77 19.4688C266.996 19.5391 267.246 19.5742 267.52 19.5742C268.215 19.5742 268.762 19.4336 269.16 19.1523C269.566 18.8711 269.852 18.4883 270.016 18.0039C270.188 17.5117 270.273 16.9648 270.273 16.3633ZM285.941 19.3633V22H276.309V19.3633H285.941ZM285.754 11.2656L277.668 22H275.406V19.9961L283.457 9.32031H285.754V11.2656ZM284.559 9.32031V11.9688H275.594V9.32031H284.559ZM291.355 4V22H287.98V4H291.355ZM290.875 15.2148H289.949C289.957 14.332 290.074 13.5195 290.301 12.7773C290.527 12.0273 290.852 11.3789 291.273 10.832C291.695 10.2773 292.199 9.84766 292.785 9.54297C293.379 9.23828 294.035 9.08594 294.754 9.08594C295.379 9.08594 295.945 9.17578 296.453 9.35547C296.969 9.52734 297.41 9.80859 297.777 10.1992C298.152 10.582 298.441 11.0859 298.645 11.7109C298.848 12.3359 298.949 13.0938 298.949 13.9844V22H295.551V13.9609C295.551 13.3984 295.469 12.957 295.305 12.6367C295.148 12.3086 294.918 12.0781 294.613 11.9453C294.316 11.8047 293.949 11.7344 293.512 11.7344C293.027 11.7344 292.613 11.8242 292.27 12.0039C291.934 12.1836 291.664 12.4336 291.461 12.7539C291.258 13.0664 291.109 13.4336 291.016 13.8555C290.922 14.2773 290.875 14.7305 290.875 15.2148ZM305.078 9.32031V22H301.691V9.32031H305.078ZM301.48 6.01562C301.48 5.52344 301.652 5.11719 301.996 4.79688C302.34 4.47656 302.801 4.31641 303.379 4.31641C303.949 4.31641 304.406 4.47656 304.75 4.79688C305.102 5.11719 305.277 5.52344 305.277 6.01562C305.277 6.50781 305.102 6.91406 304.75 7.23438C304.406 7.55469 303.949 7.71484 303.379 7.71484C302.801 7.71484 302.34 7.55469 301.996 7.23438C301.652 6.91406 301.48 6.50781 301.48 6.01562ZM311.242 3.98828V22H307.867V3.98828H311.242ZM319.234 9.32031L313.727 15.6016L310.773 18.5898L309.543 16.1523L311.887 13.1758L315.18 9.32031H319.234ZM315.73 22L311.98 16.1406L314.312 14.1016L319.621 22H315.73ZM320.148 15.7891V15.543C320.148 14.6133 320.281 13.7578 320.547 12.9766C320.812 12.1875 321.199 11.5039 321.707 10.9258C322.215 10.3477 322.84 9.89844 323.582 9.57812C324.324 9.25 325.176 9.08594 326.137 9.08594C327.098 9.08594 327.953 9.25 328.703 9.57812C329.453 9.89844 330.082 10.3477 330.59 10.9258C331.105 11.5039 331.496 12.1875 331.762 12.9766C332.027 13.7578 332.16 14.6133 332.16 15.543V15.7891C332.16 16.7109 332.027 17.5664 331.762 18.3555C331.496 19.1367 331.105 19.8203 330.59 20.4062C330.082 20.9844 329.457 21.4336 328.715 21.7539C327.973 22.0742 327.121 22.2344 326.16 22.2344C325.199 22.2344 324.344 22.0742 323.594 21.7539C322.852 21.4336 322.223 20.9844 321.707 20.4062C321.199 19.8203 320.812 19.1367 320.547 18.3555C320.281 17.5664 320.148 16.7109 320.148 15.7891ZM323.523 15.543V15.7891C323.523 16.3203 323.57 16.8164 323.664 17.2773C323.758 17.7383 323.906 18.1445 324.109 18.4961C324.32 18.8398 324.594 19.1094 324.93 19.3047C325.266 19.5 325.676 19.5977 326.16 19.5977C326.629 19.5977 327.031 19.5 327.367 19.3047C327.703 19.1094 327.973 18.8398 328.176 18.4961C328.379 18.1445 328.527 17.7383 328.621 17.2773C328.723 16.8164 328.773 16.3203 328.773 15.7891V15.543C328.773 15.0273 328.723 14.543 328.621 14.0898C328.527 13.6289 328.375 13.2227 328.164 12.8711C327.961 12.5117 327.691 12.2305 327.355 12.0273C327.02 11.8242 326.613 11.7227 326.137 11.7227C325.66 11.7227 325.254 11.8242 324.918 12.0273C324.59 12.2305 324.32 12.5117 324.109 12.8711C323.906 13.2227 323.758 13.6289 323.664 14.0898C323.57 14.543 323.523 15.0273 323.523 15.543ZM341.723 19.2344V4H345.121V22H342.062L341.723 19.2344ZM333.707 15.8125V15.5664C333.707 14.5977 333.816 13.7188 334.035 12.9297C334.254 12.1328 334.574 11.4492 334.996 10.8789C335.418 10.3086 335.938 9.86719 336.555 9.55469C337.172 9.24219 337.875 9.08594 338.664 9.08594C339.406 9.08594 340.055 9.24219 340.609 9.55469C341.172 9.86719 341.648 10.3125 342.039 10.8906C342.438 11.4609 342.758 12.1367 343 12.918C343.242 13.6914 343.418 14.5391 343.527 15.4609V16C343.418 16.8828 343.242 17.7031 343 18.4609C342.758 19.2188 342.438 19.8828 342.039 20.4531C341.648 21.0156 341.172 21.4531 340.609 21.7656C340.047 22.0781 339.391 22.2344 338.641 22.2344C337.852 22.2344 337.148 22.0742 336.531 21.7539C335.922 21.4336 335.406 20.9844 334.984 20.4062C334.57 19.8281 334.254 19.1484 334.035 18.3672C333.816 17.5859 333.707 16.7344 333.707 15.8125ZM337.082 15.5664V15.8125C337.082 16.3359 337.121 16.8242 337.199 17.2773C337.285 17.7305 337.422 18.1328 337.609 18.4844C337.805 18.8281 338.055 19.0977 338.359 19.293C338.672 19.4805 339.051 19.5742 339.496 19.5742C340.074 19.5742 340.551 19.4453 340.926 19.1875C341.301 18.9219 341.586 18.5586 341.781 18.0977C341.984 17.6367 342.102 17.1055 342.133 16.5039V14.9688C342.109 14.4766 342.039 14.0352 341.922 13.6445C341.812 13.2461 341.648 12.9062 341.43 12.625C341.219 12.3438 340.953 12.125 340.633 11.9688C340.32 11.8125 339.949 11.7344 339.52 11.7344C339.082 11.7344 338.707 11.8359 338.395 12.0391C338.082 12.2344 337.828 12.5039 337.633 12.8477C337.445 13.1914 337.305 13.5977 337.211 14.0664C337.125 14.5273 337.082 15.0273 337.082 15.5664Z" fill="white"/>
<line x1="3.5" y1="142.5" x2="3.5" y2="202.5" stroke="white" stroke-width="7" stroke-linecap="round"/>
<path d="M61.5625 197.434H61.7852C62.7227 197.434 63.5273 197.32 64.1992 197.094C64.8789 196.859 65.4375 196.523 65.875 196.086C66.3125 195.648 66.6367 195.113 66.8477 194.48C67.0586 193.84 67.1641 193.113 67.1641 192.301V189.066C67.1641 188.449 67.1016 187.906 66.9766 187.438C66.8594 186.969 66.6875 186.582 66.4609 186.277C66.2422 185.965 65.9844 185.73 65.6875 185.574C65.3984 185.418 65.0781 185.34 64.7266 185.34C64.3516 185.34 64.0195 185.434 63.7305 185.621C63.4414 185.801 63.1953 186.047 62.9922 186.359C62.7969 186.672 62.6445 187.031 62.5352 187.438C62.4336 187.836 62.3828 188.254 62.3828 188.691C62.3828 189.129 62.4336 189.547 62.5352 189.945C62.6367 190.336 62.7891 190.684 62.9922 190.988C63.1953 191.285 63.4492 191.523 63.7539 191.703C64.0586 191.875 64.418 191.961 64.832 191.961C65.2305 191.961 65.5859 191.887 65.8984 191.738C66.2188 191.582 66.4883 191.379 66.707 191.129C66.9336 190.879 67.1055 190.602 67.2227 190.297C67.3477 189.992 67.4102 189.684 67.4102 189.371L68.5234 189.98C68.5234 190.527 68.4062 191.066 68.1719 191.598C67.9375 192.129 67.6094 192.613 67.1875 193.051C66.7734 193.48 66.293 193.824 65.7461 194.082C65.1992 194.34 64.6133 194.469 63.9883 194.469C63.1914 194.469 62.4844 194.324 61.8672 194.035C61.25 193.738 60.7266 193.332 60.2969 192.816C59.875 192.293 59.5547 191.684 59.3359 190.988C59.1172 190.293 59.0078 189.539 59.0078 188.727C59.0078 187.898 59.1406 187.121 59.4062 186.395C59.6797 185.668 60.0664 185.027 60.5664 184.473C61.0742 183.918 61.6797 183.484 62.3828 183.172C63.0938 182.852 63.8828 182.691 64.75 182.691C65.6172 182.691 66.4062 182.859 67.1172 183.195C67.8281 183.531 68.4375 184.008 68.9453 184.625C69.4531 185.234 69.8438 185.965 70.1172 186.816C70.3984 187.668 70.5391 188.613 70.5391 189.652V190.824C70.5391 191.934 70.418 192.965 70.1758 193.918C69.9414 194.871 69.5859 195.734 69.1094 196.508C68.6406 197.273 68.0547 197.93 67.3516 198.477C66.6562 199.023 65.8477 199.441 64.9258 199.73C64.0039 200.02 62.9727 200.164 61.832 200.164H61.5625V197.434ZM73.2227 198.371C73.2227 197.871 73.3945 197.453 73.7383 197.117C74.0898 196.781 74.5547 196.613 75.1328 196.613C75.7109 196.613 76.1719 196.781 76.5156 197.117C76.8672 197.453 77.043 197.871 77.043 198.371C77.043 198.871 76.8672 199.289 76.5156 199.625C76.1719 199.961 75.7109 200.129 75.1328 200.129C74.5547 200.129 74.0898 199.961 73.7383 199.625C73.3945 199.289 73.2227 198.871 73.2227 198.371ZM73.2227 188.703C73.2227 188.203 73.3945 187.785 73.7383 187.449C74.0898 187.113 74.5547 186.945 75.1328 186.945C75.7109 186.945 76.1719 187.113 76.5156 187.449C76.8672 187.785 77.043 188.203 77.043 188.703C77.043 189.203 76.8672 189.621 76.5156 189.957C76.1719 190.293 75.7109 190.461 75.1328 190.461C74.5547 190.461 74.0898 190.293 73.7383 189.957C73.3945 189.621 73.2227 189.203 73.2227 188.703ZM91.2109 189.969V192.922C91.2109 194.203 91.0742 195.309 90.8008 196.238C90.5273 197.16 90.1328 197.918 89.6172 198.512C89.1094 199.098 88.5039 199.531 87.8008 199.812C87.0977 200.094 86.3164 200.234 85.457 200.234C84.7695 200.234 84.1289 200.148 83.5352 199.977C82.9414 199.797 82.4062 199.52 81.9297 199.145C81.4609 198.77 81.0547 198.297 80.7109 197.727C80.375 197.148 80.1172 196.461 79.9375 195.664C79.7578 194.867 79.668 193.953 79.668 192.922V189.969C79.668 188.688 79.8047 187.59 80.0781 186.676C80.3594 185.754 80.7539 185 81.2617 184.414C81.7773 183.828 82.3867 183.398 83.0898 183.125C83.793 182.844 84.5742 182.703 85.4336 182.703C86.1211 182.703 86.7578 182.793 87.3438 182.973C87.9375 183.145 88.4727 183.414 88.9492 183.781C89.4258 184.148 89.832 184.621 90.168 185.199C90.5039 185.77 90.7617 186.453 90.9414 187.25C91.1211 188.039 91.2109 188.945 91.2109 189.969ZM87.8242 193.367V189.512C87.8242 188.895 87.7891 188.355 87.7188 187.895C87.6562 187.434 87.5586 187.043 87.4258 186.723C87.293 186.395 87.1289 186.129 86.9336 185.926C86.7383 185.723 86.5156 185.574 86.2656 185.48C86.0156 185.387 85.7383 185.34 85.4336 185.34C85.0508 185.34 84.7109 185.414 84.4141 185.562C84.125 185.711 83.8789 185.949 83.6758 186.277C83.4727 186.598 83.3164 187.027 83.207 187.566C83.1055 188.098 83.0547 188.746 83.0547 189.512V193.367C83.0547 193.984 83.0859 194.527 83.1484 194.996C83.2188 195.465 83.3203 195.867 83.4531 196.203C83.5938 196.531 83.7578 196.801 83.9453 197.012C84.1406 197.215 84.3633 197.363 84.6133 197.457C84.8711 197.551 85.1523 197.598 85.457 197.598C85.832 197.598 86.1641 197.523 86.4531 197.375C86.75 197.219 87 196.977 87.2031 196.648C87.4141 196.312 87.5703 195.875 87.6719 195.336C87.7734 194.797 87.8242 194.141 87.8242 193.367ZM104.992 189.969V192.922C104.992 194.203 104.855 195.309 104.582 196.238C104.309 197.16 103.914 197.918 103.398 198.512C102.891 199.098 102.285 199.531 101.582 199.812C100.879 200.094 100.098 200.234 99.2383 200.234C98.5508 200.234 97.9102 200.148 97.3164 199.977C96.7227 199.797 96.1875 199.52 95.7109 199.145C95.2422 198.77 94.8359 198.297 94.4922 197.727C94.1562 197.148 93.8984 196.461 93.7188 195.664C93.5391 194.867 93.4492 193.953 93.4492 192.922V189.969C93.4492 188.688 93.5859 187.59 93.8594 186.676C94.1406 185.754 94.5352 185 95.043 184.414C95.5586 183.828 96.168 183.398 96.8711 183.125C97.5742 182.844 98.3555 182.703 99.2148 182.703C99.9023 182.703 100.539 182.793 101.125 182.973C101.719 183.145 102.254 183.414 102.73 183.781C103.207 184.148 103.613 184.621 103.949 185.199C104.285 185.77 104.543 186.453 104.723 187.25C104.902 188.039 104.992 188.945 104.992 189.969ZM101.605 193.367V189.512C101.605 188.895 101.57 188.355 101.5 187.895C101.438 187.434 101.34 187.043 101.207 186.723C101.074 186.395 100.91 186.129 100.715 185.926C100.52 185.723 100.297 185.574 100.047 185.48C99.7969 185.387 99.5195 185.34 99.2148 185.34C98.832 185.34 98.4922 185.414 98.1953 185.562C97.9062 185.711 97.6602 185.949 97.457 186.277C97.2539 186.598 97.0977 187.027 96.9883 187.566C96.8867 188.098 96.8359 188.746 96.8359 189.512V193.367C96.8359 193.984 96.8672 194.527 96.9297 194.996C97 195.465 97.1016 195.867 97.2344 196.203C97.375 196.531 97.5391 196.801 97.7266 197.012C97.9219 197.215 98.1445 197.363 98.3945 197.457C98.6523 197.551 98.9336 197.598 99.2383 197.598C99.6133 197.598 99.9453 197.523 100.234 197.375C100.531 197.219 100.781 196.977 100.984 196.648C101.195 196.312 101.352 195.875 101.453 195.336C101.555 194.797 101.605 194.141 101.605 193.367ZM120.25 197.141V191.492C120.25 191.086 120.184 190.738 120.051 190.449C119.918 190.152 119.711 189.922 119.43 189.758C119.156 189.594 118.801 189.512 118.363 189.512C117.988 189.512 117.664 189.578 117.391 189.711C117.117 189.836 116.906 190.02 116.758 190.262C116.609 190.496 116.535 190.773 116.535 191.094H113.16C113.16 190.555 113.285 190.043 113.535 189.559C113.785 189.074 114.148 188.648 114.625 188.281C115.102 187.906 115.668 187.613 116.324 187.402C116.988 187.191 117.73 187.086 118.551 187.086C119.535 187.086 120.41 187.25 121.176 187.578C121.941 187.906 122.543 188.398 122.98 189.055C123.426 189.711 123.648 190.531 123.648 191.516V196.941C123.648 197.637 123.691 198.207 123.777 198.652C123.863 199.09 123.988 199.473 124.152 199.801V200H120.742C120.578 199.656 120.453 199.227 120.367 198.711C120.289 198.188 120.25 197.664 120.25 197.141ZM120.695 192.277L120.719 194.188H118.832C118.387 194.188 118 194.238 117.672 194.34C117.344 194.441 117.074 194.586 116.863 194.773C116.652 194.953 116.496 195.164 116.395 195.406C116.301 195.648 116.254 195.914 116.254 196.203C116.254 196.492 116.32 196.754 116.453 196.988C116.586 197.215 116.777 197.395 117.027 197.527C117.277 197.652 117.57 197.715 117.906 197.715C118.414 197.715 118.855 197.613 119.23 197.41C119.605 197.207 119.895 196.957 120.098 196.66C120.309 196.363 120.418 196.082 120.426 195.816L121.316 197.246C121.191 197.566 121.02 197.898 120.801 198.242C120.59 198.586 120.32 198.91 119.992 199.215C119.664 199.512 119.27 199.758 118.809 199.953C118.348 200.141 117.801 200.234 117.168 200.234C116.363 200.234 115.633 200.074 114.977 199.754C114.328 199.426 113.812 198.977 113.43 198.406C113.055 197.828 112.867 197.172 112.867 196.438C112.867 195.773 112.992 195.184 113.242 194.668C113.492 194.152 113.859 193.719 114.344 193.367C114.836 193.008 115.449 192.738 116.184 192.559C116.918 192.371 117.77 192.277 118.738 192.277H120.695ZM129.625 189.945V200H126.238V187.32H129.414L129.625 189.945ZM129.156 193.215H128.219C128.219 192.332 128.324 191.52 128.535 190.777C128.754 190.027 129.07 189.379 129.484 188.832C129.906 188.277 130.426 187.848 131.043 187.543C131.66 187.238 132.375 187.086 133.188 187.086C133.75 187.086 134.266 187.172 134.734 187.344C135.203 187.508 135.605 187.77 135.941 188.129C136.285 188.48 136.551 188.941 136.738 189.512C136.926 190.074 137.02 190.75 137.02 191.539V200H133.645V191.914C133.645 191.336 133.566 190.891 133.41 190.578C133.254 190.266 133.031 190.047 132.742 189.922C132.461 189.797 132.121 189.734 131.723 189.734C131.285 189.734 130.902 189.824 130.574 190.004C130.254 190.184 129.988 190.434 129.777 190.754C129.566 191.066 129.41 191.434 129.309 191.855C129.207 192.277 129.156 192.73 129.156 193.215ZM136.703 192.828L135.496 192.98C135.496 192.152 135.598 191.383 135.801 190.672C136.012 189.961 136.32 189.336 136.727 188.797C137.141 188.258 137.652 187.84 138.262 187.543C138.871 187.238 139.574 187.086 140.371 187.086C140.98 187.086 141.535 187.176 142.035 187.355C142.535 187.527 142.961 187.805 143.312 188.188C143.672 188.562 143.945 189.055 144.133 189.664C144.328 190.273 144.426 191.02 144.426 191.902V200H141.039V191.902C141.039 191.316 140.961 190.871 140.805 190.566C140.656 190.254 140.438 190.039 140.148 189.922C139.867 189.797 139.531 189.734 139.141 189.734C138.734 189.734 138.379 189.816 138.074 189.98C137.77 190.137 137.516 190.355 137.312 190.637C137.109 190.918 136.957 191.246 136.855 191.621C136.754 191.988 136.703 192.391 136.703 192.828ZM159.227 187.32V189.711H151.844V187.32H159.227ZM153.672 184.191H157.047V196.18C157.047 196.547 157.094 196.828 157.188 197.023C157.289 197.219 157.438 197.355 157.633 197.434C157.828 197.504 158.074 197.539 158.371 197.539C158.582 197.539 158.77 197.531 158.934 197.516C159.105 197.492 159.25 197.469 159.367 197.445L159.379 199.93C159.09 200.023 158.777 200.098 158.441 200.152C158.105 200.207 157.734 200.234 157.328 200.234C156.586 200.234 155.938 200.113 155.383 199.871C154.836 199.621 154.414 199.223 154.117 198.676C153.82 198.129 153.672 197.41 153.672 196.52V184.191ZM160.305 193.789V193.543C160.305 192.613 160.438 191.758 160.703 190.977C160.969 190.188 161.355 189.504 161.863 188.926C162.371 188.348 162.996 187.898 163.738 187.578C164.48 187.25 165.332 187.086 166.293 187.086C167.254 187.086 168.109 187.25 168.859 187.578C169.609 187.898 170.238 188.348 170.746 188.926C171.262 189.504 171.652 190.188 171.918 190.977C172.184 191.758 172.316 192.613 172.316 193.543V193.789C172.316 194.711 172.184 195.566 171.918 196.355C171.652 197.137 171.262 197.82 170.746 198.406C170.238 198.984 169.613 199.434 168.871 199.754C168.129 200.074 167.277 200.234 166.316 200.234C165.355 200.234 164.5 200.074 163.75 199.754C163.008 199.434 162.379 198.984 161.863 198.406C161.355 197.82 160.969 197.137 160.703 196.355C160.438 195.566 160.305 194.711 160.305 193.789ZM163.68 193.543V193.789C163.68 194.32 163.727 194.816 163.82 195.277C163.914 195.738 164.062 196.145 164.266 196.496C164.477 196.84 164.75 197.109 165.086 197.305C165.422 197.5 165.832 197.598 166.316 197.598C166.785 197.598 167.188 197.5 167.523 197.305C167.859 197.109 168.129 196.84 168.332 196.496C168.535 196.145 168.684 195.738 168.777 195.277C168.879 194.816 168.93 194.32 168.93 193.789V193.543C168.93 193.027 168.879 192.543 168.777 192.09C168.684 191.629 168.531 191.223 168.32 190.871C168.117 190.512 167.848 190.23 167.512 190.027C167.176 189.824 166.77 189.723 166.293 189.723C165.816 189.723 165.41 189.824 165.074 190.027C164.746 190.23 164.477 190.512 164.266 190.871C164.062 191.223 163.914 191.629 163.82 192.09C163.727 192.543 163.68 193.027 163.68 193.543ZM188.453 182.902V200H185.078V186.793L181.023 188.082V185.422L188.09 182.902H188.453ZM205.68 197.363V200H194.008V197.75L199.527 191.832C200.082 191.215 200.52 190.672 200.84 190.203C201.16 189.727 201.391 189.301 201.531 188.926C201.68 188.543 201.754 188.18 201.754 187.836C201.754 187.32 201.668 186.879 201.496 186.512C201.324 186.137 201.07 185.848 200.734 185.645C200.406 185.441 200 185.34 199.516 185.34C199 185.34 198.555 185.465 198.18 185.715C197.812 185.965 197.531 186.312 197.336 186.758C197.148 187.203 197.055 187.707 197.055 188.27H193.668C193.668 187.254 193.91 186.324 194.395 185.48C194.879 184.629 195.562 183.953 196.445 183.453C197.328 182.945 198.375 182.691 199.586 182.691C200.781 182.691 201.789 182.887 202.609 183.277C203.438 183.66 204.062 184.215 204.484 184.941C204.914 185.66 205.129 186.52 205.129 187.52C205.129 188.082 205.039 188.633 204.859 189.172C204.68 189.703 204.422 190.234 204.086 190.766C203.758 191.289 203.359 191.82 202.891 192.359C202.422 192.898 201.902 193.457 201.332 194.035L198.367 197.363H205.68ZM208.059 198.371C208.059 197.871 208.23 197.453 208.574 197.117C208.926 196.781 209.391 196.613 209.969 196.613C210.547 196.613 211.008 196.781 211.352 197.117C211.703 197.453 211.879 197.871 211.879 198.371C211.879 198.871 211.703 199.289 211.352 199.625C211.008 199.961 210.547 200.129 209.969 200.129C209.391 200.129 208.926 199.961 208.574 199.625C208.23 199.289 208.059 198.871 208.059 198.371ZM208.059 188.703C208.059 188.203 208.23 187.785 208.574 187.449C208.926 187.113 209.391 186.945 209.969 186.945C210.547 186.945 211.008 187.113 211.352 187.449C211.703 187.785 211.879 188.203 211.879 188.703C211.879 189.203 211.703 189.621 211.352 189.957C211.008 190.293 210.547 190.461 209.969 190.461C209.391 190.461 208.926 190.293 208.574 189.957C208.23 189.621 208.059 189.203 208.059 188.703ZM226.047 189.969V192.922C226.047 194.203 225.91 195.309 225.637 196.238C225.363 197.16 224.969 197.918 224.453 198.512C223.945 199.098 223.34 199.531 222.637 199.812C221.934 200.094 221.152 200.234 220.293 200.234C219.605 200.234 218.965 200.148 218.371 199.977C217.777 199.797 217.242 199.52 216.766 199.145C216.297 198.77 215.891 198.297 215.547 197.727C215.211 197.148 214.953 196.461 214.773 195.664C214.594 194.867 214.504 193.953 214.504 192.922V189.969C214.504 188.688 214.641 187.59 214.914 186.676C215.195 185.754 215.59 185 216.098 184.414C216.613 183.828 217.223 183.398 217.926 183.125C218.629 182.844 219.41 182.703 220.27 182.703C220.957 182.703 221.594 182.793 222.18 182.973C222.773 183.145 223.309 183.414 223.785 183.781C224.262 184.148 224.668 184.621 225.004 185.199C225.34 185.77 225.598 186.453 225.777 187.25C225.957 188.039 226.047 188.945 226.047 189.969ZM222.66 193.367V189.512C222.66 188.895 222.625 188.355 222.555 187.895C222.492 187.434 222.395 187.043 222.262 186.723C222.129 186.395 221.965 186.129 221.77 185.926C221.574 185.723 221.352 185.574 221.102 185.48C220.852 185.387 220.574 185.34 220.27 185.34C219.887 185.34 219.547 185.414 219.25 185.562C218.961 185.711 218.715 185.949 218.512 186.277C218.309 186.598 218.152 187.027 218.043 187.566C217.941 188.098 217.891 188.746 217.891 189.512V193.367C217.891 193.984 217.922 194.527 217.984 194.996C218.055 195.465 218.156 195.867 218.289 196.203C218.43 196.531 218.594 196.801 218.781 197.012C218.977 197.215 219.199 197.363 219.449 197.457C219.707 197.551 219.988 197.598 220.293 197.598C220.668 197.598 221 197.523 221.289 197.375C221.586 197.219 221.836 196.977 222.039 196.648C222.25 196.312 222.406 195.875 222.508 195.336C222.609 194.797 222.66 194.141 222.66 193.367ZM239.828 189.969V192.922C239.828 194.203 239.691 195.309 239.418 196.238C239.145 197.16 238.75 197.918 238.234 198.512C237.727 199.098 237.121 199.531 236.418 199.812C235.715 200.094 234.934 200.234 234.074 200.234C233.387 200.234 232.746 200.148 232.152 199.977C231.559 199.797 231.023 199.52 230.547 199.145C230.078 198.77 229.672 198.297 229.328 197.727C228.992 197.148 228.734 196.461 228.555 195.664C228.375 194.867 228.285 193.953 228.285 192.922V189.969C228.285 188.688 228.422 187.59 228.695 186.676C228.977 185.754 229.371 185 229.879 184.414C230.395 183.828 231.004 183.398 231.707 183.125C232.41 182.844 233.191 182.703 234.051 182.703C234.738 182.703 235.375 182.793 235.961 182.973C236.555 183.145 237.09 183.414 237.566 183.781C238.043 184.148 238.449 184.621 238.785 185.199C239.121 185.77 239.379 186.453 239.559 187.25C239.738 188.039 239.828 188.945 239.828 189.969ZM236.441 193.367V189.512C236.441 188.895 236.406 188.355 236.336 187.895C236.273 187.434 236.176 187.043 236.043 186.723C235.91 186.395 235.746 186.129 235.551 185.926C235.355 185.723 235.133 185.574 234.883 185.48C234.633 185.387 234.355 185.34 234.051 185.34C233.668 185.34 233.328 185.414 233.031 185.562C232.742 185.711 232.496 185.949 232.293 186.277C232.09 186.598 231.934 187.027 231.824 187.566C231.723 188.098 231.672 188.746 231.672 189.512V193.367C231.672 193.984 231.703 194.527 231.766 194.996C231.836 195.465 231.938 195.867 232.07 196.203C232.211 196.531 232.375 196.801 232.562 197.012C232.758 197.215 232.98 197.363 233.23 197.457C233.488 197.551 233.77 197.598 234.074 197.598C234.449 197.598 234.781 197.523 235.07 197.375C235.367 197.219 235.617 196.977 235.82 196.648C236.031 196.312 236.188 195.875 236.289 195.336C236.391 194.797 236.441 194.141 236.441 193.367ZM251.617 189.758V204.875H248.242V187.32H251.371L251.617 189.758ZM259.645 193.52V193.766C259.645 194.688 259.535 195.543 259.316 196.332C259.105 197.121 258.793 197.809 258.379 198.395C257.965 198.973 257.449 199.426 256.832 199.754C256.223 200.074 255.52 200.234 254.723 200.234C253.949 200.234 253.277 200.078 252.707 199.766C252.137 199.453 251.656 199.016 251.266 198.453C250.883 197.883 250.574 197.223 250.34 196.473C250.105 195.723 249.926 194.918 249.801 194.059V193.414C249.926 192.492 250.105 191.648 250.34 190.883C250.574 190.109 250.883 189.441 251.266 188.879C251.656 188.309 252.133 187.867 252.695 187.555C253.266 187.242 253.934 187.086 254.699 187.086C255.504 187.086 256.211 187.238 256.82 187.543C257.438 187.848 257.953 188.285 258.367 188.855C258.789 189.426 259.105 190.105 259.316 190.895C259.535 191.684 259.645 192.559 259.645 193.52ZM256.258 193.766V193.52C256.258 192.98 256.211 192.484 256.117 192.031C256.031 191.57 255.891 191.168 255.695 190.824C255.508 190.48 255.258 190.215 254.945 190.027C254.641 189.832 254.27 189.734 253.832 189.734C253.371 189.734 252.977 189.809 252.648 189.957C252.328 190.105 252.066 190.32 251.863 190.602C251.66 190.883 251.508 191.219 251.406 191.609C251.305 192 251.242 192.441 251.219 192.934V194.562C251.258 195.141 251.367 195.66 251.547 196.121C251.727 196.574 252.004 196.934 252.379 197.199C252.754 197.465 253.246 197.598 253.855 197.598C254.301 197.598 254.676 197.5 254.98 197.305C255.285 197.102 255.531 196.824 255.719 196.473C255.914 196.121 256.051 195.715 256.129 195.254C256.215 194.793 256.258 194.297 256.258 193.766ZM265.117 189.945V200H261.73V187.32H264.906L265.117 189.945ZM264.648 193.215H263.711C263.711 192.332 263.816 191.52 264.027 190.777C264.246 190.027 264.562 189.379 264.977 188.832C265.398 188.277 265.918 187.848 266.535 187.543C267.152 187.238 267.867 187.086 268.68 187.086C269.242 187.086 269.758 187.172 270.227 187.344C270.695 187.508 271.098 187.77 271.434 188.129C271.777 188.48 272.043 188.941 272.23 189.512C272.418 190.074 272.512 190.75 272.512 191.539V200H269.137V191.914C269.137 191.336 269.059 190.891 268.902 190.578C268.746 190.266 268.523 190.047 268.234 189.922C267.953 189.797 267.613 189.734 267.215 189.734C266.777 189.734 266.395 189.824 266.066 190.004C265.746 190.184 265.48 190.434 265.27 190.754C265.059 191.066 264.902 191.434 264.801 191.855C264.699 192.277 264.648 192.73 264.648 193.215ZM272.195 192.828L270.988 192.98C270.988 192.152 271.09 191.383 271.293 190.672C271.504 189.961 271.812 189.336 272.219 188.797C272.633 188.258 273.145 187.84 273.754 187.543C274.363 187.238 275.066 187.086 275.863 187.086C276.473 187.086 277.027 187.176 277.527 187.355C278.027 187.527 278.453 187.805 278.805 188.188C279.164 188.562 279.438 189.055 279.625 189.664C279.82 190.273 279.918 191.02 279.918 191.902V200H276.531V191.902C276.531 191.316 276.453 190.871 276.297 190.566C276.148 190.254 275.93 190.039 275.641 189.922C275.359 189.797 275.023 189.734 274.633 189.734C274.227 189.734 273.871 189.816 273.566 189.98C273.262 190.137 273.008 190.355 272.805 190.637C272.602 190.918 272.449 191.246 272.348 191.621C272.246 191.988 272.195 192.391 272.195 192.828Z" fill="white"/>
<path d="M68.4062 152.535C68.4062 152.23 68.3594 151.957 68.2656 151.715C68.1797 151.465 68.0156 151.238 67.7734 151.035C67.5312 150.824 67.1914 150.617 66.7539 150.414C66.3164 150.211 65.75 150 65.0547 149.781C64.2812 149.531 63.5469 149.25 62.8516 148.938C62.1641 148.625 61.5547 148.262 61.0234 147.848C60.5 147.426 60.0859 146.938 59.7812 146.383C59.4844 145.828 59.3359 145.184 59.3359 144.449C59.3359 143.738 59.4922 143.094 59.8047 142.516C60.1172 141.93 60.5547 141.43 61.1172 141.016C61.6797 140.594 62.3438 140.27 63.1094 140.043C63.8828 139.816 64.7305 139.703 65.6523 139.703C66.9102 139.703 68.0078 139.93 68.9453 140.383C69.8828 140.836 70.6094 141.457 71.125 142.246C71.6484 143.035 71.9102 143.938 71.9102 144.953H68.418C68.418 144.453 68.3125 144.016 68.1016 143.641C67.8984 143.258 67.5859 142.957 67.1641 142.738C66.75 142.52 66.2266 142.41 65.5938 142.41C64.9844 142.41 64.4766 142.504 64.0703 142.691C63.6641 142.871 63.3594 143.117 63.1562 143.43C62.9531 143.734 62.8516 144.078 62.8516 144.461C62.8516 144.75 62.9219 145.012 63.0625 145.246C63.2109 145.48 63.4297 145.699 63.7188 145.902C64.0078 146.105 64.3633 146.297 64.7852 146.477C65.207 146.656 65.6953 146.832 66.25 147.004C67.1797 147.285 67.9961 147.602 68.6992 147.953C69.4102 148.305 70.0039 148.699 70.4805 149.137C70.957 149.574 71.3164 150.07 71.5586 150.625C71.8008 151.18 71.9219 151.809 71.9219 152.512C71.9219 153.254 71.7773 153.918 71.4883 154.504C71.1992 155.09 70.7812 155.586 70.2344 155.992C69.6875 156.398 69.0352 156.707 68.2773 156.918C67.5195 157.129 66.6719 157.234 65.7344 157.234C64.8906 157.234 64.0586 157.125 63.2383 156.906C62.418 156.68 61.6719 156.34 61 155.887C60.3359 155.434 59.8047 154.855 59.4062 154.152C59.0078 153.449 58.8086 152.617 58.8086 151.656H62.3359C62.3359 152.188 62.418 152.637 62.582 153.004C62.7461 153.371 62.9766 153.668 63.2734 153.895C63.5781 154.121 63.9375 154.285 64.3516 154.387C64.7734 154.488 65.2344 154.539 65.7344 154.539C66.3438 154.539 66.8438 154.453 67.2344 154.281C67.6328 154.109 67.9258 153.871 68.1133 153.566C68.3086 153.262 68.4062 152.918 68.4062 152.535ZM81.6016 153.965V144.32H84.9766V157H81.8008L81.6016 153.965ZM81.9766 151.363L82.9727 151.34C82.9727 152.184 82.875 152.969 82.6797 153.695C82.4844 154.414 82.1914 155.039 81.8008 155.57C81.4102 156.094 80.918 156.504 80.3242 156.801C79.7305 157.09 79.0312 157.234 78.2266 157.234C77.6094 157.234 77.0391 157.148 76.5156 156.977C76 156.797 75.5547 156.52 75.1797 156.145C74.8125 155.762 74.5234 155.273 74.3125 154.68C74.1094 154.078 74.0078 153.355 74.0078 152.512V144.32H77.3828V152.535C77.3828 152.91 77.4258 153.227 77.5117 153.484C77.6055 153.742 77.7344 153.953 77.8984 154.117C78.0625 154.281 78.2539 154.398 78.4727 154.469C78.6992 154.539 78.9492 154.574 79.2227 154.574C79.918 154.574 80.4648 154.434 80.8633 154.152C81.2695 153.871 81.5547 153.488 81.7188 153.004C81.8906 152.512 81.9766 151.965 81.9766 151.363ZM90.8594 147.027V157H87.4844V144.32H90.6484L90.8594 147.027ZM90.3672 150.215H89.4531C89.4531 149.277 89.5742 148.434 89.8164 147.684C90.0586 146.926 90.3984 146.281 90.8359 145.75C91.2734 145.211 91.793 144.801 92.3945 144.52C93.0039 144.23 93.6836 144.086 94.4336 144.086C95.0273 144.086 95.5703 144.172 96.0625 144.344C96.5547 144.516 96.9766 144.789 97.3281 145.164C97.6875 145.539 97.9609 146.035 98.1484 146.652C98.3438 147.27 98.4414 148.023 98.4414 148.914V157H95.043V148.902C95.043 148.34 94.9648 147.902 94.8086 147.59C94.6523 147.277 94.4219 147.059 94.1172 146.934C93.8203 146.801 93.4531 146.734 93.0156 146.734C92.5625 146.734 92.168 146.824 91.832 147.004C91.5039 147.184 91.2305 147.434 91.0117 147.754C90.8008 148.066 90.6406 148.434 90.5312 148.855C90.4219 149.277 90.3672 149.73 90.3672 150.215ZM108.496 154.234V139H111.895V157H108.836L108.496 154.234ZM100.48 150.812V150.566C100.48 149.598 100.59 148.719 100.809 147.93C101.027 147.133 101.348 146.449 101.77 145.879C102.191 145.309 102.711 144.867 103.328 144.555C103.945 144.242 104.648 144.086 105.438 144.086C106.18 144.086 106.828 144.242 107.383 144.555C107.945 144.867 108.422 145.312 108.812 145.891C109.211 146.461 109.531 147.137 109.773 147.918C110.016 148.691 110.191 149.539 110.301 150.461V151C110.191 151.883 110.016 152.703 109.773 153.461C109.531 154.219 109.211 154.883 108.812 155.453C108.422 156.016 107.945 156.453 107.383 156.766C106.82 157.078 106.164 157.234 105.414 157.234C104.625 157.234 103.922 157.074 103.305 156.754C102.695 156.434 102.18 155.984 101.758 155.406C101.344 154.828 101.027 154.148 100.809 153.367C100.59 152.586 100.48 151.734 100.48 150.812ZM103.855 150.566V150.812C103.855 151.336 103.895 151.824 103.973 152.277C104.059 152.73 104.195 153.133 104.383 153.484C104.578 153.828 104.828 154.098 105.133 154.293C105.445 154.48 105.824 154.574 106.27 154.574C106.848 154.574 107.324 154.445 107.699 154.188C108.074 153.922 108.359 153.559 108.555 153.098C108.758 152.637 108.875 152.105 108.906 151.504V149.969C108.883 149.477 108.812 149.035 108.695 148.645C108.586 148.246 108.422 147.906 108.203 147.625C107.992 147.344 107.727 147.125 107.406 146.969C107.094 146.812 106.723 146.734 106.293 146.734C105.855 146.734 105.48 146.836 105.168 147.039C104.855 147.234 104.602 147.504 104.406 147.848C104.219 148.191 104.078 148.598 103.984 149.066C103.898 149.527 103.855 150.027 103.855 150.566ZM121.375 154.141V148.492C121.375 148.086 121.309 147.738 121.176 147.449C121.043 147.152 120.836 146.922 120.555 146.758C120.281 146.594 119.926 146.512 119.488 146.512C119.113 146.512 118.789 146.578 118.516 146.711C118.242 146.836 118.031 147.02 117.883 147.262C117.734 147.496 117.66 147.773 117.66 148.094H114.285C114.285 147.555 114.41 147.043 114.66 146.559C114.91 146.074 115.273 145.648 115.75 145.281C116.227 144.906 116.793 144.613 117.449 144.402C118.113 144.191 118.855 144.086 119.676 144.086C120.66 144.086 121.535 144.25 122.301 144.578C123.066 144.906 123.668 145.398 124.105 146.055C124.551 146.711 124.773 147.531 124.773 148.516V153.941C124.773 154.637 124.816 155.207 124.902 155.652C124.988 156.09 125.113 156.473 125.277 156.801V157H121.867C121.703 156.656 121.578 156.227 121.492 155.711C121.414 155.188 121.375 154.664 121.375 154.141ZM121.82 149.277L121.844 151.188H119.957C119.512 151.188 119.125 151.238 118.797 151.34C118.469 151.441 118.199 151.586 117.988 151.773C117.777 151.953 117.621 152.164 117.52 152.406C117.426 152.648 117.379 152.914 117.379 153.203C117.379 153.492 117.445 153.754 117.578 153.988C117.711 154.215 117.902 154.395 118.152 154.527C118.402 154.652 118.695 154.715 119.031 154.715C119.539 154.715 119.98 154.613 120.355 154.41C120.73 154.207 121.02 153.957 121.223 153.66C121.434 153.363 121.543 153.082 121.551 152.816L122.441 154.246C122.316 154.566 122.145 154.898 121.926 155.242C121.715 155.586 121.445 155.91 121.117 156.215C120.789 156.512 120.395 156.758 119.934 156.953C119.473 157.141 118.926 157.234 118.293 157.234C117.488 157.234 116.758 157.074 116.102 156.754C115.453 156.426 114.938 155.977 114.555 155.406C114.18 154.828 113.992 154.172 113.992 153.438C113.992 152.773 114.117 152.184 114.367 151.668C114.617 151.152 114.984 150.719 115.469 150.367C115.961 150.008 116.574 149.738 117.309 149.559C118.043 149.371 118.895 149.277 119.863 149.277H121.82ZM130.949 155.57L134.312 144.32H137.934L132.836 158.91C132.727 159.23 132.578 159.574 132.391 159.941C132.211 160.309 131.965 160.656 131.652 160.984C131.348 161.32 130.961 161.594 130.492 161.805C130.031 162.016 129.465 162.121 128.793 162.121C128.473 162.121 128.211 162.102 128.008 162.062C127.805 162.023 127.562 161.969 127.281 161.898V159.426C127.367 159.426 127.457 159.426 127.551 159.426C127.645 159.434 127.734 159.438 127.82 159.438C128.266 159.438 128.629 159.387 128.91 159.285C129.191 159.184 129.418 159.027 129.59 158.816C129.762 158.613 129.898 158.348 130 158.02L130.949 155.57ZM129.543 144.32L132.297 153.508L132.777 157.082L130.48 157.328L125.922 144.32H129.543ZM154.352 152.535C154.352 152.23 154.305 151.957 154.211 151.715C154.125 151.465 153.961 151.238 153.719 151.035C153.477 150.824 153.137 150.617 152.699 150.414C152.262 150.211 151.695 150 151 149.781C150.227 149.531 149.492 149.25 148.797 148.938C148.109 148.625 147.5 148.262 146.969 147.848C146.445 147.426 146.031 146.938 145.727 146.383C145.43 145.828 145.281 145.184 145.281 144.449C145.281 143.738 145.438 143.094 145.75 142.516C146.062 141.93 146.5 141.43 147.062 141.016C147.625 140.594 148.289 140.27 149.055 140.043C149.828 139.816 150.676 139.703 151.598 139.703C152.855 139.703 153.953 139.93 154.891 140.383C155.828 140.836 156.555 141.457 157.07 142.246C157.594 143.035 157.855 143.938 157.855 144.953H154.363C154.363 144.453 154.258 144.016 154.047 143.641C153.844 143.258 153.531 142.957 153.109 142.738C152.695 142.52 152.172 142.41 151.539 142.41C150.93 142.41 150.422 142.504 150.016 142.691C149.609 142.871 149.305 143.117 149.102 143.43C148.898 143.734 148.797 144.078 148.797 144.461C148.797 144.75 148.867 145.012 149.008 145.246C149.156 145.48 149.375 145.699 149.664 145.902C149.953 146.105 150.309 146.297 150.73 146.477C151.152 146.656 151.641 146.832 152.195 147.004C153.125 147.285 153.941 147.602 154.645 147.953C155.355 148.305 155.949 148.699 156.426 149.137C156.902 149.574 157.262 150.07 157.504 150.625C157.746 151.18 157.867 151.809 157.867 152.512C157.867 153.254 157.723 153.918 157.434 154.504C157.145 155.09 156.727 155.586 156.18 155.992C155.633 156.398 154.98 156.707 154.223 156.918C153.465 157.129 152.617 157.234 151.68 157.234C150.836 157.234 150.004 157.125 149.184 156.906C148.363 156.68 147.617 156.34 146.945 155.887C146.281 155.434 145.75 154.855 145.352 154.152C144.953 153.449 144.754 152.617 144.754 151.656H148.281C148.281 152.188 148.363 152.637 148.527 153.004C148.691 153.371 148.922 153.668 149.219 153.895C149.523 154.121 149.883 154.285 150.297 154.387C150.719 154.488 151.18 154.539 151.68 154.539C152.289 154.539 152.789 154.453 153.18 154.281C153.578 154.109 153.871 153.871 154.059 153.566C154.254 153.262 154.352 152.918 154.352 152.535ZM165.883 157.234C164.898 157.234 164.016 157.078 163.234 156.766C162.453 156.445 161.789 156.004 161.242 155.441C160.703 154.879 160.289 154.227 160 153.484C159.711 152.734 159.566 151.938 159.566 151.094V150.625C159.566 149.664 159.703 148.785 159.977 147.988C160.25 147.191 160.641 146.5 161.148 145.914C161.664 145.328 162.289 144.879 163.023 144.566C163.758 144.246 164.586 144.086 165.508 144.086C166.406 144.086 167.203 144.234 167.898 144.531C168.594 144.828 169.176 145.25 169.645 145.797C170.121 146.344 170.48 147 170.723 147.766C170.965 148.523 171.086 149.367 171.086 150.297V151.703H161.008V149.453H167.77V149.195C167.77 148.727 167.684 148.309 167.512 147.941C167.348 147.566 167.098 147.27 166.762 147.051C166.426 146.832 165.996 146.723 165.473 146.723C165.027 146.723 164.645 146.82 164.324 147.016C164.004 147.211 163.742 147.484 163.539 147.836C163.344 148.188 163.195 148.602 163.094 149.078C163 149.547 162.953 150.062 162.953 150.625V151.094C162.953 151.602 163.023 152.07 163.164 152.5C163.312 152.93 163.52 153.301 163.785 153.613C164.059 153.926 164.387 154.168 164.77 154.34C165.16 154.512 165.602 154.598 166.094 154.598C166.703 154.598 167.27 154.48 167.793 154.246C168.324 154.004 168.781 153.641 169.164 153.156L170.805 154.938C170.539 155.32 170.176 155.688 169.715 156.039C169.262 156.391 168.715 156.68 168.074 156.906C167.434 157.125 166.703 157.234 165.883 157.234ZM176.383 147.086V157H173.008V144.32H176.184L176.383 147.086ZM180.203 144.238L180.145 147.367C179.98 147.344 179.781 147.324 179.547 147.309C179.32 147.285 179.113 147.273 178.926 147.273C178.449 147.273 178.035 147.336 177.684 147.461C177.34 147.578 177.051 147.754 176.816 147.988C176.59 148.223 176.418 148.508 176.301 148.844C176.191 149.18 176.129 149.562 176.113 149.992L175.434 149.781C175.434 148.961 175.516 148.207 175.68 147.52C175.844 146.824 176.082 146.219 176.395 145.703C176.715 145.188 177.105 144.789 177.566 144.508C178.027 144.227 178.555 144.086 179.148 144.086C179.336 144.086 179.527 144.102 179.723 144.133C179.918 144.156 180.078 144.191 180.203 144.238ZM186.32 154.539L189.133 144.32H192.66L188.383 157H186.25L186.32 154.539ZM184.387 144.32L187.211 154.551L187.27 157H185.125L180.848 144.32H184.387ZM197.734 144.32V157H194.348V144.32H197.734ZM194.137 141.016C194.137 140.523 194.309 140.117 194.652 139.797C194.996 139.477 195.457 139.316 196.035 139.316C196.605 139.316 197.062 139.477 197.406 139.797C197.758 140.117 197.934 140.523 197.934 141.016C197.934 141.508 197.758 141.914 197.406 142.234C197.062 142.555 196.605 142.715 196.035 142.715C195.457 142.715 194.996 142.555 194.652 142.234C194.309 141.914 194.137 141.508 194.137 141.016ZM205.762 154.598C206.176 154.598 206.543 154.52 206.863 154.363C207.184 154.199 207.434 153.973 207.613 153.684C207.801 153.387 207.898 153.039 207.906 152.641H211.082C211.074 153.531 210.836 154.324 210.367 155.02C209.898 155.707 209.27 156.25 208.48 156.648C207.691 157.039 206.809 157.234 205.832 157.234C204.848 157.234 203.988 157.07 203.254 156.742C202.527 156.414 201.922 155.961 201.438 155.383C200.953 154.797 200.59 154.117 200.348 153.344C200.105 152.562 199.984 151.727 199.984 150.836V150.496C199.984 149.598 200.105 148.762 200.348 147.988C200.59 147.207 200.953 146.527 201.438 145.949C201.922 145.363 202.527 144.906 203.254 144.578C203.98 144.25 204.832 144.086 205.809 144.086C206.848 144.086 207.758 144.285 208.539 144.684C209.328 145.082 209.945 145.652 210.391 146.395C210.844 147.129 211.074 148 211.082 149.008H207.906C207.898 148.586 207.809 148.203 207.637 147.859C207.473 147.516 207.23 147.242 206.91 147.039C206.598 146.828 206.211 146.723 205.75 146.723C205.258 146.723 204.855 146.828 204.543 147.039C204.23 147.242 203.988 147.523 203.816 147.883C203.645 148.234 203.523 148.637 203.453 149.09C203.391 149.535 203.359 150.004 203.359 150.496V150.836C203.359 151.328 203.391 151.801 203.453 152.254C203.516 152.707 203.633 153.109 203.805 153.461C203.984 153.812 204.23 154.09 204.543 154.293C204.855 154.496 205.262 154.598 205.762 154.598ZM218.875 157.234C217.891 157.234 217.008 157.078 216.227 156.766C215.445 156.445 214.781 156.004 214.234 155.441C213.695 154.879 213.281 154.227 212.992 153.484C212.703 152.734 212.559 151.938 212.559 151.094V150.625C212.559 149.664 212.695 148.785 212.969 147.988C213.242 147.191 213.633 146.5 214.141 145.914C214.656 145.328 215.281 144.879 216.016 144.566C216.75 144.246 217.578 144.086 218.5 144.086C219.398 144.086 220.195 144.234 220.891 144.531C221.586 144.828 222.168 145.25 222.637 145.797C223.113 146.344 223.473 147 223.715 147.766C223.957 148.523 224.078 149.367 224.078 150.297V151.703H214V149.453H220.762V149.195C220.762 148.727 220.676 148.309 220.504 147.941C220.34 147.566 220.09 147.27 219.754 147.051C219.418 146.832 218.988 146.723 218.465 146.723C218.02 146.723 217.637 146.82 217.316 147.016C216.996 147.211 216.734 147.484 216.531 147.836C216.336 148.188 216.188 148.602 216.086 149.078C215.992 149.547 215.945 150.062 215.945 150.625V151.094C215.945 151.602 216.016 152.07 216.156 152.5C216.305 152.93 216.512 153.301 216.777 153.613C217.051 153.926 217.379 154.168 217.762 154.34C218.152 154.512 218.594 154.598 219.086 154.598C219.695 154.598 220.262 154.48 220.785 154.246C221.316 154.004 221.773 153.641 222.156 153.156L223.797 154.938C223.531 155.32 223.168 155.688 222.707 156.039C222.254 156.391 221.707 156.68 221.066 156.906C220.426 157.125 219.695 157.234 218.875 157.234ZM238.633 148.352V151H232.012V148.352H238.633ZM261.52 139.938V157H258.004L251.148 145.562V157H247.633V139.938H251.148L258.016 151.387V139.938H261.52ZM271.211 154.141V148.492C271.211 148.086 271.145 147.738 271.012 147.449C270.879 147.152 270.672 146.922 270.391 146.758C270.117 146.594 269.762 146.512 269.324 146.512C268.949 146.512 268.625 146.578 268.352 146.711C268.078 146.836 267.867 147.02 267.719 147.262C267.57 147.496 267.496 147.773 267.496 148.094H264.121C264.121 147.555 264.246 147.043 264.496 146.559C264.746 146.074 265.109 145.648 265.586 145.281C266.062 144.906 266.629 144.613 267.285 144.402C267.949 144.191 268.691 144.086 269.512 144.086C270.496 144.086 271.371 144.25 272.137 144.578C272.902 144.906 273.504 145.398 273.941 146.055C274.387 146.711 274.609 147.531 274.609 148.516V153.941C274.609 154.637 274.652 155.207 274.738 155.652C274.824 156.09 274.949 156.473 275.113 156.801V157H271.703C271.539 156.656 271.414 156.227 271.328 155.711C271.25 155.188 271.211 154.664 271.211 154.141ZM271.656 149.277L271.68 151.188H269.793C269.348 151.188 268.961 151.238 268.633 151.34C268.305 151.441 268.035 151.586 267.824 151.773C267.613 151.953 267.457 152.164 267.355 152.406C267.262 152.648 267.215 152.914 267.215 153.203C267.215 153.492 267.281 153.754 267.414 153.988C267.547 154.215 267.738 154.395 267.988 154.527C268.238 154.652 268.531 154.715 268.867 154.715C269.375 154.715 269.816 154.613 270.191 154.41C270.566 154.207 270.855 153.957 271.059 153.66C271.27 153.363 271.379 153.082 271.387 152.816L272.277 154.246C272.152 154.566 271.98 154.898 271.762 155.242C271.551 155.586 271.281 155.91 270.953 156.215C270.625 156.512 270.23 156.758 269.77 156.953C269.309 157.141 268.762 157.234 268.129 157.234C267.324 157.234 266.594 157.074 265.938 156.754C265.289 156.426 264.773 155.977 264.391 155.406C264.016 154.828 263.828 154.172 263.828 153.438C263.828 152.773 263.953 152.184 264.203 151.668C264.453 151.152 264.82 150.719 265.305 150.367C265.797 150.008 266.41 149.738 267.145 149.559C267.879 149.371 268.73 149.277 269.699 149.277H271.656ZM285.238 144.32H288.297V156.578C288.297 157.734 288.039 158.715 287.523 159.52C287.016 160.332 286.305 160.945 285.391 161.359C284.477 161.781 283.414 161.992 282.203 161.992C281.672 161.992 281.109 161.922 280.516 161.781C279.93 161.641 279.367 161.422 278.828 161.125C278.297 160.828 277.852 160.453 277.492 160L278.98 158.008C279.371 158.461 279.824 158.812 280.34 159.062C280.855 159.32 281.426 159.449 282.051 159.449C282.66 159.449 283.176 159.336 283.598 159.109C284.02 158.891 284.344 158.566 284.57 158.137C284.797 157.715 284.91 157.203 284.91 156.602V147.25L285.238 144.32ZM276.707 150.812V150.566C276.707 149.598 276.824 148.719 277.059 147.93C277.301 147.133 277.641 146.449 278.078 145.879C278.523 145.309 279.062 144.867 279.695 144.555C280.328 144.242 281.043 144.086 281.84 144.086C282.684 144.086 283.391 144.242 283.961 144.555C284.531 144.867 285 145.312 285.367 145.891C285.734 146.461 286.02 147.137 286.223 147.918C286.434 148.691 286.598 149.539 286.715 150.461V151C286.598 151.883 286.422 152.703 286.188 153.461C285.953 154.219 285.645 154.883 285.262 155.453C284.879 156.016 284.402 156.453 283.832 156.766C283.27 157.078 282.598 157.234 281.816 157.234C281.035 157.234 280.328 157.074 279.695 156.754C279.07 156.434 278.535 155.984 278.09 155.406C277.645 154.828 277.301 154.148 277.059 153.367C276.824 152.586 276.707 151.734 276.707 150.812ZM280.082 150.566V150.812C280.082 151.336 280.133 151.824 280.234 152.277C280.336 152.73 280.492 153.133 280.703 153.484C280.922 153.828 281.191 154.098 281.512 154.293C281.84 154.48 282.227 154.574 282.672 154.574C283.289 154.574 283.793 154.445 284.184 154.188C284.574 153.922 284.867 153.559 285.062 153.098C285.258 152.637 285.371 152.105 285.402 151.504V149.969C285.387 149.477 285.32 149.035 285.203 148.645C285.086 148.246 284.922 147.906 284.711 147.625C284.5 147.344 284.227 147.125 283.891 146.969C283.555 146.812 283.156 146.734 282.695 146.734C282.25 146.734 281.863 146.836 281.535 147.039C281.215 147.234 280.945 147.504 280.727 147.848C280.516 148.191 280.355 148.598 280.246 149.066C280.137 149.527 280.082 150.027 280.082 150.566ZM296.758 157.234C295.773 157.234 294.891 157.078 294.109 156.766C293.328 156.445 292.664 156.004 292.117 155.441C291.578 154.879 291.164 154.227 290.875 153.484C290.586 152.734 290.441 151.938 290.441 151.094V150.625C290.441 149.664 290.578 148.785 290.852 147.988C291.125 147.191 291.516 146.5 292.023 145.914C292.539 145.328 293.164 144.879 293.898 144.566C294.633 144.246 295.461 144.086 296.383 144.086C297.281 144.086 298.078 144.234 298.773 144.531C299.469 144.828 300.051 145.25 300.52 145.797C300.996 146.344 301.355 147 301.598 147.766C301.84 148.523 301.961 149.367 301.961 150.297V151.703H291.883V149.453H298.645V149.195C298.645 148.727 298.559 148.309 298.387 147.941C298.223 147.566 297.973 147.27 297.637 147.051C297.301 146.832 296.871 146.723 296.348 146.723C295.902 146.723 295.52 146.82 295.199 147.016C294.879 147.211 294.617 147.484 294.414 147.836C294.219 148.188 294.07 148.602 293.969 149.078C293.875 149.547 293.828 150.062 293.828 150.625V151.094C293.828 151.602 293.898 152.07 294.039 152.5C294.188 152.93 294.395 153.301 294.66 153.613C294.934 153.926 295.262 154.168 295.645 154.34C296.035 154.512 296.477 154.598 296.969 154.598C297.578 154.598 298.145 154.48 298.668 154.246C299.199 154.004 299.656 153.641 300.039 153.156L301.68 154.938C301.414 155.32 301.051 155.688 300.59 156.039C300.137 156.391 299.59 156.68 298.949 156.906C298.309 157.125 297.578 157.234 296.758 157.234ZM307.258 147.086V157H303.883V144.32H307.059L307.258 147.086ZM311.078 144.238L311.02 147.367C310.855 147.344 310.656 147.324 310.422 147.309C310.195 147.285 309.988 147.273 309.801 147.273C309.324 147.273 308.91 147.336 308.559 147.461C308.215 147.578 307.926 147.754 307.691 147.988C307.465 148.223 307.293 148.508 307.176 148.844C307.066 149.18 307.004 149.562 306.988 149.992L306.309 149.781C306.309 148.961 306.391 148.207 306.555 147.52C306.719 146.824 306.957 146.219 307.27 145.703C307.59 145.188 307.98 144.789 308.441 144.508C308.902 144.227 309.43 144.086 310.023 144.086C310.211 144.086 310.402 144.102 310.598 144.133C310.793 144.156 310.953 144.191 311.078 144.238ZM317.676 154.598C318.09 154.598 318.457 154.52 318.777 154.363C319.098 154.199 319.348 153.973 319.527 153.684C319.715 153.387 319.812 153.039 319.82 152.641H322.996C322.988 153.531 322.75 154.324 322.281 155.02C321.812 155.707 321.184 156.25 320.395 156.648C319.605 157.039 318.723 157.234 317.746 157.234C316.762 157.234 315.902 157.07 315.168 156.742C314.441 156.414 313.836 155.961 313.352 155.383C312.867 154.797 312.504 154.117 312.262 153.344C312.02 152.562 311.898 151.727 311.898 150.836V150.496C311.898 149.598 312.02 148.762 312.262 147.988C312.504 147.207 312.867 146.527 313.352 145.949C313.836 145.363 314.441 144.906 315.168 144.578C315.895 144.25 316.746 144.086 317.723 144.086C318.762 144.086 319.672 144.285 320.453 144.684C321.242 145.082 321.859 145.652 322.305 146.395C322.758 147.129 322.988 148 322.996 149.008H319.82C319.812 148.586 319.723 148.203 319.551 147.859C319.387 147.516 319.145 147.242 318.824 147.039C318.512 146.828 318.125 146.723 317.664 146.723C317.172 146.723 316.77 146.828 316.457 147.039C316.145 147.242 315.902 147.523 315.73 147.883C315.559 148.234 315.438 148.637 315.367 149.09C315.305 149.535 315.273 150.004 315.273 150.496V150.836C315.273 151.328 315.305 151.801 315.367 152.254C315.43 152.707 315.547 153.109 315.719 153.461C315.898 153.812 316.145 154.09 316.457 154.293C316.77 154.496 317.176 154.598 317.676 154.598ZM324.414 150.789V150.543C324.414 149.613 324.547 148.758 324.812 147.977C325.078 147.188 325.465 146.504 325.973 145.926C326.48 145.348 327.105 144.898 327.848 144.578C328.59 144.25 329.441 144.086 330.402 144.086C331.363 144.086 332.219 144.25 332.969 144.578C333.719 144.898 334.348 145.348 334.855 145.926C335.371 146.504 335.762 147.188 336.027 147.977C336.293 148.758 336.426 149.613 336.426 150.543V150.789C336.426 151.711 336.293 152.566 336.027 153.355C335.762 154.137 335.371 154.82 334.855 155.406C334.348 155.984 333.723 156.434 332.98 156.754C332.238 157.074 331.387 157.234 330.426 157.234C329.465 157.234 328.609 157.074 327.859 156.754C327.117 156.434 326.488 155.984 325.973 155.406C325.465 154.82 325.078 154.137 324.812 153.355C324.547 152.566 324.414 151.711 324.414 150.789ZM327.789 150.543V150.789C327.789 151.32 327.836 151.816 327.93 152.277C328.023 152.738 328.172 153.145 328.375 153.496C328.586 153.84 328.859 154.109 329.195 154.305C329.531 154.5 329.941 154.598 330.426 154.598C330.895 154.598 331.297 154.5 331.633 154.305C331.969 154.109 332.238 153.84 332.441 153.496C332.645 153.145 332.793 152.738 332.887 152.277C332.988 151.816 333.039 151.32 333.039 150.789V150.543C333.039 150.027 332.988 149.543 332.887 149.09C332.793 148.629 332.641 148.223 332.43 147.871C332.227 147.512 331.957 147.23 331.621 147.027C331.285 146.824 330.879 146.723 330.402 146.723C329.926 146.723 329.52 146.824 329.184 147.027C328.855 147.23 328.586 147.512 328.375 147.871C328.172 148.223 328.023 148.629 327.93 149.09C327.836 149.543 327.789 150.027 327.789 150.543ZM342.062 144.32V157H338.676V144.32H342.062ZM338.465 141.016C338.465 140.523 338.637 140.117 338.98 139.797C339.324 139.477 339.785 139.316 340.363 139.316C340.934 139.316 341.391 139.477 341.734 139.797C342.086 140.117 342.262 140.523 342.262 141.016C342.262 141.508 342.086 141.914 341.734 142.234C341.391 142.555 340.934 142.715 340.363 142.715C339.785 142.715 339.324 142.555 338.98 142.234C338.637 141.914 338.465 141.508 338.465 141.016ZM348.414 139V157H345.027V139H348.414Z" fill="white"/>
</svg>
