<svg width="598" height="208" viewBox="0 0 598 208" fill="none" xmlns="http://www.w3.org/2000/svg">
<path d="M107.835 207.88C92.8592 207.88 78.8432 205.288 65.7872 200.104C52.7312 194.728 41.3072 187.336 31.5152 177.928C21.9152 168.52 14.3312 157.576 8.76324 145.096C3.38724 132.424 0.699238 118.792 0.699238 104.2C0.699238 89.416 3.38724 75.784 8.76324 63.304C14.3312 50.632 22.0112 39.592 31.8032 30.184C41.5952 20.776 52.9232 13.48 65.7872 8.29599C78.8432 2.91999 92.8592 0.231993 107.835 0.231993C118.971 0.231993 129.723 1.76799 140.091 4.83998C150.459 7.91199 160.059 12.232 168.891 17.8C177.915 23.368 185.595 30.088 191.931 37.96L163.707 65.896C156.411 56.872 147.963 50.056 138.363 45.448C128.955 40.84 118.779 38.536 107.835 38.536C98.8112 38.536 90.3632 40.264 82.4912 43.72C74.6192 46.984 67.8032 51.592 62.0432 57.544C56.2832 63.304 51.7712 70.216 48.5072 78.28C45.2432 86.152 43.6112 94.792 43.6112 104.2C43.6112 113.416 45.2432 122.056 48.5072 130.12C51.7712 137.992 56.3792 144.904 62.3312 150.856C68.2832 156.616 75.1952 161.128 83.0672 164.392C91.1312 167.656 99.8672 169.288 109.275 169.288C119.835 169.288 129.723 167.08 138.939 162.664C148.155 158.248 156.315 151.912 163.419 143.656L190.779 170.728C184.443 178.408 176.859 185.032 168.027 190.6C159.195 196.168 149.595 200.488 139.227 203.56C129.051 206.44 118.587 207.88 107.835 207.88ZM297.206 207.88C280.886 207.88 264.95 204.904 249.398 198.952C233.846 192.808 220.022 184.168 207.926 173.032L231.83 143.08C243.542 153.256 254.774 160.744 265.526 165.544C276.47 170.152 287.99 172.456 300.086 172.456C308.534 172.456 315.83 171.496 321.974 169.576C328.118 167.464 332.822 164.488 336.086 160.648C339.542 156.808 341.27 152.296 341.27 147.112C341.27 140.2 338.774 134.92 333.782 131.272C328.79 127.432 320.246 124.456 308.15 122.344L268.118 115.432C251.03 112.552 237.974 106.504 228.95 97.288C220.118 88.072 215.702 76.168 215.702 61.576C215.702 49.096 218.87 38.248 225.206 29.032C231.734 19.816 240.854 12.808 252.566 8.008C264.47 3.01599 278.582 0.519989 294.902 0.519989C309.686 0.519989 324.374 3.01599 338.966 8.008C353.75 13 366.806 19.912 378.134 28.744L355.67 59.848C334.55 43.72 313.334 35.656 292.022 35.656C284.534 35.656 278.006 36.616 272.438 38.536C266.87 40.456 262.55 43.144 259.478 46.6C256.598 49.864 255.158 53.8 255.158 58.408C255.158 64.552 257.366 69.352 261.782 72.808C266.198 76.072 273.59 78.568 283.958 80.296L321.974 86.632C342.134 89.896 357.206 96.328 367.191 105.928C377.174 115.336 382.166 127.816 382.166 143.368C382.166 156.424 378.71 167.848 371.798 177.64C364.886 187.24 354.998 194.728 342.134 200.104C329.462 205.288 314.486 207.88 297.206 207.88ZM513.454 207.88C498.478 207.88 484.462 205.288 471.406 200.104C458.35 194.728 446.926 187.336 437.134 177.928C427.534 168.52 419.95 157.576 414.382 145.096C409.006 132.424 406.318 118.792 406.318 104.2C406.318 89.416 409.006 75.784 414.382 63.304C419.95 50.632 427.63 39.592 437.422 30.184C447.214 20.776 458.542 13.48 471.406 8.29599C484.462 2.91999 498.478 0.231993 513.454 0.231993C524.59 0.231993 535.342 1.76799 545.71 4.83998C556.078 7.91199 565.678 12.232 574.51 17.8C583.534 23.368 591.214 30.088 597.55 37.96L569.326 65.896C562.03 56.872 553.582 50.056 543.982 45.448C534.574 40.84 524.398 38.536 513.454 38.536C504.43 38.536 495.982 40.264 488.11 43.72C480.238 46.984 473.422 51.592 467.662 57.544C461.902 63.304 457.39 70.216 454.126 78.28C450.862 86.152 449.23 94.792 449.23 104.2C449.23 113.416 450.862 122.056 454.126 130.12C457.39 137.992 461.998 144.904 467.95 150.856C473.902 156.616 480.814 161.128 488.686 164.392C496.75 167.656 505.486 169.288 514.894 169.288C525.454 169.288 535.342 167.08 544.558 162.664C553.774 158.248 561.934 151.912 569.038 143.656L596.398 170.728C590.062 178.408 582.478 185.032 573.646 190.6C564.814 196.168 555.214 200.488 544.846 203.56C534.67 206.44 524.206 207.88 513.454 207.88Z" fill="white"/>
</svg>
